<?xml version="1.0" standalone="no"?>
<!DOCTYPE svg PUBLIC "-//W3C//DTD SVG 1.1//EN" "http://www.w3.org/Graphics/SVG/1.1/DTD/svg11.dtd" >
<svg xmlns="http://www.w3.org/2000/svg" xmlns:xlink="http://www.w3.org/1999/xlink" version="1.1">
<metadata>
Created by FontForge 20160407 at Fri May 13 12:18:37 2016
 By Jimmy Wärting
Copyright (c) 2011 by Nol Leu. All rights reserved.
</metadata>
<defs>
<font id="GTWalsheim-Bold" horiz-adv-x="613" >
  <font-face 
    font-family="GT Walsheim"
    font-weight="600"
    font-stretch="normal"
    units-per-em="1000"
    panose-1="2 0 5 3 2 0 0 2 0 3"
    ascent="800"
    descent="-200"
    x-height="482"
    cap-height="700"
    bbox="-150 -321 1265 996"
    underline-thickness="50"
    underline-position="-100"
    stemh="130"
    stemv="153"
    unicode-range="U+0020-FB04"
  />
<missing-glyph horiz-adv-x="709" 
d="M355 700c286 0 271 -306 275 -306c6 0 16 23 27 23c17 0 20 -57 20 -88c0 -18 -1 -85 -23 -85c-10 0 -17 12 -18 14c-19 -79 -63 -258 -281 -258c-210 0 -258 164 -281 259c0 0 -7 -15 -18 -15c-22 0 -23 67 -23 85c0 37 4 88 20 88c11 0 21 -23 27 -23
c4 0 -11 306 275 306zM355 224c-30 0 -50 -11 -70 -22c-5 9 -7 19 -7 32s2 23 10 32c2 1 3 4 3 7c0 7 -6 13 -13 13c-18 0 -27 -39 -27 -59c0 -9 2 -23 9 -34c-13 -5 -29 -9 -47 -9c0 0 13 -102 150 -102s134 102 117 102c-5 0 -30 8 -32 9c6 11 11 25 11 37
c0 16 -9 56 -27 56c-5 0 -13 -3 -13 -14c0 -4 1 -4 2 -6c7 -8 11 -13 11 -32c0 -13 -2 -23 -7 -32c-22 11 -40 22 -70 22zM280 400c0 -28 -22 -50 -51 -50c-26 0 -51 18 -51 54c0 10 2 23 13 32c-38 -13 -51 -51 -51 -51s33 -46 89 -46c67 0 88 64 88 64s-15 26 -57 38
c11 -9 20 -24 20 -41zM430 400c0 12 4 27 15 36c-38 -12 -53 -33 -53 -33s22 -64 89 -64c56 0 89 46 89 46s-14 40 -53 53c10 -9 15 -22 15 -37c0 -30 -22 -51 -51 -51s-51 22 -51 50z" />
    <glyph glyph-name="IJ" unicode="IJ" horiz-adv-x="881" 
d="M822 700v-459c0 -166 -97 -258 -254 -258c-174 0 -258 113 -258 259h162c0 -69 30 -120 94 -120c60 0 94 45 94 119v459h162zM67 0v700h164v-700h-164z" />
    <glyph glyph-name="fi" unicode="fi" horiz-adv-x="698" 
d="M367 698v-110c-16 4 -29 6 -49 6c-31 0 -63 -5 -63 -61v-51h112v-114h-112v-368h-153v368h-86v114h86v42c0 174 107 187 175 187c47 0 73 -6 90 -13zM462 0v482h153v-482h-153zM443 641c0 53 42 95 95 95c54 0 96 -42 96 -95c0 -52 -42 -94 -96 -94c-53 0 -95 42 -95 94z
" />
    <glyph glyph-name="fl" unicode="fl" horiz-adv-x="662" 
d="M367 698v-110c-16 4 -29 6 -49 6c-31 0 -63 -5 -63 -61v-51h112v-114h-112v-368h-153v368h-86v114h86v42c0 174 107 187 175 187c47 0 73 -6 90 -13zM444 0v700h153v-700h-153z" />
    <glyph glyph-name="ij" unicode="ij" horiz-adv-x="642" 
d="M83 0v482h153v-482h-153zM61 642c0 54 43 97 98 97c56 0 99 -43 99 -97c0 -53 -43 -97 -99 -97c-55 0 -98 44 -98 97zM559 482v-557c0 -127 -59 -155 -132 -155c-34 0 -81 6 -100 12v114c19 -5 29 -6 37 -6c29 0 43 12 43 48v544h152zM385 642c0 54 43 97 98 97
c54 0 98 -43 98 -97c0 -53 -43 -97 -98 -97c-56 0 -98 44 -98 97z" />
    <glyph glyph-name="uniFB03" unicode="ffi" horiz-adv-x="1030" 
d="M368 698v-110c-16 4 -28 6 -49 6c-32 0 -64 -5 -64 -61v-51h113v-114h-112v-368h-153v368h-87v114h87v42c0 174 107 187 175 187c46 0 72 -6 90 -13zM748 698v-110c-16 4 -28 6 -49 6c-32 0 -64 -5 -64 -61v-51h113v-114h-112v-368h-153v368h-87v114h87v42
c0 174 107 187 175 187c46 0 72 -6 90 -13zM843 0v482h153v-482h-153zM821 642c0 54 43 97 98 97c56 0 99 -43 99 -97c0 -53 -43 -97 -99 -97c-55 0 -98 44 -98 97z" />
    <glyph glyph-name="uniFB00" unicode="ff" horiz-adv-x="809" 
d="M368 698v-110c-16 4 -28 6 -49 6c-32 0 -64 -5 -64 -61v-51h113v-114h-112v-368h-153v368h-87v114h87v42c0 174 107 187 175 187c46 0 72 -6 90 -13zM748 698v-110c-16 4 -28 6 -49 6c-32 0 -64 -5 -64 -61v-51h113v-114h-112v-368h-153v368h-87v114h87v42
c0 174 107 187 175 187c46 0 72 -6 90 -13z" />
    <glyph glyph-name="uniFB04" unicode="ffl" horiz-adv-x="990" 
d="M368 698v-110c-16 4 -28 6 -49 6c-32 0 -64 -5 -64 -61v-51h113v-114h-112v-368h-153v368h-87v114h87v42c0 174 107 187 175 187c46 0 72 -6 90 -13zM748 698v-110c-16 4 -28 6 -49 6c-32 0 -64 -5 -64 -61v-51h113v-114h-112v-368h-153v368h-87v114h87v42
c0 174 107 187 175 187c46 0 72 -6 90 -13zM825 0v700h153v-700h-153z" />
    <glyph glyph-name=".notdef" horiz-adv-x="709" 
d="M355 700c286 0 271 -306 275 -306c6 0 16 23 27 23c17 0 20 -57 20 -88c0 -18 -1 -85 -23 -85c-10 0 -17 12 -18 14c-19 -79 -63 -258 -281 -258c-210 0 -258 164 -281 259c0 0 -7 -15 -18 -15c-22 0 -23 67 -23 85c0 37 4 88 20 88c11 0 21 -23 27 -23
c4 0 -11 306 275 306zM355 224c-30 0 -50 -11 -70 -22c-5 9 -7 19 -7 32s2 23 10 32c2 1 3 4 3 7c0 7 -6 13 -13 13c-18 0 -27 -39 -27 -59c0 -9 2 -23 9 -34c-13 -5 -29 -9 -47 -9c0 0 13 -102 150 -102s134 102 117 102c-5 0 -30 8 -32 9c6 11 11 25 11 37
c0 16 -9 56 -27 56c-5 0 -13 -3 -13 -14c0 -4 1 -4 2 -6c7 -8 11 -13 11 -32c0 -13 -2 -23 -7 -32c-22 11 -40 22 -70 22zM280 400c0 -28 -22 -50 -51 -50c-26 0 -51 18 -51 54c0 10 2 23 13 32c-38 -13 -51 -51 -51 -51s33 -46 89 -46c67 0 88 64 88 64s-15 26 -57 38
c11 -9 20 -24 20 -41zM430 400c0 12 4 27 15 36c-38 -12 -53 -33 -53 -33s22 -64 89 -64c56 0 89 46 89 46s-14 40 -53 53c10 -9 15 -22 15 -37c0 -30 -22 -51 -51 -51s-51 22 -51 50z" />
    <glyph glyph-name=".null" horiz-adv-x="0" 
 />
    <glyph glyph-name="A" unicode="A" horiz-adv-x="660" 
d="M656 0h-176l-27 85h-249l-27 -85h-173l250 700h149zM413 212l-84 288l-86 -288h170z" />
    <glyph glyph-name="A.smcp" horiz-adv-x="623" 
d="M385 560l208 -560h-167l-20 66h-193l-20 -66h-163l204 560h151zM310 395l-64 -216h126z" />
    <glyph glyph-name="AE" unicode="&#xc6;" horiz-adv-x="919" 
d="M854 570h-265v-159h265v-127h-265v-154h265v-130h-427v86h-212l-38 -86h-176l336 700h517v-130zM271 213h156v342z" />
    <glyph glyph-name="AE.smcp" horiz-adv-x="805" 
d="M731 444h-201v-110h201v-112h-201v-106h201v-116h-353v66h-158l-28 -66h-165l266 560h438v-116zM268 179h110v248z" />
    <glyph glyph-name="AEacute" unicode="&#x1fc;" horiz-adv-x="919" 
d="M854 570h-265v-159h265v-127h-265v-154h265v-130h-427v86h-212l-38 -86h-176l336 700h517v-130zM271 213h156v342zM692 868l-276 -128l-49 106l276 128z" />
    <glyph glyph-name="AEacute.smcp" horiz-adv-x="805" 
d="M731 444h-201v-110h201v-112h-201v-106h201v-116h-353v66h-158l-28 -66h-165l266 560h438v-116zM268 179h110v248zM602 686l-233 -98l-37 94l233 98z" />
    <glyph glyph-name="Aacute" unicode="&#xc1;" horiz-adv-x="660" 
d="M403 700l253 -700h-176l-27 85h-249l-27 -85h-173l250 700h149zM329 500l-86 -288h170zM493 855l-276 -128l-49 106l276 128z" />
    <glyph glyph-name="Aacute.smcp" horiz-adv-x="623" 
d="M385 560l208 -560h-167l-20 66h-193l-20 -66h-163l204 560h151zM310 395l-64 -216h126zM447 678l-234 -98l-37 95l234 97z" />
    <glyph glyph-name="Abreve" unicode="&#x102;" horiz-adv-x="660" 
d="M403 700l253 -700h-176l-27 85h-249l-27 -85h-173l250 700h149zM329 500l-86 -288h170zM107 913h122c16 -35 46 -60 99 -60c55 0 86 27 101 60h123c-16 -105 -112 -172 -223 -172s-203 68 -222 172z" />
    <glyph glyph-name="Abreve.smcp" horiz-adv-x="623" 
d="M385 560l208 -560h-167l-20 66h-193l-20 -66h-163l204 560h151zM310 395l-64 -216h126zM123 737h108c13 -27 36 -49 80 -49s68 23 79 49h109c-16 -92 -95 -145 -188 -145s-171 54 -188 145z" />
    <glyph glyph-name="Acircumflex" unicode="&#xc2;" horiz-adv-x="660" 
d="M403 700l253 -700h-176l-27 85h-249l-27 -85h-173l250 700h149zM329 500l-86 -288h170zM134 837l195 157l197 -157l-79 -87l-117 93l-116 -93z" />
    <glyph glyph-name="Acircumflex.smcp" horiz-adv-x="623" 
d="M385 560l208 -560h-167l-20 66h-193l-20 -66h-163l204 560h151zM310 395l-64 -216h126zM147 674l164 132l165 -132l-69 -75l-95 77l-96 -76z" />
    <glyph glyph-name="Adieresis" unicode="&#xc4;" horiz-adv-x="660" 
d="M403 700l253 -700h-176l-27 85h-249l-27 -85h-173l250 700h149zM329 500l-86 -288h170zM355 852c0 52 41 94 94 94s95 -42 95 -94c0 -51 -42 -93 -95 -93s-94 42 -94 93zM114 852c0 52 42 94 95 94c52 0 95 -42 95 -94c0 -51 -42 -93 -95 -93c-54 0 -95 42 -95 93z" />
    <glyph glyph-name="Adieresis.001" horiz-adv-x="660" 
d="M388 870l-87 -130h-97l87 130h97zM525 870l-87 -130h-96l87 130h96zM403 700l253 -700h-176l-27 85h-249l-27 -85h-173l250 700h149zM329 500l-86 -288h170z" />
    <glyph glyph-name="Adieresis.001.smcp" horiz-adv-x="623" 
d="M357 696l-69 -104h-84l70 104h83zM473 696l-69 -104h-84l70 104h83zM385 560l208 -560h-167l-20 66h-193l-20 -66h-163l204 560h151zM310 395l-64 -216h126z" />
    <glyph glyph-name="Adieresis.smcp" horiz-adv-x="623" 
d="M385 560l208 -560h-167l-20 66h-193l-20 -66h-163l204 560h151zM310 395l-64 -216h126zM327 681c0 44 35 81 81 81c47 0 83 -38 83 -81c0 -44 -36 -81 -83 -81c-46 0 -81 36 -81 81zM129 681c0 44 36 81 82 81s82 -37 82 -81s-35 -81 -82 -81s-82 37 -82 81z" />
    <glyph glyph-name="Agrave" unicode="&#xc0;" horiz-adv-x="660" 
d="M403 700l253 -700h-176l-27 85h-249l-27 -85h-173l250 700h149zM329 500l-86 -288h170zM457 737l-276 128l48 106l276 -128z" />
    <glyph glyph-name="Agrave.smcp" horiz-adv-x="623" 
d="M385 560l208 -560h-167l-20 66h-193l-20 -66h-163l204 560h151zM310 395l-64 -216h126zM416 584l-234 99l37 94l234 -99z" />
    <glyph glyph-name="Amacron" unicode="&#x100;" horiz-adv-x="660" 
d="M403 700l253 -700h-176l-27 85h-249l-27 -85h-173l250 700h149zM329 500l-86 -288h170zM512 909v-115h-368v115h368z" />
    <glyph glyph-name="Amacron.smcp" horiz-adv-x="623" 
d="M385 560l208 -560h-167l-20 66h-193l-20 -66h-163l204 560h151zM310 395l-64 -216h126zM459 731v-100h-299v100h299z" />
    <glyph glyph-name="Aogonek" unicode="&#x104;" horiz-adv-x="660" 
d="M623 -119l-2 -78c-26 -9 -58 -15 -91 -15c-90 0 -129 44 -129 97c0 43 26 77 79 115l-27 85h-249l-27 -85h-173l250 700h149l253 -700h-79c-27 -18 -56 -39 -56 -78c0 -28 16 -53 48 -53c13 0 35 4 54 12zM329 500l-86 -288h170z" />
    <glyph glyph-name="Aogonek.smcp" horiz-adv-x="623" 
d="M548 -95l-2 -63c-23 -7 -47 -12 -76 -12c-76 0 -108 36 -108 78c0 34 21 62 64 92l-20 66h-193l-20 -66h-163l204 560h151l208 -560h-81c-22 -14 -45 -31 -45 -62c0 -22 12 -43 38 -43c10 0 28 3 43 10zM310 395l-64 -216h126z" />
    <glyph glyph-name="Aring" unicode="&#xc5;" horiz-adv-x="660" 
d="M403 700l253 -700h-176l-27 85h-249l-27 -85h-173l250 700h149zM329 500l-86 -288h170zM330 994c74 0 134 -62 134 -135s-60 -134 -134 -134s-134 61 -134 135c0 73 60 134 134 134zM330 905c-25 0 -45 -21 -45 -45s21 -44 45 -44s45 20 45 44s-20 45 -45 45z" />
    <glyph glyph-name="Aring.smcp" horiz-adv-x="623" 
d="M385 560l208 -560h-167l-20 66h-193l-20 -66h-163l204 560h151zM310 395l-64 -216h126zM311 803c63 0 113 -52 113 -113s-50 -112 -112 -112c-63 0 -114 51 -114 113c0 61 51 112 113 112zM312 728c-21 0 -37 -19 -37 -37c0 -19 17 -35 37 -35c19 0 35 16 35 35
s-15 37 -35 37z" />
    <glyph glyph-name="Aringacute" unicode="&#x1fa;" horiz-adv-x="660" 
d="M410 757c0 -23 -10 -43 -24 -57h17l253 -700h-176l-27 85h-249l-27 -85h-173l249 699h17c-16 14 -25 35 -25 58c0 45 37 82 82 82c46 0 83 -38 83 -82zM329 500l-86 -288h170zM328 784c-16 0 -28 -14 -28 -27c0 -14 13 -27 28 -27c14 0 26 13 26 27s-11 27 -26 27z
M451 922l-235 -115l-31 66l235 114z" />
    <glyph glyph-name="Aringacute.smcp" horiz-adv-x="623" 
d="M406 738l-181 -81l-24 59l182 81zM372 179l-62 216l-64 -216h126zM593 0h-167l-20 66h-193l-20 -66h-163l204 559h21c-11 12 -19 29 -19 48c0 41 33 73 73 73c41 0 73 -33 73 -73c0 -19 -7 -36 -19 -48h22zM309 630c-14 0 -23 -11 -23 -23s10 -23 23 -23s23 11 23 24
c0 12 -9 22 -23 22z" />
    <glyph glyph-name="Atilde" unicode="&#xc3;" horiz-adv-x="660" 
d="M403 700l253 -700h-176l-27 85h-249l-27 -85h-173l250 700h149zM329 500l-86 -288h170zM188 780l-51 91c60 36 87 38 99 38c43 0 129 -27 168 -27c15 0 29 4 79 27l46 -89c-55 -43 -99 -45 -111 -45c-42 0 -123 26 -159 26c-23 0 -47 -11 -71 -21z" />
    <glyph glyph-name="Atilde.smcp" horiz-adv-x="623" 
d="M385 560l208 -560h-167l-20 66h-193l-20 -66h-163l204 560h151zM310 395l-64 -216h126zM192 615l-41 83c49 28 70 30 81 30c37 0 108 -22 140 -22c13 0 24 4 65 22l39 -81c-46 -35 -83 -36 -91 -36c-38 0 -103 20 -133 20c-19 0 -40 -8 -60 -16z" />
    <glyph glyph-name="B" unicode="B" horiz-adv-x="633" 
d="M63 0v700h290c192 0 227 -124 227 -194c0 -95 -63 -139 -111 -152c41 -10 117 -50 117 -155c0 -72 -35 -199 -227 -199h-296zM326 296h-102v-172h101c79 0 97 52 97 86c0 33 -18 86 -96 86zM224 415h97c79 0 97 49 97 84c0 31 -15 82 -97 82h-97v-166z" />
    <glyph glyph-name="B.smcp" horiz-adv-x="577" 
d="M72 0v560h257c154 0 182 -97 182 -153c0 -76 -51 -113 -89 -124c33 -8 94 -43 94 -126c0 -57 -29 -157 -182 -157h-262zM290 233h-67v-123h67c56 0 72 34 72 61c0 25 -14 62 -72 62zM223 337h65c55 0 72 33 72 61c0 23 -12 60 -72 60h-65v-121z" />
    <glyph glyph-name="C" unicode="C" horiz-adv-x="788" 
d="M585 251h172c-27 -148 -154 -269 -350 -269c-234 0 -375 172 -375 368c0 192 134 368 373 368c205 0 332 -129 351 -290h-169c-15 82 -77 144 -180 144c-134 0 -210 -106 -210 -222c0 -123 85 -222 212 -222c94 0 156 54 176 123z" />
    <glyph glyph-name="C.smcp" horiz-adv-x="690" 
d="M482 212h160c-20 -124 -123 -227 -288 -227c-191 0 -304 138 -304 295c0 154 109 295 303 295c169 0 273 -108 288 -240h-158c-12 61 -57 103 -130 103c-97 0 -149 -75 -149 -158c0 -88 59 -158 151 -158c68 0 113 39 127 90z" />
    <glyph glyph-name="CR" horiz-adv-x="250" 
 />
    <glyph glyph-name="Cacute" unicode="&#x106;" horiz-adv-x="788" 
d="M585 251h172c-27 -148 -154 -269 -350 -269c-234 0 -375 172 -375 368c0 192 134 368 373 368c205 0 332 -129 351 -290h-169c-15 82 -77 144 -180 144c-134 0 -210 -106 -210 -222c0 -123 85 -222 212 -222c94 0 156 54 176 123zM556 868l-276 -128l-48 105l276 128z
" />
    <glyph glyph-name="Cacute.smcp" horiz-adv-x="690" 
d="M482 212h160c-20 -124 -123 -227 -288 -227c-191 0 -304 138 -304 295c0 154 109 295 303 295c169 0 273 -108 288 -240h-158c-12 61 -57 103 -130 103c-97 0 -149 -75 -149 -158c0 -88 59 -158 151 -158c68 0 113 39 127 90zM480 686l-234 -99l-37 94l234 99z" />
    <glyph glyph-name="Ccaron" unicode="&#x10c;" horiz-adv-x="788" 
d="M585 251h172c-27 -148 -154 -269 -350 -269c-234 0 -375 172 -375 368c0 192 134 368 373 368c205 0 332 -129 351 -290h-169c-15 82 -77 144 -180 144c-134 0 -210 -106 -210 -222c0 -123 85 -222 212 -222c94 0 156 54 176 123zM393 742l-182 157l73 87l109 -97l110 97
l74 -87z" />
    <glyph glyph-name="Ccaron.smcp" horiz-adv-x="690" 
d="M482 212h160c-20 -124 -123 -227 -288 -227c-191 0 -304 138 -304 295c0 154 109 295 303 295c169 0 273 -108 288 -240h-158c-12 61 -57 103 -130 103c-97 0 -149 -75 -149 -158c0 -88 59 -158 151 -158c68 0 113 39 127 90zM345 593l-156 131l65 75l91 -78l91 78
l66 -75z" />
    <glyph glyph-name="Ccedilla" unicode="&#xc7;" horiz-adv-x="788" 
d="M756 428h-169c-15 82 -77 144 -180 144c-134 0 -210 -106 -210 -222c0 -123 85 -222 212 -222c94 0 156 54 176 123h172c-26 -141 -144 -256 -319 -267v-33c8 8 21 15 41 15c45 0 84 -38 84 -89s-38 -101 -106 -101c-42 0 -104 19 -112 93h74c4 -18 16 -30 35 -30
c20 0 34 15 34 37s-15 35 -34 35c-11 0 -22 -4 -29 -17h-65v91c-207 21 -328 183 -328 365c0 192 134 368 373 368c205 0 332 -129 351 -290z" />
    <glyph glyph-name="Ccedilla.smcp" horiz-adv-x="690" 
d="M642 212c-19 -117 -112 -214 -259 -225v-26c6 6 17 13 36 13c40 0 68 -33 68 -73c0 -43 -31 -82 -88 -82c-43 0 -87 22 -92 76h64c2 -13 11 -23 26 -23s26 12 26 28s-10 27 -26 27c-11 0 -18 -5 -22 -13h-58v73c-169 16 -267 147 -267 293c0 154 109 295 303 295
c169 0 273 -108 288 -240h-158c-12 61 -57 103 -130 103c-97 0 -149 -75 -149 -158c0 -88 59 -158 151 -158c68 0 113 39 127 90h160z" />
    <glyph glyph-name="Ccircumflex" unicode="&#x108;" horiz-adv-x="788" 
d="M585 251h172c-27 -148 -154 -269 -350 -269c-234 0 -375 172 -375 368c0 192 134 368 373 368c205 0 332 -129 351 -290h-169c-15 82 -77 144 -180 144c-134 0 -210 -106 -210 -222c0 -123 85 -222 212 -222c94 0 156 54 176 123zM204 838l196 157l196 -157l-79 -88
l-117 94l-116 -93z" />
    <glyph glyph-name="Ccircumflex.smcp" horiz-adv-x="690" 
d="M482 212h160c-20 -124 -123 -227 -288 -227c-191 0 -304 138 -304 295c0 154 109 295 303 295c169 0 273 -108 288 -240h-158c-12 61 -57 103 -130 103c-97 0 -149 -75 -149 -158c0 -88 59 -158 151 -158c68 0 113 39 127 90zM185 675l164 131l164 -131l-68 -75l-96 75
l-95 -75z" />
    <glyph glyph-name="Cdotaccent" unicode="&#x10a;" horiz-adv-x="788" 
d="M585 251h172c-27 -148 -154 -269 -350 -269c-234 0 -375 172 -375 368c0 192 134 368 373 368c205 0 332 -129 351 -290h-169c-15 82 -77 144 -180 144c-134 0 -210 -106 -210 -222c0 -123 85 -222 212 -222c94 0 156 54 176 123zM305 861c0 51 41 94 94 94
s95 -43 95 -94s-42 -94 -95 -94s-94 43 -94 94z" />
    <glyph glyph-name="Cdotaccent.smcp" horiz-adv-x="690" 
d="M482 212h160c-20 -124 -123 -227 -288 -227c-191 0 -304 138 -304 295c0 154 109 295 303 295c169 0 273 -108 288 -240h-158c-12 61 -57 103 -130 103c-97 0 -149 -75 -149 -158c0 -88 59 -158 151 -158c68 0 113 39 127 90zM266 690c0 44 36 81 82 81
c47 0 83 -38 83 -81c0 -44 -36 -81 -83 -81c-46 0 -82 36 -82 81z" />
    <glyph glyph-name="D" unicode="D" horiz-adv-x="720" 
d="M67 700h257c232 0 364 -171 364 -350s-131 -350 -364 -350h-257v700zM316 560h-87v-420h87c131 0 207 102 207 210s-76 210 -207 210z" />
    <glyph glyph-name="D.smcp" horiz-adv-x="639" 
d="M78 560h219c185 0 292 -135 292 -280s-105 -280 -292 -280h-219v560zM287 431h-58v-302h58c93 0 147 73 147 151s-54 151 -147 151z" />
    <glyph glyph-name="Dcaron" unicode="&#x10e;" horiz-adv-x="720" 
d="M67 700h257c232 0 364 -171 364 -350s-131 -350 -364 -350h-257v700zM316 560h-87v-420h87c131 0 207 102 207 210s-76 210 -207 210zM346 737l-182 157l72 87l110 -97l110 97l73 -87z" />
    <glyph glyph-name="Dcaron.smcp" horiz-adv-x="639" 
d="M78 560h219c185 0 292 -135 292 -280s-105 -280 -292 -280h-219v560zM287 431h-58v-302h58c93 0 147 73 147 151s-54 151 -147 151zM311 584l-156 132l65 75l91 -79l92 79l66 -75z" />
    <glyph glyph-name="Dcroat" unicode="&#x110;" horiz-adv-x="720" 
d="M67 700h257c232 0 364 -171 364 -350s-131 -350 -364 -350h-257v293h-101v114h101v293zM334 407v-114h-105v-153h87c131 0 207 102 207 210s-76 210 -207 210h-87v-153h105z" />
    <glyph glyph-name="Dcroat.smcp" horiz-adv-x="639" 
d="M78 560h219c186 0 292 -135 292 -280s-105 -280 -292 -280h-219v229h-73v101h73v230zM305 330v-101h-76v-100h58c93 0 148 73 148 151s-55 151 -148 151h-58v-101h76z" />
    <glyph glyph-name="Delta" unicode="&#x394;" horiz-adv-x="660" 
d="M329 500l-111 -373h220zM403 700l253 -700h-652l250 700h149z" />
    <glyph glyph-name="E" unicode="E" horiz-adv-x="555" 
d="M494 570h-265v-159h265v-127h-265v-154h265v-130h-427v700h427v-130z" />
    <glyph glyph-name="E.smcp" horiz-adv-x="503" 
d="M431 444h-202v-110h202v-112h-202v-106h202v-116h-353v560h353v-116z" />
    <glyph glyph-name="Eacute" unicode="&#xc9;" horiz-adv-x="555" 
d="M494 570h-265v-159h265v-127h-265v-154h265v-130h-427v700h427v-130zM442 868l-276 -128l-48 106l276 128z" />
    <glyph glyph-name="Eacute.smcp" horiz-adv-x="503" 
d="M431 444h-202v-110h202v-112h-202v-106h202v-116h-353v560h353v-116zM390 686l-234 -98l-37 94l234 98z" />
    <glyph glyph-name="Ebreve" unicode="&#x114;" horiz-adv-x="555" 
d="M494 570h-265v-159h265v-127h-265v-154h265v-130h-427v700h427v-130zM55 913h123c16 -36 46 -61 99 -61c58 0 87 30 100 61h124c-16 -105 -113 -172 -223 -172c-111 0 -204 67 -223 172z" />
    <glyph glyph-name="Ebreve.smcp" horiz-adv-x="503" 
d="M430 444h-201v-110h201v-112h-201v-106h201v-116h-352v560h352v-116zM64 736h108c12 -27 35 -49 79 -49c45 0 69 23 80 49h109c-16 -92 -96 -145 -188 -145c-94 0 -171 54 -188 145z" />
    <glyph glyph-name="Ecaron" unicode="&#x11a;" horiz-adv-x="555" 
d="M494 570h-265v-159h265v-127h-265v-154h265v-130h-427v700h427v-130zM277 737l-182 157l72 87l110 -97l110 97l73 -87z" />
    <glyph glyph-name="Ecaron.smcp" horiz-adv-x="503" 
d="M431 444h-202v-110h202v-112h-202v-106h202v-116h-353v560h353v-116zM251 586l-157 132l65 75l92 -79l92 79l65 -75z" />
    <glyph glyph-name="Ecircumflex" unicode="&#xca;" horiz-adv-x="555" 
d="M494 570h-265v-159h265v-127h-265v-154h265v-130h-427v700h427v-130zM88 824l195 157l197 -157l-79 -87l-117 93l-116 -93z" />
    <glyph glyph-name="Ecircumflex.smcp" horiz-adv-x="503" 
d="M431 444h-202v-110h202v-112h-202v-106h202v-116h-353v560h353v-116zM92 661l163 132l165 -132l-68 -75l-96 76l-95 -76z" />
    <glyph glyph-name="Edieresis" unicode="&#xcb;" horiz-adv-x="555" 
d="M494 570h-265v-159h265v-127h-265v-154h265v-130h-427v700h427v-130zM317 852c0 52 41 94 94 94s95 -42 95 -94c0 -51 -42 -93 -95 -93s-94 42 -94 93zM76 852c0 52 42 94 95 94c52 0 95 -42 95 -94c0 -51 -42 -93 -95 -93c-54 0 -95 42 -95 93z" />
    <glyph glyph-name="Edieresis.001" horiz-adv-x="555" 
d="M347 870l-87 -130h-96l87 130h96zM485 870l-87 -130h-97l87 130h97zM494 570h-265v-159h265v-127h-265v-154h265v-130h-427v700h427v-130z" />
    <glyph glyph-name="Edieresis.001.smcp" horiz-adv-x="503" 
d="M306 696l-70 -104h-83l70 104h83zM422 696l-69 -104h-84l70 104h83zM431 444h-202v-110h202v-112h-202v-106h202v-116h-353v560h353v-116z" />
    <glyph glyph-name="Edieresis.smcp" horiz-adv-x="503" 
d="M431 444h-202v-110h202v-112h-202v-106h202v-116h-354v560h354v-116zM277 681c0 44 35 81 81 81c47 0 83 -38 83 -81c0 -44 -36 -81 -83 -81c-46 0 -81 36 -81 81zM78 681c0 44 37 81 83 81s83 -37 83 -81s-37 -81 -83 -81s-83 37 -83 81z" />
    <glyph glyph-name="Edotaccent" unicode="&#x116;" horiz-adv-x="555" 
d="M494 570h-265v-159h265v-127h-265v-154h265v-130h-427v700h427v-130zM183 861c0 51 41 94 94 94s95 -43 95 -94s-42 -94 -95 -94s-94 43 -94 94z" />
    <glyph glyph-name="Edotaccent.smcp" horiz-adv-x="503" 
d="M431 444h-202v-110h202v-112h-202v-106h202v-116h-353v560h353v-116zM169 687c0 44 36 81 82 81s82 -37 82 -81s-35 -82 -82 -82s-82 38 -82 82z" />
    <glyph glyph-name="Egrave" unicode="&#xc8;" horiz-adv-x="555" 
d="M494 570h-265v-159h265v-127h-265v-154h265v-130h-427v700h427v-130zM407 728l-276 128l48 106l276 -128z" />
    <glyph glyph-name="Egrave.smcp" horiz-adv-x="503" 
d="M431 444h-202v-110h202v-112h-202v-106h202v-116h-353v560h353v-116zM359 581l-233 98l36 94l234 -98z" />
    <glyph glyph-name="Emacron" unicode="&#x112;" horiz-adv-x="555" 
d="M494 570h-265v-159h265v-127h-265v-154h265v-130h-427v700h427v-130zM462 909v-115h-368v115h368z" />
    <glyph glyph-name="Emacron.smcp" horiz-adv-x="503" 
d="M431 444h-202v-110h202v-112h-202v-106h202v-116h-353v560h353v-116zM401 731v-100h-299v100h299z" />
    <glyph glyph-name="Eng" unicode="&#x14a;" horiz-adv-x="717" 
d="M229 700l260 -456v456h161v-688c0 -165 -100 -257 -249 -257c-82 0 -132 28 -176 76l94 100c25 -22 43 -38 76 -38c59 0 92 50 92 108l-258 449v-450h-162v700h162z" />
    <glyph glyph-name="Eng.smcp" horiz-adv-x="652" 
d="M221 -137l83 93c24 -17 33 -25 53 -25c38 0 62 27 65 71l-193 335v-337h-151v560h151l195 -346v346h151v-544c0 -146 -87 -212 -210 -212c-63 0 -104 17 -144 59z" />
    <glyph glyph-name="Eogonek" unicode="&#x118;" horiz-adv-x="555" 
d="M540 -119l-2 -78c-26 -9 -58 -15 -91 -15c-90 0 -129 44 -129 97c0 43 26 77 79 115h-330v700h427v-130h-265v-159h265v-127h-265v-154h265v-130c-27 -18 -56 -39 -56 -78c0 -28 16 -53 48 -53c13 0 35 4 54 12z" />
    <glyph glyph-name="Eogonek.smcp" horiz-adv-x="502" 
d="M467 -95l-3 -63c-23 -7 -46 -12 -75 -12c-76 0 -108 36 -108 78c0 34 21 62 63 92h-266v560h353v-116h-202v-110h202v-112h-202v-106h202v-116c-22 -14 -45 -31 -45 -62c0 -22 12 -43 38 -43c10 0 28 3 43 10z" />
    <glyph glyph-name="Eth" unicode="&#xd0;" horiz-adv-x="720" 
d="M67 700h257c230 0 364 -171 364 -350s-133 -350 -364 -350h-257v289h-110v122h110v289zM342 411v-122h-113v-149h87c131 0 207 102 207 210s-76 210 -207 210h-87v-149h113z" />
    <glyph glyph-name="Eth.smcp" horiz-adv-x="639" 
d="M78 560h219c184 0 292 -135 292 -280s-106 -280 -292 -280h-219v225h-84v110h84v225zM308 335v-110h-79v-96h58c93 0 147 73 147 151s-54 151 -147 151h-58v-96h79z" />
    <glyph glyph-name="Euro" unicode="&#x20ac;" horiz-adv-x="630" 
d="M442 236h162c0 -136 -105 -251 -268 -251s-266 116 -266 251h-62l20 88h42v53h-62l20 87h42c0 135 103 251 267 251c156 0 258 -105 266 -233h-162c-7 54 -46 96 -105 96c-64 0 -104 -52 -104 -114h171l-20 -87h-151v-53h171l-20 -88h-151c0 -62 40 -114 104 -114
c65 0 106 52 106 114z" />
    <glyph glyph-name="F" unicode="F" horiz-adv-x="550" 
d="M494 564h-265v-189h265v-133h-265v-242h-162v700h427v-136z" />
    <glyph glyph-name="F.smcp" horiz-adv-x="499" 
d="M431 435h-202v-135h202v-121h-202v-179h-151v560h353v-125z" />
    <glyph glyph-name="G" unicode="G" horiz-adv-x="835" 
d="M455 249v121h363v-121h-72c-28 -163 -155 -267 -342 -267c-241 0 -372 172 -372 364c0 197 138 372 367 372c184 0 311 -112 323 -245h-173c-10 54 -64 105 -151 105c-128 0 -200 -110 -200 -231c0 -122 72 -228 211 -228c103 0 158 59 170 130h-124z" />
    <glyph glyph-name="G.smcp" horiz-adv-x="720" 
d="M377 200v104h305v-104h-55c-21 -131 -124 -215 -277 -215c-194 0 -300 135 -300 292c0 159 110 298 298 298c153 0 258 -93 268 -204h-165c-6 37 -43 74 -106 74c-92 0 -141 -81 -141 -169c0 -90 51 -166 150 -166c72 0 110 41 119 90h-96z" />
    <glyph glyph-name="Gbreve" unicode="&#x11e;" horiz-adv-x="835" 
d="M455 249v121h363v-121h-72c-28 -163 -155 -267 -342 -267c-241 0 -372 172 -372 364c0 197 138 372 367 372c184 0 311 -112 323 -245h-173c-10 54 -64 105 -151 105c-128 0 -200 -110 -200 -231c0 -122 72 -228 211 -228c103 0 158 59 170 130h-124zM176 914h123
c15 -36 46 -61 99 -61c58 0 87 30 100 61h123c-15 -105 -112 -172 -222 -172c-111 0 -204 68 -223 172z" />
    <glyph glyph-name="Gbreve.smcp" horiz-adv-x="720" 
d="M377 200v104h305v-104h-55c-21 -131 -124 -215 -277 -215c-194 0 -300 135 -300 292c0 159 110 298 298 298c153 0 258 -93 268 -204h-165c-6 37 -43 74 -106 74c-92 0 -141 -81 -141 -169c0 -90 51 -166 150 -166c72 0 110 41 119 90h-96zM158 738h108
c12 -28 36 -50 80 -50s68 23 80 50h108c-15 -92 -95 -146 -188 -146s-171 54 -188 146z" />
    <glyph glyph-name="Gcircumflex" unicode="&#x11c;" horiz-adv-x="835" 
d="M455 249v121h363v-121h-72c-28 -163 -155 -267 -342 -267c-241 0 -372 172 -372 364c0 197 138 372 367 372c184 0 311 -112 323 -245h-173c-10 54 -64 105 -151 105c-128 0 -200 -110 -200 -231c0 -122 72 -228 211 -228c103 0 158 59 170 130h-124zM203 827l196 157
l196 -157l-79 -88l-117 94l-116 -93z" />
    <glyph glyph-name="Gcircumflex.smcp" horiz-adv-x="720" 
d="M377 200v104h305v-104h-55c-21 -131 -124 -215 -277 -215c-194 0 -300 135 -300 292c0 159 110 298 298 298c153 0 258 -93 268 -204h-165c-6 37 -43 74 -106 74c-92 0 -141 -81 -141 -169c0 -90 51 -166 150 -166c72 0 110 41 119 90h-96zM182 663l164 131l165 -131
l-69 -76l-96 77l-95 -76z" />
    <glyph glyph-name="Gcommaaccent" unicode="&#x122;" horiz-adv-x="835" 
d="M455 249v121h363v-121h-72c-28 -163 -155 -267 -342 -267c-241 0 -372 172 -372 364c0 197 138 372 367 372c184 0 311 -112 323 -245h-173c-10 54 -64 105 -151 105c-128 0 -200 -110 -200 -231c0 -122 72 -228 211 -228c103 0 158 59 170 130h-124zM325 -103
c0 42 32 77 79 77c48 0 83 -36 83 -110c0 -98 -61 -147 -158 -147v48c32 0 54 8 69 20s21 28 23 42c-2 -2 -10 -6 -24 -6c-40 0 -72 34 -72 76z" />
    <glyph glyph-name="Gcommaaccent.smcp" horiz-adv-x="720" 
d="M377 200v104h305v-104h-55c-21 -131 -124 -215 -277 -215c-194 0 -300 135 -300 292c0 159 110 298 298 298c153 0 258 -93 268 -204h-165c-6 37 -43 74 -106 74c-92 0 -141 -81 -141 -169c0 -90 51 -166 150 -166c72 0 110 41 119 90h-96zM283 -88c0 37 28 67 69 67
c42 0 72 -31 72 -95c0 -86 -54 -128 -138 -128v42c56 0 77 27 81 54c-2 -2 -9 -5 -21 -5c-37 0 -63 29 -63 65z" />
    <glyph glyph-name="Gdotaccent" unicode="&#x120;" horiz-adv-x="835" 
d="M455 249v121h363v-121h-72c-28 -163 -155 -267 -342 -267c-241 0 -372 172 -372 364c0 197 138 372 367 372c184 0 311 -112 323 -245h-173c-10 54 -64 105 -151 105c-128 0 -200 -110 -200 -231c0 -122 72 -228 211 -228c103 0 158 59 170 130h-124zM305 861
c0 51 41 94 94 94s95 -43 95 -94s-42 -94 -95 -94s-94 43 -94 94z" />
    <glyph glyph-name="Gdotaccent.smcp" horiz-adv-x="720" 
d="M377 200v104h305v-104h-55c-21 -131 -124 -215 -277 -215c-194 0 -300 135 -300 292c0 159 110 298 298 298c153 0 258 -93 268 -204h-165c-6 37 -43 74 -106 74c-92 0 -141 -81 -141 -169c0 -90 51 -166 150 -166c72 0 110 41 119 90h-96zM265 690c0 44 35 81 81 81
c47 0 83 -38 83 -81c0 -44 -36 -81 -83 -81c-46 0 -81 36 -81 81z" />
    <glyph glyph-name="H" unicode="H" horiz-adv-x="699" 
d="M471 0v278h-242v-278h-162v700h162v-283h242v283h161v-700h-161z" />
    <glyph glyph-name="H.smcp" horiz-adv-x="629" 
d="M400 0v214h-171v-214h-151v560h151v-218h171v218h152v-560h-152z" />
    <glyph glyph-name="Hbar" unicode="&#x126;" horiz-adv-x="699" 
d="M471 417v81h-242v-81h242zM67 700h162v-87h242v87h161v-700h-161v278h-242v-278h-162v700z" />
    <glyph glyph-name="Hbar.smcp" horiz-adv-x="628" 
d="M400 342v66h-171v-66h171zM78 560h151v-70h171v70h152v-560h-152v214h-171v-214h-151v560z" />
    <glyph glyph-name="Hcircumflex" unicode="&#x124;" horiz-adv-x="699" 
d="M471 0v278h-242v-278h-162v700h162v-283h242v283h161v-700h-161zM153 825l196 157l196 -157l-79 -88l-117 94l-116 -93z" />
    <glyph glyph-name="Hcircumflex.smcp" horiz-adv-x="629" 
d="M400 0v214h-171v-214h-151v560h151v-218h171v218h152v-560h-152zM150 662l165 131l164 -131l-69 -76l-95 77l-95 -76z" />
    <glyph glyph-name="I" unicode="I" horiz-adv-x="298" 
d="M67 0v700h164v-700h-164z" />
    <glyph glyph-name="I.smcp" horiz-adv-x="308" 
d="M78 0v560h152v-560h-152z" />
    <glyph glyph-name="IJ.smcp" horiz-adv-x="796" 
d="M726 560v-361c0 -146 -86 -213 -215 -213c-152 0 -220 93 -220 213h151c0 -49 22 -85 67 -85c41 0 65 31 65 85v361h152zM78 0v560h152v-560h-152z" />
    <glyph glyph-name="Iacute" unicode="&#xcd;" horiz-adv-x="298" 
d="M67 0v700h164v-700h-164zM311 855l-276 -128l-48 106l276 128z" />
    <glyph glyph-name="Iacute.smcp" horiz-adv-x="308" 
d="M78 0v560h152v-560h-152zM289 678l-233 -98l-37 95l233 97z" />
    <glyph glyph-name="Ibreve" unicode="&#x12c;" horiz-adv-x="298" 
d="M67 0v700h164v-700h-164zM-73 913h123c15 -35 46 -60 99 -60c58 0 87 30 100 60h123c-15 -105 -112 -172 -222 -172c-111 0 -204 68 -223 172z" />
    <glyph glyph-name="Ibreve.smcp" horiz-adv-x="308" 
d="M78 0v560h152v-560h-152zM-34 737h108c12 -27 36 -49 80 -49s68 23 80 49h108c-15 -92 -95 -145 -188 -145s-170 54 -188 145z" />
    <glyph glyph-name="Icircumflex" unicode="&#xce;" horiz-adv-x="298" 
d="M67 0v700h164v-700h-164zM-46 824l195 157l197 -157l-80 -87l-116 93l-116 -93z" />
    <glyph glyph-name="Icircumflex.smcp" horiz-adv-x="308" 
d="M78 0v560h152v-560h-152zM-10 661l164 132l164 -132l-68 -75l-96 76l-95 -76z" />
    <glyph glyph-name="Idieresis" unicode="&#xcf;" horiz-adv-x="298" 
d="M67 0v700h164v-700h-164zM186 852c0 52 42 94 95 94c52 0 94 -42 94 -94c0 -51 -41 -93 -94 -93c-54 0 -95 42 -95 93zM-54 852c0 52 41 94 94 94s95 -42 95 -94c0 -51 -42 -93 -95 -93s-94 42 -94 93z" />
    <glyph glyph-name="Idieresis.smcp" horiz-adv-x="308" 
d="M78 0v560h152v-560h-152zM179 681c0 44 36 81 82 81s83 -37 83 -81s-37 -81 -83 -81s-82 37 -82 81zM-19 681c0 44 36 81 82 81c47 0 83 -38 83 -81c0 -44 -36 -81 -83 -81c-46 0 -82 36 -82 81z" />
    <glyph glyph-name="Idotaccent" unicode="&#x130;" horiz-adv-x="298" 
d="M67 0v700h164v-700h-164zM54 861c0 52 42 94 95 94c52 0 95 -42 95 -94c0 -51 -42 -93 -95 -93c-54 0 -95 42 -95 93z" />
    <glyph glyph-name="Idotaccent.smcp" horiz-adv-x="308" 
d="M78 0v560h152v-560h-152zM72 687c0 45 35 82 81 82c47 0 83 -37 83 -82c0 -44 -36 -81 -83 -81c-46 0 -81 37 -81 81z" />
    <glyph glyph-name="Igrave" unicode="&#xcc;" horiz-adv-x="298" 
d="M67 0v700h164v-700h-164zM263 727l-276 128l48 106l276 -128z" />
    <glyph glyph-name="Igrave.smcp" horiz-adv-x="308" 
d="M78 0v560h152v-560h-152zM252 581l-233 98l37 94l233 -98z" />
    <glyph glyph-name="Imacron" unicode="&#x12a;" horiz-adv-x="298" 
d="M67 0v700h164v-700h-164zM334 909v-115h-368v115h368z" />
    <glyph glyph-name="Imacron.smcp" horiz-adv-x="308" 
d="M77 0v560h153v-560h-153zM304 731v-100h-300v100h300z" />
    <glyph glyph-name="Iogonek" unicode="&#x12e;" horiz-adv-x="298" 
d="M231 700v-700h-66c-27 -18 -56 -39 -56 -78c0 -28 16 -53 48 -53c13 0 35 4 54 12c-1 -25 -2 -51 -2 -78c-26 -9 -58 -15 -91 -15c-91 0 -130 44 -130 97c0 43 26 77 79 115v700h164z" />
    <glyph glyph-name="Iogonek.smcp" horiz-adv-x="308" 
d="M165 0c-22 -14 -45 -31 -45 -62c0 -22 12 -43 38 -43c10 0 28 3 43 10l-3 -63c-23 -7 -46 -12 -75 -12c-76 0 -108 36 -108 78c0 34 21 62 63 92v560h152v-560h-65z" />
    <glyph glyph-name="Itilde" unicode="&#x128;" horiz-adv-x="298" 
d="M67 0v700h164v-700h-164zM4 780l-51 91c60 36 87 38 99 38c43 0 129 -27 168 -27c15 0 29 4 79 27l46 -89c-55 -43 -99 -45 -111 -45c-42 0 -123 26 -159 26c-23 0 -47 -11 -71 -21z" />
    <glyph glyph-name="Itilde.smcp" horiz-adv-x="308" 
d="M78 0v560h152v-560h-152zM33 615l-42 83c50 28 71 30 82 30c37 0 107 -22 137 -22c15 0 30 5 68 22l39 -81c-36 -25 -63 -36 -91 -36c-38 0 -103 20 -134 20c-20 0 -41 -9 -59 -16z" />
    <glyph glyph-name="J" unicode="J" horiz-adv-x="583" 
d="M523 700v-459c0 -166 -97 -258 -253 -258c-173 0 -258 113 -258 259h162c0 -69 30 -120 94 -120c60 0 94 45 94 119v459h161z" />
    <glyph glyph-name="J.smcp" horiz-adv-x="542" 
d="M471 560v-361c0 -146 -84 -213 -213 -213c-153 0 -221 93 -221 213h151c0 -49 22 -85 67 -85c41 0 66 31 66 85v361h150z" />
    <glyph glyph-name="Jcircumflex" unicode="&#x134;" horiz-adv-x="583" 
d="M523 700v-459c0 -166 -97 -258 -253 -258c-173 0 -258 113 -258 259h162c0 -69 30 -120 94 -120c60 0 94 45 94 119v459h161zM246 824l196 157l196 -157l-79 -87l-117 93l-116 -93z" />
    <glyph glyph-name="Jcircumflex.smcp" horiz-adv-x="542" 
d="M471 560v-361c0 -146 -84 -213 -213 -213c-153 0 -221 93 -221 213h151c0 -49 22 -85 67 -85c41 0 66 31 66 85v361h150zM232 658l164 132l164 -132l-69 -76l-95 77l-95 -76z" />
    <glyph glyph-name="K" unicode="K" horiz-adv-x="659" 
d="M455 0l-226 296v-296h-162v700h162v-297l226 297h195l-277 -350l277 -350h-195z" />
    <glyph glyph-name="K.smcp" horiz-adv-x="604" 
d="M395 0l-166 232v-232h-151v560h151v-233l166 233h178l-212 -280l212 -280h-178z" />
    <glyph glyph-name="Kcommaaccent" unicode="&#x136;" horiz-adv-x="659" 
d="M650 0h-195l-226 296v-296h-162v700h162v-297l226 297h195l-277 -350zM253 -93c0 42 32 77 79 77c48 0 83 -36 83 -110c0 -98 -61 -147 -158 -147v48c32 0 54 8 69 20s21 28 23 42c-2 -2 -10 -6 -24 -6c-41 0 -72 34 -72 76z" />
    <glyph glyph-name="Kcommaaccent.smcp" horiz-adv-x="604" 
d="M573 0h-178l-166 232v-232h-151v560h151v-233l166 233h178l-212 -280zM235 -80c0 36 26 67 68 67s72 -31 72 -96c0 -85 -51 -127 -138 -127v42c57 0 77 27 81 54c-2 -3 -9 -6 -21 -6c-36 0 -62 30 -62 66z" />
    <glyph glyph-name="L" unicode="L" horiz-adv-x="453" 
d="M229 140h199v-140h-361v700h162v-560z" />
    <glyph glyph-name="L.smcp" horiz-adv-x="427" 
d="M229 130h151v-130h-302v560h151v-430z" />
    <glyph glyph-name="Lacute" unicode="&#x139;" horiz-adv-x="453" 
d="M229 140h199v-140h-361v700h162v-560zM311 868l-276 -128l-48 106l276 128z" />
    <glyph glyph-name="Lacute.smcp" horiz-adv-x="427" 
d="M228 130h152v-130h-302v560h150v-430zM288 686l-233 -98l-37 94l233 98z" />
    <glyph glyph-name="Lcaron" unicode="&#x13d;" horiz-adv-x="453" 
d="M229 140h199v-140h-361v700h162v-560zM146 737l-182 157l73 87l109 -97l110 97l74 -87z" />
    <glyph glyph-name="Lcaron.smcp" horiz-adv-x="427" 
d="M229 130h152v-130h-303v560h151v-430zM152 586l-156 132l65 75l91 -79l92 79l65 -75z" />
    <glyph glyph-name="Lcommaaccent" unicode="&#x13b;" horiz-adv-x="453" 
d="M67 0v700h162v-560h199v-140h-361zM145 -93c0 42 32 77 79 77c48 0 83 -36 83 -110c0 -98 -61 -147 -158 -147v48c32 0 54 8 69 20s21 28 23 42c-2 -2 -10 -6 -24 -6c-40 0 -72 34 -72 76z" />
    <glyph glyph-name="Lcommaaccent.smcp" horiz-adv-x="427" 
d="M78 0v560h151v-430h151v-130h-302zM143 -80c0 37 28 67 69 67s72 -31 72 -96c0 -85 -52 -127 -138 -127v42c57 0 77 27 80 54c-2 -3 -9 -6 -20 -6c-36 0 -63 30 -63 66z" />
    <glyph glyph-name="Ldot" unicode="&#x13f;" horiz-adv-x="478" 
d="M229 140h199v-140h-361v700h162v-560zM285 330c0 55 45 100 101 100c57 0 102 -45 102 -100s-45 -100 -102 -100c-56 0 -101 45 -101 100z" />
    <glyph glyph-name="Ldot.smcp" horiz-adv-x="459" 
d="M229 130h151v-130h-302v560h151v-430zM268 280c0 49 40 90 91 90s91 -41 91 -90s-40 -89 -91 -89s-91 40 -91 89z" />
    <glyph glyph-name="Lslash" unicode="&#x141;" horiz-adv-x="456" 
d="M232 140h199v-140h-361v250l-42 -16v123l42 16v327h162v-267l137 55v-123l-137 -55v-170z" />
    <glyph glyph-name="Lslash.smcp" horiz-adv-x="431" 
d="M233 130h151v-130h-303v198l-32 -12v107l32 12v255h152v-201l95 37v-107l-95 -37v-122z" />
    <glyph glyph-name="M" unicode="M" horiz-adv-x="877" 
d="M810 700v-700h-158v434l-151 -434h-120l-156 434v-434h-158v700h187l187 -487l185 487h184z" />
    <glyph glyph-name="M.smcp" horiz-adv-x="786" 
d="M708 560v-560h-147v347l-109 -347h-112l-116 347v-347h-146v560h186l131 -374l131 374h182z" />
    <glyph glyph-name="N" unicode="N" horiz-adv-x="717" 
d="M236 700l253 -456v456h161v-700h-169l-252 450v-450h-162v700h169z" />
    <glyph glyph-name="N.smcp" horiz-adv-x="652" 
d="M233 560l191 -346v346h151v-560h-155l-191 337v-337h-151v560h155z" />
    <glyph glyph-name="Nacute" unicode="&#x143;" horiz-adv-x="717" 
d="M236 700l253 -456v456h161v-700h-169l-252 450v-450h-162v700h169zM520 868l-276 -128l-48 106l276 128z" />
    <glyph glyph-name="Nacute.smcp" horiz-adv-x="652" 
d="M233 560l191 -346v346h151v-560h-155l-191 337v-337h-151v560h155zM461 686l-233 -98l-37 94l233 98z" />
    <glyph glyph-name="Ncaron" unicode="&#x147;" horiz-adv-x="717" 
d="M236 700l253 -456v456h161v-700h-169l-252 450v-450h-162v700h169zM358 737l-182 157l73 87l109 -97l110 97l73 -87z" />
    <glyph glyph-name="Ncaron.smcp" horiz-adv-x="652" 
d="M233 560l191 -346v346h151v-560h-155l-191 337v-337h-151v560h155zM326 582l-156 132l65 76l91 -79l92 79l65 -76z" />
    <glyph glyph-name="Ncommaaccent" unicode="&#x145;" horiz-adv-x="717" 
d="M650 0h-169l-252 450v-450h-162v700h169l253 -456v456h161v-700zM277 -93c0 42 32 77 79 77c48 0 83 -36 83 -110c0 -98 -61 -147 -158 -147v48c32 0 54 8 69 20s21 28 23 42c-2 -2 -10 -6 -24 -6c-40 0 -72 34 -72 76z" />
    <glyph glyph-name="Ncommaaccent.smcp" horiz-adv-x="652" 
d="M575 0h-155l-191 337v-337h-151v560h155l191 -346v346h151v-560zM255 -80c0 36 27 67 69 67s73 -31 73 -96c0 -85 -52 -127 -138 -127v42c56 0 77 27 80 54c-2 -3 -9 -6 -21 -6c-36 0 -63 30 -63 66z" />
    <glyph glyph-name="Ntilde" unicode="&#xd1;" horiz-adv-x="717" 
d="M236 700l253 -456v456h161v-700h-169l-252 450v-450h-162v700h169zM207 780l-50 92c60 36 86 38 98 38c44 0 129 -27 169 -27c15 0 28 4 78 27l46 -90c-55 -43 -99 -45 -111 -45c-42 0 -123 26 -158 26c-23 0 -48 -10 -72 -21z" />
    <glyph glyph-name="Ntilde.smcp" horiz-adv-x="652" 
d="M233 560l191 -346v346h151v-560h-155l-191 337v-337h-151v560h155zM202 615l-42 83c50 28 70 30 81 30c37 0 108 -21 140 -21c12 0 25 3 65 21l39 -81c-46 -35 -83 -36 -91 -36c-36 0 -103 21 -133 21c-19 0 -39 -9 -59 -17z" />
    <glyph glyph-name="O" unicode="O" horiz-adv-x="805" 
d="M403 -18c-233 0 -371 176 -371 368s138 368 371 368c232 0 370 -176 370 -368s-138 -368 -370 -368zM403 128c127 0 205 107 205 222s-78 222 -205 222c-128 0 -205 -107 -205 -222s77 -222 205 -222z" />
    <glyph glyph-name="O.smcp" horiz-adv-x="701" 
d="M350 -15c-189 0 -300 141 -300 295s111 295 300 295c190 0 301 -141 301 -295s-111 -295 -301 -295zM350 123c92 0 147 75 147 157s-55 157 -147 157s-147 -75 -147 -157s55 -157 147 -157z" />
    <glyph glyph-name="OE" unicode="&#x152;" horiz-adv-x="1097" 
d="M1036 570h-266v-159h266v-127h-266v-154h266v-130h-427v47c-53 -41 -122 -66 -208 -66c-230 0 -369 176 -369 368c0 191 139 368 367 368c88 0 157 -26 210 -67v50h427v-130zM403 127c127 0 205 107 205 222c0 114 -78 221 -205 221c-128 0 -205 -107 -205 -221
c0 -115 77 -222 205 -222z" />
    <glyph glyph-name="OE.smcp" horiz-adv-x="922" 
d="M850 444h-201v-110h201v-112h-201v-106h201v-116h-352v42c-27 -30 -73 -57 -153 -57c-181 0 -295 140 -295 294s115 295 292 295c81 0 129 -30 156 -52v38h352v-116zM350 122c92 0 147 75 147 157s-55 158 -147 158s-147 -76 -147 -158s55 -157 147 -157z" />
    <glyph glyph-name="Oacute" unicode="&#xd3;" horiz-adv-x="805" 
d="M403 -18c-233 0 -371 176 -371 368s138 368 371 368c232 0 370 -176 370 -368s-138 -368 -370 -368zM403 128c127 0 205 107 205 222s-78 222 -205 222c-128 0 -205 -107 -205 -222s77 -222 205 -222zM550 868l-276 -128l-48 106l276 128z" />
    <glyph glyph-name="Oacute.smcp" horiz-adv-x="701" 
d="M350 -15c-189 0 -300 141 -300 295s111 295 300 295c190 0 301 -141 301 -295s-111 -295 -301 -295zM350 123c92 0 147 75 147 157s-55 157 -147 157s-147 -75 -147 -157s55 -157 147 -157zM477 686l-233 -98l-37 94l233 98z" />
    <glyph glyph-name="Obreve" unicode="&#x14e;" horiz-adv-x="805" 
d="M403 -18c-233 0 -371 176 -371 368s138 368 371 368c232 0 370 -176 370 -368s-138 -368 -370 -368zM403 128c127 0 205 107 205 222s-78 222 -205 222c-128 0 -205 -107 -205 -222s77 -222 205 -222zM180 913h123c15 -36 46 -61 99 -61c58 0 87 30 100 61h123
c-15 -105 -112 -172 -222 -172c-111 0 -204 67 -223 172z" />
    <glyph glyph-name="Obreve.smcp" horiz-adv-x="701" 
d="M350 -15c-189 0 -300 141 -300 295s111 295 300 295c190 0 301 -141 301 -295s-111 -295 -301 -295zM350 123c92 0 147 75 147 157s-55 157 -147 157s-147 -75 -147 -157s55 -157 147 -157zM163 736h107c13 -27 35 -49 80 -49s68 23 80 49h108
c-15 -92 -95 -145 -188 -145s-171 54 -187 145z" />
    <glyph glyph-name="Ocircumflex" unicode="&#xd4;" horiz-adv-x="805" 
d="M403 -18c-233 0 -371 176 -371 368s138 368 371 368c232 0 370 -176 370 -368s-138 -368 -370 -368zM403 128c127 0 205 107 205 222s-78 222 -205 222c-128 0 -205 -107 -205 -222s77 -222 205 -222zM207 824l196 157l196 -157l-79 -87l-117 93l-116 -93z" />
    <glyph glyph-name="Ocircumflex.smcp" horiz-adv-x="701" 
d="M350 -15c-189 0 -300 141 -300 295s111 295 300 295c190 0 301 -141 301 -295s-111 -295 -301 -295zM350 123c92 0 147 75 147 157s-55 157 -147 157s-147 -75 -147 -157s55 -157 147 -157zM186 661l164 132l165 -132l-69 -75l-95 76l-96 -76z" />
    <glyph glyph-name="Odieresis" unicode="&#xd6;" horiz-adv-x="805" 
d="M403 -18c-233 0 -371 176 -371 368s138 368 371 368c232 0 370 -176 370 -368s-138 -368 -370 -368zM198 350c0 -115 77 -222 205 -222c127 0 205 107 205 222s-78 222 -205 222c-128 0 -205 -107 -205 -222zM281 761c-54 0 -95 42 -95 93c0 52 42 94 95 94
c52 0 94 -42 94 -94c0 -51 -41 -93 -94 -93zM427 854c0 52 41 94 94 94s95 -42 95 -94c0 -51 -42 -93 -95 -93s-94 42 -94 93z" />
    <glyph glyph-name="Odieresis.001" horiz-adv-x="805" 
d="M262 740l87 130h97l-87 -130h-97zM583 870l-87 -130h-96l87 130h96zM403 -18c-233 0 -371 176 -371 368s138 368 371 368c232 0 370 -176 370 -368s-138 -368 -370 -368zM403 128c127 0 205 107 205 222s-78 222 -205 222c-128 0 -205 -107 -205 -222s77 -222 205 -222z
" />
    <glyph glyph-name="Odieresis.001.smcp" horiz-adv-x="701" 
d="M385 696l-70 -104h-83l70 104h83zM501 696l-70 -104h-83l70 104h83zM350 -15c-189 0 -300 141 -300 295s111 295 300 295c190 0 301 -141 301 -295s-111 -295 -301 -295zM350 123c92 0 147 75 147 157s-55 157 -147 157s-147 -75 -147 -157s55 -157 147 -157z" />
    <glyph glyph-name="Odieresis.smcp" horiz-adv-x="701" 
d="M350 -15c-189 0 -300 141 -300 295s111 295 300 295c190 0 301 -141 301 -295s-111 -295 -301 -295zM350 123c92 0 147 75 147 157s-55 157 -147 157s-147 -75 -147 -157s55 -157 147 -157zM365 683c0 45 35 81 81 81c47 0 83 -37 83 -81c0 -45 -36 -81 -83 -81
c-46 0 -81 35 -81 81zM167 683c0 45 36 81 82 81c47 0 82 -37 82 -81c0 -45 -35 -81 -82 -81c-46 0 -82 35 -82 81z" />
    <glyph glyph-name="Ograve" unicode="&#xd2;" horiz-adv-x="805" 
d="M403 -18c-233 0 -371 176 -371 368s138 368 371 368c232 0 370 -176 370 -368s-138 -368 -370 -368zM403 128c127 0 205 107 205 222s-78 222 -205 222c-128 0 -205 -107 -205 -222s77 -222 205 -222zM528 740l-276 128l48 106l276 -128z" />
    <glyph glyph-name="Ograve.smcp" horiz-adv-x="701" 
d="M350 -15c-189 0 -300 141 -300 295s111 295 300 295c190 0 301 -141 301 -295s-111 -295 -301 -295zM350 123c92 0 147 75 147 157s-55 157 -147 157s-147 -75 -147 -157s55 -157 147 -157zM455 588l-234 98l37 94l234 -98z" />
    <glyph glyph-name="Ohungarumlaut" unicode="&#x150;" horiz-adv-x="805" 
d="M403 -18c-233 0 -371 176 -371 368s138 368 371 368c232 0 370 -176 370 -368s-138 -368 -370 -368zM403 128c127 0 205 107 205 222s-78 222 -205 222c-128 0 -205 -107 -205 -222s77 -222 205 -222zM473 798l125 180l106 -62l-169 -146zM273 798l125 180l106 -62
l-169 -146z" />
    <glyph glyph-name="Ohungarumlaut.smcp" horiz-adv-x="701" 
d="M350 -15c-189 0 -300 141 -300 295s111 295 300 295c190 0 301 -141 301 -295s-111 -295 -301 -295zM350 123c92 0 147 75 147 157s-55 157 -147 157s-147 -75 -147 -157s55 -157 147 -157zM343 637l100 150l90 -56l-135 -116zM187 637l100 150l90 -56l-135 -116z" />
    <glyph glyph-name="Omacron" unicode="&#x14c;" horiz-adv-x="805" 
d="M403 -18c-233 0 -371 176 -371 368s138 368 371 368c232 0 370 -176 370 -368s-138 -368 -370 -368zM403 128c127 0 205 107 205 222s-78 222 -205 222c-128 0 -205 -107 -205 -222s77 -222 205 -222zM587 909v-115h-368v115h368z" />
    <glyph glyph-name="Omacron.smcp" horiz-adv-x="701" 
d="M350 -15c-189 0 -300 141 -300 295s111 295 300 295c190 0 301 -141 301 -295s-111 -295 -301 -295zM350 123c92 0 147 75 147 157s-55 157 -147 157s-147 -75 -147 -157s55 -157 147 -157zM500 731v-100h-299v100h299z" />
    <glyph glyph-name="Omega" unicode="&#x3a9;" horiz-adv-x="723" 
d="M362 567c-106 0 -161 -78 -161 -171c0 -75 35 -157 129 -178v-218h-275v127h150v15c-105 48 -166 147 -166 262c0 162 122 308 323 308c200 0 322 -146 322 -308c0 -115 -61 -215 -166 -262v-15h150v-127h-275v218c94 21 129 103 129 178c0 93 -54 171 -160 171z" />
    <glyph glyph-name="Oslash" unicode="&#xd8;" horiz-adv-x="805" 
d="M157 -24l30 69c-100 68 -155 183 -155 305c0 192 138 368 371 368c24 0 48 -2 70 -6l35 80l143 -61l-33 -77c99 -68 155 -183 155 -304c0 -192 -138 -368 -370 -368c-25 0 -49 2 -72 6l-31 -73zM403 128c127 0 205 107 205 221c0 58 -20 113 -55 154l-161 -375h11z
M198 350c0 -57 19 -113 54 -154l161 376h-10c-128 0 -205 -107 -205 -222z" />
    <glyph glyph-name="Oslash.smcp" horiz-adv-x="701" 
d="M166 -28l23 54c-90 53 -139 151 -139 254c0 154 111 295 299 295c27 0 52 -3 75 -8l26 60l85 -37l-25 -57c91 -53 141 -150 141 -253c0 -154 -111 -295 -301 -295c-27 0 -52 3 -75 8l-25 -57zM350 123c92 0 147 75 147 156c0 45 -17 88 -46 117l-119 -272
c6 -1 12 -1 18 -1zM203 280c0 -45 16 -87 46 -117l118 273c-6 0 -9 1 -19 1c-89 0 -145 -75 -145 -157z" />
    <glyph glyph-name="Oslashacute" unicode="&#x1fe;" horiz-adv-x="805" 
d="M564 868l-276 -128l-48 106l276 128zM157 -24l30 69c-100 68 -155 183 -155 305c0 192 138 368 371 368c24 0 48 -2 70 -6l35 80l143 -61l-33 -77c99 -68 155 -183 155 -304c0 -192 -138 -368 -370 -368c-25 0 -49 2 -72 6l-31 -73zM403 128c127 0 205 107 205 221
c0 58 -20 113 -55 154l-161 -375h11zM198 350c0 -57 19 -113 54 -154l161 376h-10c-128 0 -205 -107 -205 -222z" />
    <glyph glyph-name="Oslashacute.smcp" horiz-adv-x="701" 
d="M485 686l-234 -98l-37 94l234 98zM166 -28l23 54c-90 53 -139 151 -139 254c0 154 111 295 299 295c27 0 52 -3 75 -8l26 60l85 -37l-25 -57c91 -53 141 -150 141 -253c0 -154 -111 -295 -301 -295c-27 0 -52 3 -75 8l-25 -57zM350 123c92 0 147 75 147 156
c0 45 -17 88 -46 117l-119 -272c6 -1 12 -1 18 -1zM203 280c0 -45 16 -87 46 -117l118 273c-6 0 -9 1 -19 1c-89 0 -145 -75 -145 -157z" />
    <glyph glyph-name="Otilde" unicode="&#xd5;" horiz-adv-x="805" 
d="M403 -18c-233 0 -371 176 -371 368s138 368 371 368c232 0 370 -176 370 -368s-138 -368 -370 -368zM403 128c127 0 205 107 205 222s-78 222 -205 222c-128 0 -205 -107 -205 -222s77 -222 205 -222zM257 780l-51 91c60 36 87 38 99 38c43 0 129 -27 168 -27
c15 0 29 4 79 27l46 -89c-55 -43 -99 -45 -111 -45c-42 0 -123 26 -159 26c-23 0 -47 -11 -71 -21z" />
    <glyph glyph-name="Otilde.smcp" horiz-adv-x="701" 
d="M350 -15c-189 0 -300 141 -300 295s111 295 300 295c190 0 301 -141 301 -295s-111 -295 -301 -295zM350 123c92 0 147 75 147 157s-55 157 -147 157s-147 -75 -147 -157s55 -157 147 -157zM229 615l-41 83c49 28 69 30 80 30c38 0 109 -22 139 -22c15 0 31 6 67 22
l38 -81c-43 -33 -79 -36 -93 -36c-35 0 -100 20 -131 20c-20 0 -41 -9 -59 -16z" />
    <glyph glyph-name="P" unicode="P" horiz-adv-x="635" 
d="M67 0v700h293c155 0 255 -117 255 -253s-100 -253 -255 -253h-131v-194h-162zM340 326c68 0 112 56 112 121s-44 121 -112 121h-111v-242h111z" />
    <glyph glyph-name="P.smcp" horiz-adv-x="579" 
d="M78 0v560h254c127 0 208 -95 208 -206s-81 -206 -208 -206h-103v-148h-151zM306 267c49 0 80 40 80 87s-31 87 -79 87h-78v-174h77z" />
    <glyph glyph-name="Q" unicode="Q" horiz-adv-x="805" 
d="M773 351c0 -141 -75 -273 -205 -330l60 -81c-23 -11 -119 -61 -142 -72l-84 114c-233 1 -370 176 -370 368s138 368 371 368c232 0 370 -176 370 -367zM403 128c127 0 205 107 205 222s-78 222 -205 222c-128 0 -205 -107 -205 -222s77 -222 205 -222z" />
    <glyph glyph-name="Q.smcp" horiz-adv-x="701" 
d="M651 281c0 -107 -54 -207 -149 -256l48 -63c-13 -7 -120 -62 -133 -68l-67 91c-190 1 -300 141 -300 295s111 295 300 295c190 0 301 -141 301 -294zM350 123c92 0 147 75 147 157s-55 157 -147 157s-147 -75 -147 -157s55 -157 147 -157z" />
    <glyph glyph-name="R" unicode="R" horiz-adv-x="654" 
d="M67 0v700h294c155 0 255 -117 255 -253c0 -98 -52 -185 -139 -226l140 -221h-188l-124 194h-76v-194h-162zM340 326c68 0 112 56 112 121s-44 121 -112 121h-111v-242h111z" />
    <glyph glyph-name="R.smcp" horiz-adv-x="597" 
d="M78 0v560h255c126 0 207 -95 207 -206c0 -78 -39 -146 -106 -181l112 -173h-177l-97 148h-43v-148h-151zM306 267c49 0 80 40 80 87s-31 87 -79 87h-78v-174h77z" />
    <glyph glyph-name="Racute" unicode="&#x154;" horiz-adv-x="654" 
d="M67 0v700h294c155 0 255 -117 255 -253c0 -98 -52 -185 -139 -226l140 -221h-188l-124 194h-76v-194h-162zM340 326c68 0 112 56 112 121s-44 121 -112 121h-111v-242h111zM489 868l-276 -128l-48 106l276 128z" />
    <glyph glyph-name="Racute.smcp" horiz-adv-x="597" 
d="M78 0v560h255c126 0 207 -95 207 -206c0 -78 -39 -146 -106 -181l112 -173h-177l-90 148h-50v-148h-151zM307 441h-78v-174h77c49 0 80 40 80 87s-31 87 -79 87zM434 686l-234 -98l-37 94l234 98z" />
    <glyph glyph-name="Rcaron" unicode="&#x158;" horiz-adv-x="654" 
d="M67 0v700h294c155 0 255 -117 255 -253c0 -98 -52 -185 -139 -226l140 -221h-188l-124 194h-76v-194h-162zM340 326c68 0 112 56 112 121s-44 121 -112 121h-111v-242h111zM312 738l-182 157l73 88l109 -98l110 98l74 -88z" />
    <glyph glyph-name="Rcaron.smcp" horiz-adv-x="597" 
d="M78 0v560h255c126 0 207 -95 207 -206c0 -78 -39 -146 -106 -181l112 -173h-177l-90 148h-50v-148h-151zM307 441h-78v-174h77c49 0 80 40 80 87s-31 87 -79 87zM291 584l-157 131l65 75l92 -78l91 78l65 -75z" />
    <glyph glyph-name="Rcommaaccent" unicode="&#x156;" horiz-adv-x="654" 
d="M67 0v700h294c155 0 255 -117 255 -253c0 -98 -52 -185 -139 -226l140 -221h-188l-124 194h-76v-194h-162zM340 568h-111v-242h111c68 0 112 56 112 121s-44 121 -112 121zM246 -93c0 42 32 77 79 77s83 -36 83 -110c0 -97 -61 -147 -159 -147v48c65 0 89 32 92 62
c-2 -2 -9 -6 -23 -6c-41 0 -72 34 -72 76z" />
    <glyph glyph-name="Rcommaaccent.smcp" horiz-adv-x="597" 
d="M78 0v560h255c126 0 207 -95 207 -206c0 -78 -39 -146 -106 -181l112 -173h-177l-90 148h-50v-148h-151zM307 441h-78v-174h77c49 0 80 40 80 87s-31 87 -79 87zM228 -80c0 37 28 67 69 67c42 0 72 -31 72 -96c0 -85 -52 -127 -138 -127v42c56 0 77 27 81 54
c-2 -3 -10 -6 -21 -6c-37 0 -63 31 -63 66z" />
    <glyph glyph-name="S" unicode="S" horiz-adv-x="606" 
d="M38 232h162c0 -76 47 -121 111 -121c54 0 93 33 93 82c0 55 -47 75 -109 98c-124 46 -237 88 -237 224c0 139 118 203 247 203c164 0 248 -104 248 -223h-162c0 62 -31 101 -88 101c-45 0 -84 -25 -84 -71c0 -45 37 -71 100 -93c124 -43 246 -87 246 -230
c0 -136 -109 -220 -259 -220c-156 0 -268 90 -268 250z" />
    <glyph glyph-name="S.smcp" horiz-adv-x="556" 
d="M55 188h152c0 -55 31 -87 77 -87c38 0 64 22 64 55c0 37 -31 51 -86 72c-92 35 -193 69 -193 183c0 116 103 164 212 164c149 0 210 -90 210 -181h-151c0 47 -21 74 -62 74c-31 0 -58 -16 -58 -49c0 -34 31 -51 78 -68c102 -37 201 -70 201 -187
c0 -110 -87 -179 -219 -179c-135 0 -225 73 -225 203z" />
    <glyph glyph-name="Sacute" unicode="&#x15a;" horiz-adv-x="606" 
d="M38 232h162c0 -76 47 -121 111 -121c54 0 93 33 93 82c0 55 -47 75 -109 98c-124 46 -237 88 -237 224c0 139 118 203 247 203c164 0 248 -104 248 -223h-162c0 62 -31 101 -88 101c-45 0 -84 -25 -84 -71c0 -45 37 -71 100 -93c124 -43 246 -87 246 -230
c0 -136 -109 -220 -259 -220c-156 0 -268 90 -268 250zM465 868l-276 -128l-49 106l276 128z" />
    <glyph glyph-name="Sacute.smcp" horiz-adv-x="556" 
d="M55 188h152c0 -55 31 -87 77 -87c38 0 64 22 64 55c0 37 -31 51 -86 72c-92 35 -193 69 -193 183c0 116 103 164 212 164c149 0 210 -90 210 -181h-151c0 47 -21 74 -62 74c-31 0 -58 -16 -58 -49c0 -34 31 -51 78 -68c102 -37 201 -70 201 -187
c0 -110 -87 -179 -219 -179c-135 0 -225 73 -225 203zM412 686l-233 -98l-37 94l233 98z" />
    <glyph glyph-name="Scaron" unicode="&#x160;" horiz-adv-x="606" 
d="M38 232h162c0 -76 47 -121 111 -121c54 0 93 33 93 82c0 55 -47 75 -109 98c-125 46 -237 89 -237 224c0 139 120 203 249 203c164 0 246 -104 246 -223h-162c0 62 -31 101 -88 101c-45 0 -84 -25 -84 -71c0 -45 37 -71 100 -93c124 -43 246 -87 246 -230
c0 -136 -109 -220 -259 -220c-156 0 -268 90 -268 250zM306 751l-182 158l73 87l109 -97l110 97l74 -87z" />
    <glyph glyph-name="Scaron.smcp" horiz-adv-x="556" 
d="M55 188h152c0 -55 31 -87 77 -87c38 0 64 22 64 55c0 37 -31 51 -86 72c-88 34 -193 67 -193 183s104 164 213 164c149 0 209 -90 209 -181h-151c0 47 -21 74 -62 74c-31 0 -58 -16 -58 -49c0 -34 31 -51 78 -68c102 -37 201 -70 201 -187c0 -110 -87 -179 -219 -179
c-135 0 -225 73 -225 203zM281 599l-156 131l65 75l91 -79l92 79l66 -75z" />
    <glyph glyph-name="Scedilla" unicode="&#x15e;" horiz-adv-x="606" 
d="M263 -116v100c-131 15 -225 102 -225 248h162c0 -76 47 -121 111 -121c54 0 93 33 93 82c0 55 -47 75 -109 98c-124 46 -237 88 -237 224c0 139 118 203 247 203c164 0 248 -104 248 -223h-162c0 62 -31 101 -88 101c-45 0 -84 -25 -84 -71c0 -45 37 -71 100 -93
c127 -44 246 -88 246 -230c0 -125 -91 -206 -224 -218v-43c8 8 21 15 41 15c46 0 84 -38 84 -89s-38 -101 -106 -101c-38 0 -102 16 -111 93h74c4 -18 16 -30 34 -30c20 0 35 15 35 37s-15 35 -35 35c-11 0 -22 -4 -29 -17h-65z" />
    <glyph glyph-name="Scedilla.smcp" horiz-adv-x="556" 
d="M55 188h152c0 -55 31 -87 77 -87c38 0 64 22 64 55c0 37 -31 51 -86 72c-92 35 -193 69 -193 183c0 116 103 164 212 164c149 0 210 -90 210 -181h-151c0 47 -21 74 -62 74c-31 0 -58 -16 -58 -49c0 -34 31 -51 78 -68c99 -36 201 -69 201 -188
c0 -102 -76 -167 -189 -176v-32c7 7 18 13 35 13c41 0 69 -34 69 -74c0 -42 -32 -81 -89 -81c-43 0 -86 23 -92 77h65c2 -14 11 -23 25 -23c17 0 27 12 27 27c0 17 -12 27 -26 27c-11 0 -19 -5 -23 -12h-57v78c-114 12 -189 82 -189 201z" />
    <glyph glyph-name="Scircumflex" unicode="&#x15c;" horiz-adv-x="606" 
d="M38 232h162c0 -76 47 -121 111 -121c54 0 93 33 93 82c0 55 -47 75 -109 98c-124 46 -237 88 -237 224c0 139 118 203 247 203c164 0 248 -104 248 -223h-162c0 62 -31 101 -88 101c-45 0 -84 -25 -84 -71c0 -45 37 -71 100 -93c124 -43 246 -87 246 -230
c0 -136 -109 -220 -259 -220c-156 0 -268 90 -268 250zM109 825l196 157l196 -157l-79 -88l-117 94l-116 -93z" />
    <glyph glyph-name="Scircumflex.smcp" horiz-adv-x="556" 
d="M55 188h152c0 -55 31 -87 77 -87c38 0 64 22 64 55c0 37 -31 51 -86 72c-92 35 -193 69 -193 183c0 116 103 164 212 164c149 0 210 -90 210 -181h-151c0 47 -21 74 -62 74c-31 0 -58 -16 -58 -49c0 -34 31 -51 78 -68c102 -37 201 -70 201 -187
c0 -110 -87 -179 -219 -179c-135 0 -225 73 -225 203zM117 663l164 132l164 -132l-69 -75l-95 77l-95 -76z" />
    <glyph glyph-name="Scommaaccent" unicode="&#x218;" horiz-adv-x="606" 
d="M38 232h162c0 -76 47 -121 111 -121c54 0 93 33 93 82c0 55 -47 75 -109 98c-124 46 -237 88 -237 224c0 139 118 203 247 203c164 0 248 -104 248 -223h-162c0 62 -31 101 -88 101c-45 0 -84 -25 -84 -71c0 -45 37 -71 100 -93c124 -43 246 -87 246 -230
c0 -136 -109 -220 -259 -220c-156 0 -268 90 -268 250zM225 -103c0 42 32 77 79 77s83 -36 83 -110c0 -97 -61 -147 -159 -147v48c65 0 89 32 92 62c-2 -2 -9 -6 -23 -6c-41 0 -72 34 -72 76z" />
    <glyph glyph-name="Scommaaccent.smcp" horiz-adv-x="556" 
d="M55 188h152c0 -55 31 -87 77 -87c38 0 64 22 64 55c0 37 -31 51 -86 72c-92 35 -193 69 -193 183c0 116 103 164 212 164c149 0 210 -90 210 -181h-151c0 47 -21 74 -62 74c-31 0 -58 -16 -58 -49c0 -34 31 -51 78 -68c102 -37 201 -70 201 -187
c0 -110 -87 -179 -219 -179c-135 0 -225 73 -225 203zM211 -89c0 36 26 67 68 67s73 -31 73 -96c0 -86 -54 -128 -138 -128v42c55 0 76 28 80 54c-2 -2 -10 -5 -21 -5c-36 0 -62 30 -62 66z" />
    <glyph glyph-name="T" unicode="T" horiz-adv-x="509" 
d="M173 0v560h-158v140h479v-140h-159v-560h-162z" />
    <glyph glyph-name="T.smcp" horiz-adv-x="473" 
d="M161 0v430h-120v130h391v-130h-120v-430h-151z" />
    <glyph glyph-name="Tbar" unicode="&#x166;" horiz-adv-x="509" 
d="M438 471v-115h-103v-356h-162v356h-103v115h103v89h-158v140h479v-140h-159v-89h103z" />
    <glyph glyph-name="Tbar.smcp" horiz-adv-x="473" 
d="M386 363v-100h-74v-263h-151v263h-74v100h74v67h-120v130h391v-130h-120v-67h74z" />
    <glyph glyph-name="Tcaron" unicode="&#x164;" horiz-adv-x="509" 
d="M173 0v560h-158v140h479v-140h-159v-560h-162zM254 738l-182 157l72 88l110 -98l110 98l73 -88z" />
    <glyph glyph-name="Tcaron.smcp" horiz-adv-x="473" 
d="M161 0v430h-120v130h391v-130h-120v-430h-151zM236 585l-157 132l65 75l92 -78l92 78l65 -75z" />
    <glyph glyph-name="Tcommaaccent" unicode="&#x162;" horiz-adv-x="509" 
d="M173 0v560h-158v140h479v-140h-159v-560h-162zM176 -93c0 42 32 77 79 77s83 -36 83 -110c0 -97 -61 -147 -159 -147v48c65 0 89 32 92 62c-2 -2 -9 -6 -23 -6c-41 0 -72 34 -72 76z" />
    <glyph glyph-name="Tcommaaccent.smcp" horiz-adv-x="473" 
d="M161 0v430h-120v130h391v-130h-120v-430h-151zM167 -80c0 37 28 67 69 67c42 0 72 -31 72 -96c0 -85 -51 -127 -138 -127v42c56 0 77 27 81 54c-2 -3 -10 -6 -21 -6c-37 0 -63 31 -63 66z" />
    <glyph glyph-name="Thorn" unicode="&#xde;" horiz-adv-x="539" 
d="M64 0v700h148v-115h44c168 0 260 -114 260 -240c0 -125 -92 -240 -260 -240h-44v-105h-148zM256 458h-44v-226h44c71 0 111 54 111 113s-40 113 -111 113z" />
    <glyph glyph-name="Thorn.smcp" horiz-adv-x="502" 
d="M214 560v-85h26c143 0 221 -93 221 -199s-78 -199 -221 -199h-26v-77h-141v560h141zM214 357v-162h26c50 0 80 38 80 81s-30 81 -80 81h-26z" />
    <glyph glyph-name="U" unicode="U" horiz-adv-x="657" 
d="M56 239v461h162v-460c0 -64 44 -118 110 -118s111 54 111 118v460h162v-461c0 -144 -105 -257 -273 -257c-167 0 -272 113 -272 257z" />
    <glyph glyph-name="U.smcp" horiz-adv-x="586" 
d="M66 193v367h151v-365c0 -44 31 -81 76 -81s77 37 77 81v365h150v-367c0 -119 -86 -208 -227 -208s-227 89 -227 208z" />
    <glyph glyph-name="Uacute" unicode="&#xda;" horiz-adv-x="657" 
d="M56 239v461h162v-460c0 -64 44 -118 110 -118s111 54 111 118v460h162v-461c0 -144 -105 -257 -273 -257c-167 0 -272 113 -272 257zM474 868l-276 -128l-48 106l276 128z" />
    <glyph glyph-name="Uacute.smcp" horiz-adv-x="586" 
d="M66 193v367h151v-365c0 -44 31 -81 76 -81s77 37 77 81v365h150v-367c0 -119 -86 -208 -227 -208s-227 89 -227 208zM419 686l-234 -98l-37 94l234 98z" />
    <glyph glyph-name="Ubreve" unicode="&#x16c;" horiz-adv-x="657" 
d="M56 239v461h162v-460c0 -64 44 -118 110 -118s111 54 111 118v460h162v-461c0 -144 -105 -257 -273 -257c-167 0 -272 113 -272 257zM106 915h122c16 -36 46 -61 99 -61c55 0 86 27 101 61h123c-16 -105 -112 -172 -223 -172s-203 67 -222 172z" />
    <glyph glyph-name="Ubreve.smcp" horiz-adv-x="586" 
d="M66 193v367h151v-365c0 -44 31 -81 76 -81s77 37 77 81v365h150v-367c0 -119 -86 -208 -227 -208s-227 89 -227 208zM105 738h108c12 -28 35 -50 79 -50c45 0 69 23 81 50h108c-15 -92 -95 -146 -188 -146c-94 0 -170 54 -188 146z" />
    <glyph glyph-name="Ucircumflex" unicode="&#xdb;" horiz-adv-x="657" 
d="M56 239v461h162v-460c0 -64 44 -118 110 -118s111 54 111 118v460h162v-461c0 -144 -105 -257 -273 -257c-167 0 -272 113 -272 257zM129 824l195 157l197 -157l-79 -87l-117 93l-116 -93z" />
    <glyph glyph-name="Ucircumflex.smcp" horiz-adv-x="586" 
d="M66 193v367h151v-365c0 -44 31 -81 76 -81s77 37 77 81v365h150v-367c0 -119 -86 -208 -227 -208s-227 89 -227 208zM127 661l164 132l164 -132l-68 -75l-96 76l-95 -76z" />
    <glyph glyph-name="Udieresis" unicode="&#xdc;" horiz-adv-x="657" 
d="M56 239v461h162v-460c0 -64 44 -118 110 -118s111 54 111 118v460h162v-461c0 -144 -105 -257 -273 -257c-167 0 -272 113 -272 257zM352 852c0 52 41 94 94 94s95 -42 95 -94c0 -51 -42 -93 -95 -93s-94 42 -94 93zM111 852c0 52 42 94 95 94c52 0 94 -42 94 -94
c0 -51 -41 -93 -94 -93c-54 0 -95 42 -95 93z" />
    <glyph glyph-name="Udieresis.001" horiz-adv-x="657" 
d="M382 870l-87 -130h-96l87 130h96zM519 870l-87 -130h-96l87 130h96zM56 239v461h162v-460c0 -64 44 -118 110 -118s111 54 111 118v460h162v-461c0 -144 -105 -257 -273 -257c-167 0 -272 113 -272 257z" />
    <glyph glyph-name="Udieresis.001.smcp" horiz-adv-x="586" 
d="M335 696l-70 -104h-83l70 104h83zM451 696l-69 -104h-84l70 104h83zM66 193v367h151v-365c0 -44 31 -81 76 -81s77 37 77 81v365h150v-367c0 -119 -86 -208 -227 -208s-227 89 -227 208z" />
    <glyph glyph-name="Udieresis.smcp" horiz-adv-x="586" 
d="M66 193v367h151v-365c0 -44 31 -81 76 -81s77 37 77 81v365h150v-367c0 -119 -86 -208 -227 -208s-227 89 -227 208zM307 680c0 45 36 81 82 81c47 0 83 -36 83 -81c0 -44 -36 -81 -83 -81c-46 0 -82 37 -82 81zM109 680c0 45 36 81 82 81c47 0 83 -36 83 -81
c0 -44 -36 -81 -83 -81c-46 0 -82 37 -82 81z" />
    <glyph glyph-name="Ugrave" unicode="&#xd9;" horiz-adv-x="657" 
d="M56 239v461h162v-460c0 -64 44 -118 110 -118s111 54 111 118v460h162v-461c0 -144 -105 -257 -273 -257c-167 0 -272 113 -272 257zM452 740l-276 128l48 106l276 -128z" />
    <glyph glyph-name="Ugrave.smcp" horiz-adv-x="586" 
d="M66 193v367h151v-365c0 -44 31 -81 76 -81s77 37 77 81v365h150v-367c0 -119 -86 -208 -227 -208s-227 89 -227 208zM397 588l-234 98l37 94l234 -98z" />
    <glyph glyph-name="Uhungarumlaut" unicode="&#x170;" horiz-adv-x="657" 
d="M56 239v461h162v-460c0 -64 44 -118 110 -118s111 54 111 118v460h162v-461c0 -144 -105 -257 -273 -257c-167 0 -272 113 -272 257zM338 798l125 180l106 -62l-169 -146zM143 798l125 180l106 -62l-169 -146z" />
    <glyph glyph-name="Uhungarumlaut.smcp" horiz-adv-x="586" 
d="M66 193v367h151v-365c0 -44 31 -81 76 -81s77 37 77 81v365h150v-367c0 -119 -86 -208 -227 -208s-227 89 -227 208zM292 637l100 150l90 -56l-136 -116zM136 637l100 150l90 -56l-136 -116z" />
    <glyph glyph-name="Umacron" unicode="&#x16a;" horiz-adv-x="657" 
d="M56 239v461h162v-460c0 -64 44 -118 110 -118s111 54 111 118v460h162v-461c0 -144 -105 -257 -273 -257c-167 0 -272 113 -272 257zM512 926v-114h-368v114h368z" />
    <glyph glyph-name="Umacron.smcp" horiz-adv-x="586" 
d="M66 193v367h151v-365c0 -44 31 -81 76 -81s77 37 77 81v365h150v-367c0 -119 -86 -208 -227 -208s-227 89 -227 208zM443 754v-101h-300v101h300z" />
    <glyph glyph-name="Uogonek" unicode="&#x172;" horiz-adv-x="657" 
d="M434 -119l-2 -78c-26 -9 -58 -15 -91 -15c-91 0 -129 44 -129 97c0 38 19 69 61 101c-135 22 -217 125 -217 253v461h162v-460c0 -64 44 -118 110 -118s111 54 111 118v460h162v-461c0 -133 -89 -239 -234 -254c-19 -15 -35 -34 -35 -63c0 -28 16 -53 48 -53
c13 0 35 4 54 12z" />
    <glyph glyph-name="Uogonek.smcp" horiz-adv-x="586" 
d="M383 -95l-2 -63c-23 -7 -48 -12 -76 -12c-76 0 -108 36 -108 78c0 30 16 55 48 81c-112 17 -179 99 -179 204v367h151v-365c0 -44 31 -81 76 -81s77 37 77 81v365h150v-367c0 -109 -72 -193 -191 -205c-16 -12 -28 -27 -28 -50s13 -43 39 -43c10 0 28 3 43 10z" />
    <glyph glyph-name="Uring" unicode="&#x16e;" horiz-adv-x="657" 
d="M56 239v461h162v-460c0 -64 44 -118 110 -118s111 54 111 118v460h162v-461c0 -144 -105 -257 -273 -257c-167 0 -272 113 -272 257zM328 994c75 0 135 -62 135 -135s-60 -134 -135 -134c-74 0 -134 61 -134 135s60 134 134 134zM328 905c-25 0 -44 -21 -44 -45
s20 -44 44 -44s45 20 45 44s-19 45 -45 45z" />
    <glyph glyph-name="Uring.smcp" horiz-adv-x="586" 
d="M66 193v367h151v-365c0 -44 31 -81 76 -81s77 37 77 81v365h150v-367c0 -119 -86 -208 -227 -208s-227 89 -227 208zM293 803c63 0 113 -52 113 -113s-50 -112 -113 -112s-113 51 -113 113c0 61 50 112 113 112zM293 728c-21 0 -36 -19 -36 -37c0 -20 17 -35 36 -35
s36 16 36 35s-15 37 -36 37z" />
    <glyph glyph-name="Utilde" unicode="&#x168;" horiz-adv-x="657" 
d="M56 239v461h162v-460c0 -64 44 -118 110 -118s111 54 111 118v460h162v-461c0 -144 -105 -257 -273 -257c-167 0 -272 113 -272 257zM182 780l-50 91c60 36 87 38 99 38c43 0 128 -27 166 -27c15 0 32 4 81 27l46 -89c-54 -43 -104 -45 -115 -45c-38 0 -119 26 -155 26
c-23 0 -47 -11 -72 -21z" />
    <glyph glyph-name="Utilde.smcp" horiz-adv-x="586" 
d="M66 193v367h151v-365c0 -44 31 -81 76 -81s77 37 77 81v365h150v-367c0 -119 -86 -208 -227 -208s-227 89 -227 208zM172 615l-42 83c50 28 70 30 81 30c38 0 108 -22 138 -22c15 0 30 5 68 22l38 -81c-46 -35 -83 -36 -91 -36c-36 0 -103 20 -133 20
c-20 0 -41 -9 -59 -16z" />
    <glyph glyph-name="V" unicode="V" horiz-adv-x="644" 
d="M648 700l-253 -700h-149l-250 700h173l152 -494l151 494h176z" />
    <glyph glyph-name="V.smcp" horiz-adv-x="604" 
d="M584 560l-208 -560h-152l-203 560h163l116 -388l116 388h168z" />
    <glyph glyph-name="W" unicode="W" horiz-adv-x="1035" 
d="M657 0l-139 440l-139 -440h-133l-247 700h171l143 -459l142 459h125l143 -459l142 459h171l-247 -700h-132z" />
    <glyph glyph-name="W.smcp" horiz-adv-x="905" 
d="M554 0l-101 324l-101 -324h-129l-200 560h160l106 -348l104 348h119l105 -348l105 348h160l-200 -560h-128z" />
    <glyph glyph-name="Wacute" unicode="&#x1e82;" horiz-adv-x="1035" 
d="M657 0l-139 440l-139 -440h-133l-247 700h171l143 -459l142 459h125l143 -459l142 459h171l-247 -700h-132zM680 868l-276 -128l-49 106l276 128z" />
    <glyph glyph-name="Wacute.smcp" horiz-adv-x="905" 
d="M554 0l-101 324l-101 -324h-129l-200 560h160l106 -348l104 348h119l105 -348l105 348h160l-200 -560h-128zM588 686l-234 -98l-37 94l234 98z" />
    <glyph glyph-name="Wcircumflex" unicode="&#x174;" horiz-adv-x="1035" 
d="M657 0l-139 440l-139 -440h-133l-247 700h171l143 -459l142 459h125l143 -459l142 459h171l-247 -700h-132zM321 825l196 157l196 -157l-79 -88l-117 94l-116 -93z" />
    <glyph glyph-name="Wcircumflex.smcp" horiz-adv-x="905" 
d="M554 0l-101 324l-101 -324h-129l-200 560h160l106 -348l104 348h119l105 -348l105 348h160l-200 -560h-128zM288 658l164 132l165 -132l-69 -75l-96 77l-95 -76z" />
    <glyph glyph-name="Wdieresis" unicode="&#x1e84;" horiz-adv-x="1035" 
d="M657 0l-139 440l-139 -440h-133l-247 700h171l143 -459l142 459h125l143 -459l142 459h171l-247 -700h-132zM546 864c0 50 40 91 91 91c52 0 92 -42 92 -91c0 -50 -40 -91 -92 -91c-51 0 -91 40 -91 91zM305 864c0 50 40 91 92 91s92 -42 92 -91c0 -50 -40 -91 -92 -91
s-92 40 -92 91z" />
    <glyph glyph-name="Wdieresis.smcp" horiz-adv-x="905" 
d="M554 0l-101 324l-101 -324h-129l-200 560h160l106 -348l104 348h119l105 -348l105 348h160l-200 -560h-128zM470 688c0 43 35 80 81 80s81 -37 81 -80s-35 -80 -81 -80s-81 37 -81 80zM273 688c0 43 35 80 80 80c46 0 81 -37 81 -80s-35 -80 -81 -80c-45 0 -80 37 -80 80
z" />
    <glyph glyph-name="Wgrave" unicode="&#x1e80;" horiz-adv-x="1035" 
d="M657 0l-139 440l-139 -440h-133l-247 700h171l143 -459l142 459h125l143 -459l142 459h171l-247 -700h-132zM631 740l-276 128l49 106l276 -128z" />
    <glyph glyph-name="Wgrave.smcp" horiz-adv-x="905" 
d="M554 0l-101 324l-101 -324h-129l-200 560h160l106 -348l104 348h119l105 -348l105 348h160l-200 -560h-128zM551 588l-234 98l37 94l234 -98z" />
    <glyph glyph-name="X" unicode="X" horiz-adv-x="609" 
d="M304 474l122 226h179l-208 -350l208 -350h-179l-122 225l-122 -225h-178l208 350l-208 350h178z" />
    <glyph glyph-name="X.smcp" horiz-adv-x="561" 
d="M281 391l88 169h165l-166 -280l166 -280h-165l-88 168l-88 -168h-166l166 280l-166 280h166z" />
    <glyph glyph-name="Y" unicode="Y" horiz-adv-x="641" 
d="M649 700l-347 -700h-179l129 263l-248 437h189l149 -275l128 275h179z" />
    <glyph glyph-name="Y.smcp" horiz-adv-x="584" 
d="M566 560l-278 -560h-169l100 203l-192 357h177l102 -208l92 208h168z" />
    <glyph glyph-name="Yacute" unicode="&#xdd;" horiz-adv-x="641" 
d="M649 700l-347 -700h-179l129 263l-248 437h189l149 -275l128 275h179zM522 866l-276 -128l-48 105l276 128z" />
    <glyph glyph-name="Yacute.smcp" horiz-adv-x="584" 
d="M566 560l-278 -560h-169l100 203l-192 357h177l102 -208l92 208h168zM459 683l-234 -98l-37 94l234 98z" />
    <glyph glyph-name="Ycircumflex" unicode="&#x176;" horiz-adv-x="641" 
d="M649 700l-347 -700h-179l129 263l-248 437h189l149 -275l128 275h179zM124 825l196 157l196 -157l-79 -88l-117 94l-116 -93z" />
    <glyph glyph-name="Ycircumflex.smcp" horiz-adv-x="584" 
d="M566 560l-278 -560h-169l100 203l-192 357h177l102 -208l92 208h168zM128 662l164 131l165 -131l-70 -76l-95 77l-95 -76z" />
    <glyph glyph-name="Ydieresis" unicode="&#x178;" horiz-adv-x="641" 
d="M649 700l-347 -700h-179l129 263l-248 437h189l149 -275l128 275h179zM370 853c0 50 40 91 91 91c52 0 93 -42 93 -91c0 -50 -41 -91 -93 -91c-51 0 -91 40 -91 91zM129 853c0 50 41 91 92 91c52 0 92 -42 92 -91c0 -50 -40 -91 -92 -91c-51 0 -92 40 -92 91z" />
    <glyph glyph-name="Ydieresis.smcp" horiz-adv-x="584" 
d="M566 560l-278 -560h-169l100 203l-192 357h177l102 -208l92 208h168zM323 680c0 44 35 81 81 81c45 0 81 -37 81 -81c0 -43 -36 -78 -81 -78c-46 0 -81 35 -81 78zM125 680c0 44 36 81 81 81s81 -37 81 -81c0 -43 -35 -78 -81 -78s-81 35 -81 78z" />
    <glyph glyph-name="Ygrave" unicode="&#x1ef2;" horiz-adv-x="641" 
d="M649 700l-347 -700h-179l129 263l-248 437h189l149 -275l128 275h179zM434 740l-276 128l48 106l276 -128z" />
    <glyph glyph-name="Ygrave.smcp" horiz-adv-x="584" 
d="M566 560l-278 -560h-169l100 203l-192 357h177l102 -208l92 208h168zM390 588l-233 98l37 94l233 -98z" />
    <glyph glyph-name="Z" unicode="Z" horiz-adv-x="632" 
d="M45 564v136h572l-343 -564h332v-136h-589l342 564h-314z" />
    <glyph glyph-name="Z.smcp" horiz-adv-x="585" 
d="M68 435v125h476l-265 -435h252v-125h-489l264 435h-238z" />
    <glyph glyph-name="Zacute" unicode="&#x179;" horiz-adv-x="632" 
d="M45 564v136h572l-343 -564h332v-136h-589l342 564h-314zM482 868l-276 -128l-48 106l276 128z" />
    <glyph glyph-name="Zacute.smcp" horiz-adv-x="585" 
d="M68 435v125h476l-265 -435h252v-125h-489l264 435h-238zM433 686l-234 -98l-37 94l234 98z" />
    <glyph glyph-name="Zcaron" unicode="&#x17d;" horiz-adv-x="632" 
d="M322 723l-182 158l73 87l109 -97l110 97l73 -87zM45 564v136h572l-343 -564h332v-136h-589l342 564h-314z" />
    <glyph glyph-name="Zcaron.smcp" horiz-adv-x="585" 
d="M301 576l-157 132l66 76l91 -79l91 79l66 -76zM68 435v125h476l-265 -435h252v-125h-489l264 435h-238z" />
    <glyph glyph-name="Zdotaccent" unicode="&#x17b;" horiz-adv-x="632" 
d="M45 564v136h572l-343 -564h332v-136h-589l342 564h-314zM224 861c0 51 41 94 94 94s95 -43 95 -94s-42 -94 -95 -94s-94 43 -94 94z" />
    <glyph glyph-name="Zdotaccent.smcp" horiz-adv-x="585" 
d="M68 435v125h476l-265 -435h252v-125h-489l264 435h-238zM213 687c0 44 36 81 82 81s83 -37 83 -81s-37 -82 -83 -82s-82 38 -82 82z" />
    <glyph glyph-name="a" unicode="a" horiz-adv-x="635" 
d="M417 482h153v-482h-153v68c-24 -44 -80 -80 -154 -80c-128 0 -228 109 -228 253s100 253 228 253c71 0 128 -34 154 -81v69zM302 118c69 0 115 56 115 123c0 66 -46 123 -115 123s-115 -57 -115 -123c0 -67 46 -123 115 -123z" />
    <glyph glyph-name="aacute" unicode="&#xe1;" horiz-adv-x="635" 
d="M417 482h153v-482h-153v68c-24 -44 -80 -80 -154 -80c-128 0 -228 109 -228 253s100 253 228 253c71 0 128 -34 154 -81v69zM302 118c69 0 115 56 115 123c0 66 -46 123 -115 123s-115 -57 -115 -123c0 -67 46 -123 115 -123zM424 637l-276 -128l-49 106l276 128z" />
    <glyph glyph-name="abreve" unicode="&#x103;" horiz-adv-x="635" 
d="M417 482h153v-482h-153v68c-24 -44 -80 -80 -154 -80c-128 0 -228 109 -228 253s100 253 228 253c71 0 128 -34 154 -81v69zM302 118c69 0 115 56 115 123c0 66 -46 123 -115 123s-115 -57 -115 -123c0 -67 46 -123 115 -123zM70 713h122c16 -35 46 -60 99 -60
c55 0 86 27 101 60h123c-16 -105 -112 -172 -223 -172s-203 68 -222 172z" />
    <glyph glyph-name="acircumflex" unicode="&#xe2;" horiz-adv-x="635" 
d="M417 482h153v-482h-153v68c-24 -44 -80 -80 -154 -80c-128 0 -228 109 -228 253s100 253 228 253c71 0 128 -34 154 -81v69zM302 118c69 0 115 56 115 123c0 66 -46 123 -115 123s-115 -57 -115 -123c0 -67 46 -123 115 -123zM102 608l195 157l197 -157l-79 -87l-117 93
l-116 -93z" />
    <glyph glyph-name="acute" unicode="&#xb4;" horiz-adv-x="513" 
d="M381 631l-276 -128l-48 106l276 128z" />
    <glyph glyph-name="adieresis" unicode="&#xe4;" horiz-adv-x="635" 
d="M570 0h-153v68c-24 -44 -80 -80 -154 -80c-128 0 -228 109 -228 253s100 253 228 253c71 0 128 -34 154 -81v69h153v-482zM180 537c-54 0 -95 42 -95 93c0 52 42 94 95 94c52 0 94 -42 94 -94c0 -51 -41 -93 -94 -93zM420 537c-53 0 -94 42 -94 93c0 52 41 94 94 94
s95 -42 95 -94c0 -51 -42 -93 -95 -93zM187 241c0 -67 46 -123 115 -123s115 56 115 123c0 66 -46 123 -115 123s-115 -57 -115 -123z" />
    <glyph glyph-name="ae" unicode="&#xe6;" horiz-adv-x="961" 
d="M417 482h138v-12c33 15 73 25 120 25c150 0 247 -102 247 -234c0 -21 -1 -31 -5 -57h-346c1 -60 30 -107 105 -107c54 0 79 24 90 55h150c-16 -92 -103 -165 -237 -165c-50 0 -90 10 -124 26v-13h-138v68c-24 -44 -80 -80 -154 -80c-128 0 -228 109 -228 253
s100 253 228 253c71 0 128 -34 154 -81v69zM672 387c-56 0 -99 -34 -100 -95h199c0 57 -40 95 -99 95zM302 118c69 0 115 56 115 123c0 68 -47 123 -115 123c-69 0 -115 -57 -115 -123c0 -67 46 -123 115 -123z" />
    <glyph glyph-name="aeacute" unicode="&#x1fd;" horiz-adv-x="961" 
d="M417 482h138v-12c33 15 73 25 120 25c150 0 247 -102 247 -234c0 -21 -1 -31 -5 -57h-346c1 -60 30 -107 105 -107c54 0 79 24 90 55h150c-16 -92 -103 -165 -237 -165c-50 0 -90 10 -124 26v-13h-138v68c-24 -44 -80 -80 -154 -80c-128 0 -228 109 -228 253
s100 253 228 253c71 0 128 -34 154 -81v69zM672 387c-56 0 -99 -34 -100 -95h199c0 57 -40 95 -99 95zM302 118c69 0 115 56 115 123c0 68 -47 123 -115 123c-69 0 -115 -57 -115 -123c0 -67 46 -123 115 -123zM642 626l-276 -128l-48 105l276 128z" />
    <glyph glyph-name="afii61289" unicode="&#x2113;" horiz-adv-x="477" 
d="M301 -14c-69 0 -169 5 -179 154l-63 -43l-57 109l117 77v224c0 133 67 210 179 210c126 0 168 -97 168 -184c0 -130 -94 -217 -208 -300v-58c0 -64 43 -70 87 -70c31 0 61 3 78 7v-114c-23 -8 -60 -12 -122 -12zM305 605c-29 0 -47 -35 -47 -81v-141c59 52 85 94 85 152
c0 34 -9 70 -38 70z" />
    <glyph glyph-name="afii61352" unicode="&#x2116;" horiz-adv-x="1159" 
d="M236 700l253 -456v456h161v-700h-169l-252 450v-450h-162v700h169zM914 299c-140 0 -221 94 -221 206c0 113 81 206 221 206s221 -93 221 -206c0 -112 -81 -206 -221 -206zM914 414c51 0 85 41 85 91s-34 90 -85 90s-85 -40 -85 -90s34 -91 85 -91zM1135 172h-442v109
h442v-109z" />
    <glyph glyph-name="agrave" unicode="&#xe0;" horiz-adv-x="635" 
d="M417 482h153v-482h-153v68c-24 -44 -80 -80 -154 -80c-128 0 -228 109 -228 253s100 253 228 253c71 0 128 -34 154 -81v69zM302 118c69 0 115 56 115 123c0 66 -46 123 -115 123s-115 -57 -115 -123c0 -67 46 -123 115 -123zM396 509l-276 128l48 106l276 -128z" />
    <glyph glyph-name="amacron" unicode="&#x101;" horiz-adv-x="635" 
d="M417 482h153v-482h-153v68c-24 -44 -80 -80 -154 -80c-128 0 -228 109 -228 253s100 253 228 253c71 0 128 -34 154 -81v69zM302 118c69 0 115 56 115 123c0 66 -46 123 -115 123s-115 -57 -115 -123c0 -67 46 -123 115 -123zM471 687v-114h-368v114h368z" />
    <glyph glyph-name="ampersand" unicode="&#x26;" horiz-adv-x="633" 
d="M346 231v126h265v-126h-46c-1 -149 -107 -246 -261 -246c-134 0 -264 74 -264 213c0 89 53 137 115 166c-57 25 -104 73 -104 156c0 130 115 195 247 195c167 0 244 -105 244 -224h-162c0 60 -21 102 -87 102c-48 0 -82 -23 -82 -80c0 -47 24 -84 100 -84v-125
c-80 0 -109 -42 -109 -93c0 -67 51 -96 99 -96c57 0 104 42 105 116h-60z" />
    <glyph glyph-name="ampersand.smcp" horiz-adv-x="576" 
d="M306 185v111h225v-111h-34c-1 -119 -82 -198 -218 -198c-115 0 -222 56 -222 168c0 73 45 115 93 135c-45 16 -87 57 -87 128c0 108 98 155 209 155c154 0 208 -91 208 -180h-152c0 43 -13 74 -59 74c-35 0 -57 -18 -57 -57c0 -36 19 -62 71 -62v-111
c-54 0 -75 -28 -75 -65c0 -46 33 -69 69 -69c41 0 71 30 73 82h-44z" />
    <glyph glyph-name="aogonek" unicode="&#x105;" horiz-adv-x="635" 
d="M561 -119l-2 -78c-26 -9 -58 -15 -91 -15c-91 0 -130 44 -130 97c0 43 26 77 79 115v68c-24 -44 -80 -80 -154 -80c-128 0 -228 109 -228 253s100 253 228 253c71 0 128 -34 154 -81v69h153v-482h-55c-27 -18 -56 -39 -56 -78c0 -28 16 -53 48 -53c13 0 35 4 54 12z
M302 118c69 0 115 56 115 123c0 66 -46 123 -115 123s-115 -57 -115 -123c0 -67 46 -123 115 -123z" />
    <glyph glyph-name="apple" horiz-adv-x="709" 
d="M355 700c286 0 271 -306 275 -306c6 0 16 23 27 23c17 0 20 -57 20 -88c0 -18 -1 -85 -23 -85c-10 0 -17 12 -18 14c-19 -79 -63 -258 -281 -258c-210 0 -258 164 -281 259c0 0 -7 -15 -18 -15c-22 0 -23 67 -23 85c0 37 4 88 20 88c11 0 21 -23 27 -23
c4 0 -11 306 275 306zM355 224c-30 0 -50 -11 -70 -22c-5 9 -7 19 -7 32s2 23 10 32c2 1 3 4 3 7c0 7 -6 13 -13 13c-18 0 -27 -39 -27 -59c0 -9 2 -23 9 -34c-13 -5 -29 -9 -47 -9c0 0 13 -102 150 -102s134 102 117 102c-5 0 -30 8 -32 9c6 11 11 25 11 37
c0 16 -9 56 -27 56c-5 0 -13 -3 -13 -14c0 -4 1 -4 2 -6c7 -8 11 -13 11 -32c0 -13 -2 -23 -7 -32c-22 11 -40 22 -70 22zM280 400c0 -28 -22 -50 -51 -50c-26 0 -51 18 -51 54c0 10 2 23 13 32c-38 -13 -51 -51 -51 -51s33 -46 89 -46c67 0 88 64 88 64s-15 26 -57 38
c11 -9 20 -24 20 -41zM430 400c0 12 4 27 15 36c-38 -12 -53 -33 -53 -33s22 -64 89 -64c56 0 89 46 89 46s-14 40 -53 53c10 -9 15 -22 15 -37c0 -30 -22 -51 -51 -51s-51 22 -51 50z" />
    <glyph glyph-name="approxequal" unicode="&#x2248;" 
d="M78 76v119c34 44 79 59 114 59c36 0 78 -15 120 -32c43 -17 80 -36 114 -36c41 0 81 29 108 55v-119c-33 -44 -77 -59 -115 -59c-37 0 -69 14 -108 33s-78 35 -118 35c-51 0 -81 -25 -115 -55zM78 257v119c34 44 79 59 114 59c36 0 78 -15 120 -32c43 -17 80 -36 114 -36
c41 0 81 29 108 55v-119c-33 -44 -77 -59 -115 -59c-37 0 -69 14 -108 33s-78 35 -118 35c-51 0 -81 -25 -115 -55z" />
    <glyph glyph-name="aring" unicode="&#xe5;" horiz-adv-x="635" 
d="M417 482h153v-482h-153v68c-24 -44 -80 -80 -154 -80c-128 0 -228 109 -228 253s100 253 228 253c71 0 128 -34 154 -81v69zM302 118c69 0 115 56 115 123c0 66 -46 123 -115 123s-115 -57 -115 -123c0 -67 46 -123 115 -123zM311 785c75 0 135 -61 135 -134
s-60 -135 -134 -135c-75 0 -135 62 -135 135c0 74 60 134 134 134zM312 696c-26 0 -45 -22 -45 -45c0 -24 21 -44 45 -44s44 21 44 45s-19 44 -44 44z" />
    <glyph glyph-name="aringacute" unicode="&#x1fb;" horiz-adv-x="635" 
d="M417 413v69h153v-482h-153v68c-24 -44 -80 -80 -154 -80c-128 0 -228 109 -228 253s100 253 228 253c71 0 128 -34 154 -81zM187 241c0 -67 46 -123 115 -123s115 56 115 123c0 66 -46 123 -115 123s-115 -57 -115 -123zM327 624c0 23 -18 42 -42 42s-41 -20 -41 -42
c0 -24 19 -42 41 -42c23 0 42 19 42 42zM285 748c69 0 125 -57 125 -125s-56 -125 -125 -125s-125 57 -125 125c0 69 56 125 125 125zM169 723l-46 96l257 122l46 -97z" />
    <glyph glyph-name="arrowdown" unicode="&#x2193;" 
d="M547 260l-240 -260l-240 260l76 71l109 -122v491h110v-490l108 121z" />
    <glyph glyph-name="arrowleft" unicode="&#x2190;" 
d="M217 110l-260 240l260 240l70 -77l-121 -108h491v-111h-490l120 -107z" />
    <glyph glyph-name="arrowright" unicode="&#x2192;" 
d="M397 590l260 -240l-260 -240l-71 77l121 108h-490v111h489l-120 107s69 77 71 77z" />
    <glyph glyph-name="arrowup" unicode="&#x2191;" 
d="M67 440l240 260l240 -260l-77 -71l-108 121v-490h-111v489l-108 -120z" />
    <glyph glyph-name="asciicircum" unicode="^" horiz-adv-x="636" 
d="M594 300h-149l-127 271l-130 -271h-146l232 450h87z" />
    <glyph glyph-name="asciitilde" unicode="~" horiz-adv-x="562" 
d="M35 193v120c39 46 87 59 123 59c38 0 84 -15 129 -32c58 -22 90 -36 122 -36c45 0 88 29 117 55v-120c-36 -44 -83 -59 -124 -59c-42 0 -76 15 -116 33s-83 35 -127 35c-51 0 -85 -22 -124 -55z" />
    <glyph glyph-name="asterisk" unicode="*" horiz-adv-x="466" 
d="M151 334l-72 52l82 110l-131 42l28 83l132 -45v141h88l-2 -141l132 45l28 -83l-131 -42l82 -110l-72 -52l-82 116z" />
    <glyph glyph-name="asuperior" horiz-adv-x="422" 
d="M258 586h101v-271h-101v40c-9 -21 -39 -47 -86 -47c-70 0 -124 58 -124 142s54 142 124 142c47 0 77 -26 86 -46v40zM203 392c33 0 55 27 55 58c0 32 -22 58 -55 58c-32 0 -55 -26 -55 -58c0 -31 23 -58 55 -58z" />
    <glyph glyph-name="at" unicode="@" horiz-adv-x="871" 
d="M425 121c58 0 98 47 98 103c0 58 -41 104 -98 104c-58 0 -96 -47 -96 -104c0 -55 37 -103 96 -103zM522 88c-18 -32 -62 -66 -126 -66c-104 0 -189 89 -189 202c0 114 87 203 190 203c60 0 106 -31 125 -65v56h116v-236c0 -68 19 -95 46 -95c40 0 69 56 69 155
c0 210 -132 297 -302 297c-222 0 -316 -147 -316 -307c0 -173 109 -323 338 -323c68 0 176 13 265 62l50 -89c-104 -59 -231 -76 -318 -76c-295 0 -450 199 -450 424c0 219 147 413 430 413c233 0 418 -132 418 -391c0 -171 -80 -267 -196 -267c-80 0 -130 45 -150 103z" />
    <glyph glyph-name="atilde" unicode="&#xe3;" horiz-adv-x="635" 
d="M417 482h153v-482h-153v68c-24 -44 -80 -80 -154 -80c-128 0 -228 109 -228 253s100 253 228 253c71 0 128 -34 154 -81v69zM302 118c69 0 115 56 115 123c0 66 -46 123 -115 123s-115 -57 -115 -123c0 -67 46 -123 115 -123zM149 587l-50 92c60 36 87 38 99 38
c43 0 128 -27 166 -27c15 0 32 4 81 27l46 -90c-54 -43 -104 -45 -115 -45c-38 0 -119 26 -155 26c-23 0 -47 -11 -72 -21z" />
    <glyph glyph-name="b" unicode="b" horiz-adv-x="637" 
d="M218 68v-68h-153v700h153v-287c24 44 80 81 155 81c128 0 228 -108 228 -253c0 -144 -99 -253 -229 -253c-77 0 -132 39 -154 80zM333 118c69 0 115 56 115 123c0 65 -45 123 -115 123c-69 0 -115 -57 -115 -123c0 -68 47 -123 115 -123z" />
    <glyph glyph-name="backslash" unicode="\" horiz-adv-x="491" 
d="M139 805l351 -816l-143 -61l-351 816z" />
    <glyph glyph-name="backslash.smcp" horiz-adv-x="464" 
d="M157 637l275 -638l-136 -58l-274 639z" />
    <glyph glyph-name="bar" unicode="|" horiz-adv-x="287" 
d="M220 -163h-153v938h153v-938z" />
    <glyph glyph-name="bar.smcp" horiz-adv-x="298" 
d="M221 -97h-143v708h143v-708z" />
    <glyph glyph-name="braceleft" unicode="{" horiz-adv-x="477" 
d="M309 775h101v-124h-42c-53 0 -68 -42 -68 -81v-188c0 -86 -69 -111 -99 -114c30 -4 99 -24 99 -120v-167c0 -38 15 -81 68 -81h42v-123h-101c-91 0 -162 55 -162 159v179c0 63 -50 85 -87 85v135c37 0 87 21 87 80v200c0 104 71 160 162 160z" />
    <glyph glyph-name="braceleft.smcp" horiz-adv-x="442" 
d="M274 611h95v-118h-32c-46 0 -61 -35 -61 -68v-120c0 -68 -56 -88 -80 -91c24 -3 80 -20 80 -95v-107c0 -32 15 -68 61 -68h32v-117h-95c-85 0 -142 49 -142 136v122c0 48 -34 64 -67 64v130c33 0 67 15 67 61v133c0 88 57 138 142 138z" />
    <glyph glyph-name="braceright" unicode="}" horiz-adv-x="477" 
d="M67 775h101c91 0 162 -56 162 -160v-200c0 -59 49 -80 87 -80v-135c-38 0 -87 -22 -87 -85v-179c0 -104 -71 -159 -162 -159h-101v123h41c54 0 68 43 68 81v167c0 96 69 116 99 120c-30 3 -99 28 -99 114v188c0 39 -14 81 -68 81h-41v124z" />
    <glyph glyph-name="braceright.smcp" horiz-adv-x="442" 
d="M74 611h94c86 0 142 -50 142 -138v-133c0 -46 35 -61 67 -61v-130c-32 0 -67 -16 -67 -64v-122c0 -87 -56 -136 -142 -136h-94v117h32c45 0 61 36 61 68v107c0 75 55 92 79 95c-24 3 -79 23 -79 91v120c0 33 -16 68 -61 68h-32v118z" />
    <glyph glyph-name="bracketleft" unicode="[" horiz-adv-x="385" 
d="M325 -223h-258v998h258v-133h-105v-733h105v-132z" />
    <glyph glyph-name="bracketleft.smcp" horiz-adv-x="375" 
d="M310 -173h-232v784h232v-123h-89v-538h89v-123z" />
    <glyph glyph-name="bracketright" unicode="]" horiz-adv-x="385" 
d="M318 -223h-258v132h105v732h-105v134h258v-998z" />
    <glyph glyph-name="bracketright.smcp" horiz-adv-x="375" 
d="M298 -173h-233v123h90v537h-90v124h233v-784z" />
    <glyph glyph-name="breve" unicode="&#x2d8;" horiz-adv-x="546" 
d="M50 855h123c15 -36 46 -61 99 -61c58 0 87 30 100 61h123c-15 -105 -112 -172 -222 -172c-111 0 -204 67 -223 172z" />
    <glyph glyph-name="brokenbar" unicode="&#xa6;" horiz-adv-x="448" 
d="M220 374h-153v401h153v-401zM67 244h153v-407h-153v407z" />
    <glyph glyph-name="brokenbar.smcp" horiz-adv-x="502" 
d="M221 318h-143v293h143v-293zM78 204h143v-301h-143v301z" />
    <glyph glyph-name="bsuperior" horiz-adv-x="423" 
d="M164 355v-40h-101v385h101v-154c12 25 44 46 86 46c70 0 124 -58 124 -142s-54 -142 -124 -142c-45 0 -76 24 -86 47zM219 392c32 0 54 27 54 58c0 32 -22 58 -54 58c-33 0 -55 -26 -55 -58c0 -31 22 -58 55 -58z" />
    <glyph glyph-name="bullet" unicode="&#x2022;" horiz-adv-x="363" 
d="M47 312c0 74 59 134 134 134c76 0 135 -60 135 -134c0 -73 -59 -133 -135 -133c-75 0 -134 60 -134 133z" />
    <glyph glyph-name="c" unicode="c" horiz-adv-x="575" 
d="M541 293h-153c-5 41 -34 72 -91 72c-79 0 -111 -58 -111 -124c0 -67 33 -124 114 -124c52 0 76 23 89 64h153c-14 -108 -99 -194 -247 -194c-174 0 -262 120 -262 254c0 133 88 254 262 254c159 0 237 -100 246 -202z" />
    <glyph glyph-name="cacute" unicode="&#x107;" horiz-adv-x="575" 
d="M541 293h-153c-5 41 -34 72 -91 72c-79 0 -111 -58 -111 -124c0 -67 33 -124 114 -124c52 0 76 23 89 64h153c-14 -108 -99 -194 -247 -194c-174 0 -262 120 -262 254c0 133 88 254 262 254c159 0 237 -100 246 -202zM449 637l-276 -128l-48 106l276 128z" />
    <glyph glyph-name="caron" unicode="&#x2c7;" horiz-adv-x="461" 
d="M230 604l-182 157l73 88l109 -98l110 98l73 -88z" />
    <glyph glyph-name="ccaron" unicode="&#x10d;" horiz-adv-x="575" 
d="M541 293h-153c-5 41 -34 72 -91 72c-79 0 -111 -58 -111 -124c0 -67 33 -124 114 -124c52 0 76 23 89 64h153c-14 -108 -99 -194 -247 -194c-174 0 -262 120 -262 254c0 133 88 254 262 254c159 0 237 -100 246 -202zM292 521l-182 157l72 87l110 -97l110 97l73 -87z" />
    <glyph glyph-name="ccedilla" unicode="&#xe7;" horiz-adv-x="575" 
d="M541 293h-153c-5 41 -34 72 -91 72c-79 0 -111 -58 -111 -124c0 -67 33 -124 114 -124c52 0 76 23 89 64h153c-15 -104 -89 -185 -227 -193v-31c6 7 19 16 41 16c46 0 84 -38 84 -89s-38 -101 -106 -101c-38 0 -102 16 -111 92h74c4 -18 16 -29 34 -29c20 0 35 15 35 37
s-15 35 -35 35c-11 0 -22 -4 -29 -17h-65v91c-134 23 -204 130 -204 249c0 133 88 254 262 254c159 0 237 -100 246 -202z" />
    <glyph glyph-name="ccircumflex" unicode="&#x109;" horiz-adv-x="575" 
d="M541 293h-153c-5 41 -34 72 -91 72c-79 0 -111 -58 -111 -124c0 -67 33 -124 114 -124c52 0 76 23 89 64h153c-14 -108 -99 -194 -247 -194c-174 0 -262 120 -262 254c0 133 88 254 262 254c159 0 237 -100 246 -202zM92 608l196 157l196 -157l-80 -87l-116 93l-116 -93z
" />
    <glyph glyph-name="cdotaccent" unicode="&#x10b;" horiz-adv-x="575" 
d="M541 293h-153c-5 41 -34 72 -91 72c-79 0 -111 -58 -111 -124c0 -67 33 -124 114 -124c52 0 76 23 89 64h153c-14 -108 -99 -194 -247 -194c-174 0 -262 120 -262 254c0 133 88 254 262 254c159 0 237 -100 246 -202zM197 629c0 52 42 94 95 94c52 0 95 -42 95 -94
c0 -51 -42 -93 -95 -93c-54 0 -95 42 -95 93z" />
    <glyph glyph-name="cedilla" unicode="&#xb8;" horiz-adv-x="473" 
d="M144 -111v123h78v-67c8 9 22 15 40 15c47 0 85 -38 85 -89c0 -52 -39 -101 -106 -101c-39 0 -103 17 -112 93h74c4 -18 16 -30 34 -30c21 0 35 16 35 37s-14 35 -35 35c-12 0 -22 -5 -28 -16h-65z" />
    <glyph glyph-name="cent" unicode="&#xa2;" horiz-adv-x="606" 
d="M553 370h-153c-5 41 -34 72 -91 72c-79 0 -111 -58 -111 -124c0 -67 33 -124 113 -124c53 0 77 24 90 64h153c-13 -90 -70 -163 -176 -185v-114h-148v114c-121 28 -185 132 -185 245s64 217 185 245v116h148v-116c113 -24 167 -106 175 -193z" />
    <glyph glyph-name="circumflex" unicode="&#x2c6;" horiz-adv-x="488" 
d="M46 685l196 157l196 -157l-79 -88l-117 94l-116 -93z" />
    <glyph glyph-name="colon" unicode=":" horiz-adv-x="303" 
d="M50 412c0 55 44 100 101 100s101 -45 101 -100s-44 -100 -101 -100s-101 45 -101 100zM50 91c0 55 45 100 101 100c57 0 102 -45 102 -100s-45 -100 -102 -100c-56 0 -101 45 -101 100z" />
    <glyph glyph-name="comma" unicode="," horiz-adv-x="309" 
d="M46 90c0 55 42 101 105 101c62 0 108 -46 108 -144c0 -129 -79 -192 -208 -192v62c43 0 72 11 91 26c15 12 28 33 30 56c-3 -3 -13 -8 -31 -8c-54 0 -95 45 -95 99z" />
    <glyph glyph-name="commaaccent" horiz-adv-x="243" 
d="M44 46c0 42 31 77 78 77c48 0 84 -36 84 -110c0 -98 -62 -146 -159 -146v48c32 0 53 6 69 19c15 12 22 27 23 43c-2 -3 -9 -7 -23 -7c-42 0 -72 35 -72 76z" />
    <glyph glyph-name="commaturn" horiz-adv-x="243" 
d="M205 635c0 -42 -32 -77 -79 -77c-48 0 -83 36 -83 110c0 98 61 147 158 147v-48c-32 0 -54 -8 -69 -20s-21 -28 -23 -42c2 2 10 6 24 6c41 0 72 -34 72 -76z" />
    <glyph glyph-name="copyright" unicode="&#xa9;" horiz-adv-x="808" 
d="M404 -18c-233 0 -371 176 -371 368s138 368 371 368s371 -176 371 -368s-138 -368 -371 -368zM510 290h102c-16 -85 -91 -154 -203 -154c-134 0 -216 100 -216 215c0 111 77 213 216 213c121 0 191 -77 202 -168h-100c-11 45 -46 81 -104 81c-75 0 -116 -61 -116 -126
c0 -69 46 -128 119 -128c50 0 86 28 100 67zM404 74c165 0 263 132 263 276s-98 276 -263 276s-263 -132 -263 -276s98 -276 263 -276z" />
    <glyph glyph-name="csuperior" horiz-adv-x="392" 
d="M345 475h-100c-4 22 -19 35 -45 35c-38 0 -54 -28 -54 -60s17 -58 55 -58c25 0 37 11 44 30h101c-8 -65 -59 -114 -147 -114c-102 0 -154 66 -154 142c0 77 53 144 154 144c93 0 140 -56 146 -119z" />
    <glyph glyph-name="currency" unicode="&#xa4;" horiz-adv-x="757" 
d="M560 85l-64 64c-38 -21 -84 -33 -136 -33s-96 12 -134 32l-67 -66l-86 86l60 60c-27 41 -41 90 -41 142c0 51 14 99 40 140l-59 59l86 86l64 -65c38 21 84 34 136 34c53 0 99 -13 137 -34l64 65l87 -86l-60 -60c26 -40 40 -88 40 -139s-14 -99 -40 -139l59 -59zM359 247
c70 0 116 56 116 123c0 68 -46 123 -116 123c-69 0 -114 -55 -114 -123c0 -67 45 -123 114 -123z" />
    <glyph glyph-name="d" unicode="d" horiz-adv-x="635" 
d="M417 0v68c-24 -44 -80 -80 -154 -80c-128 0 -228 109 -228 253s100 253 228 253c71 0 128 -34 154 -81v287h153v-700h-153zM302 118c69 0 115 56 115 123c0 66 -46 123 -115 123s-115 -57 -115 -123c0 -67 46 -123 115 -123z" />
    <glyph glyph-name="dagger" unicode="&#x2020;" horiz-adv-x="466" 
d="M295 -182h-124v531h-116v112h116v256h124v-256h115v-112h-115v-531z" />
    <glyph glyph-name="daggerdbl" unicode="&#x2021;" horiz-adv-x="466" 
d="M171 717h124v-235h115v-110h-115v-263h115v-109h-115v-182h-124v182h-116v109h116v263h-116v110h116v235z" />
    <glyph glyph-name="dcaron" unicode="&#x10f;" horiz-adv-x="844" 
d="M302 118c69 0 115 56 115 123c0 66 -46 123 -115 123s-115 -57 -115 -123c0 -67 46 -123 115 -123zM417 413v287h153v-700h-153v68c-24 -44 -80 -80 -154 -80c-128 0 -228 109 -228 253s100 253 228 253c71 0 128 -34 154 -81zM632 641c0 52 38 97 99 97
c60 0 103 -45 103 -137c0 -118 -70 -183 -198 -183v59c41 0 68 10 86 25s27 34 29 53c-2 -3 -12 -7 -29 -7c-53 0 -90 42 -90 93z" />
    <glyph glyph-name="dcroat" unicode="&#x111;" horiz-adv-x="635" 
d="M611 633v-122h-41v-511h-153v68c-24 -44 -80 -80 -154 -80c-128 0 -228 109 -228 253s100 253 228 253c71 0 128 -34 154 -81v98h-69v122h69v67h153v-67h41zM302 118c69 0 115 56 115 123c0 66 -46 123 -115 123s-115 -57 -115 -123c0 -67 46 -123 115 -123z" />
    <glyph glyph-name="degree" unicode="&#xb0;" horiz-adv-x="344" 
d="M324 574c0 -85 -67 -152 -152 -152s-152 67 -152 152s67 152 152 152s152 -67 152 -152zM230 574c0 31 -27 59 -58 59s-58 -28 -58 -59c0 -32 27 -58 58 -58s58 26 58 58z" />
    <glyph glyph-name="dieresis" unicode="&#xa8;" horiz-adv-x="582" 
d="M321 617c0 50 40 91 92 91s92 -41 92 -91s-40 -91 -92 -91s-92 41 -92 91zM81 617c0 50 40 91 91 91c52 0 93 -42 93 -91c0 -50 -41 -91 -93 -91c-51 0 -91 40 -91 91z" />
    <glyph glyph-name="divide" unicode="&#xf7;" 
d="M520 190h-427v122h427v-122zM212 437c0 52 42 94 94 94c53 0 95 -42 95 -94c0 -51 -42 -93 -95 -93c-52 0 -94 42 -94 93zM212 71c0 52 42 93 94 93c53 0 95 -41 95 -93c0 -51 -42 -93 -95 -93c-52 0 -94 42 -94 93z" />
    <glyph glyph-name="dollar" unicode="$" horiz-adv-x="655" 
d="M405 822v-112c113 -26 174 -114 174 -215h-162c0 62 -33 101 -88 101c-44 0 -84 -24 -84 -71c0 -45 37 -71 100 -93c132 -46 246 -89 246 -228c0 -111 -72 -192 -186 -214v-112h-148v111c-113 23 -193 109 -193 243h162c0 -76 47 -121 110 -121c55 0 94 34 94 84
c0 55 -48 73 -109 96c-127 47 -237 89 -237 224c0 110 72 173 173 195v112h148z" />
    <glyph glyph-name="dotaccent" unicode="&#x2d9;" horiz-adv-x="496" 
d="M153 622c0 52 42 94 95 94c52 0 95 -42 95 -94c0 -51 -42 -93 -95 -93c-54 0 -95 42 -95 93z" />
    <glyph glyph-name="dotlessi" unicode="&#x131;" horiz-adv-x="258" 
d="M53 0v482h153v-482h-153z" />
    <glyph glyph-name="dsuperior" horiz-adv-x="422" 
d="M258 315v40c-9 -21 -39 -47 -86 -47c-70 0 -124 58 -124 142s54 142 124 142c47 0 77 -26 86 -46v154h101v-385h-101zM203 392c33 0 55 27 55 58c0 32 -22 58 -55 58c-32 0 -55 -26 -55 -58c0 -31 23 -58 55 -58z" />
    <glyph glyph-name="e" unicode="e" horiz-adv-x="577" 
d="M533 204h-345c0 -58 27 -107 104 -107c54 0 79 24 90 55h150c-16 -91 -100 -165 -238 -165c-169 0 -260 112 -260 254c0 141 90 254 253 254c155 0 251 -102 251 -236c0 -19 -1 -29 -5 -55zM288 387c-57 0 -100 -34 -100 -95h200c0 58 -41 95 -100 95z" />
    <glyph glyph-name="eacute" unicode="&#xe9;" horiz-adv-x="577" 
d="M533 204h-345c0 -58 27 -107 104 -107c54 0 79 24 90 55h150c-16 -91 -100 -165 -238 -165c-169 0 -260 112 -260 254c0 141 90 254 253 254c155 0 251 -102 251 -236c0 -19 -1 -29 -5 -55zM288 387c-57 0 -100 -34 -100 -95h200c0 58 -41 95 -100 95zM444 637l-276 -128
l-48 106l276 128z" />
    <glyph glyph-name="ebreve" unicode="&#x115;" horiz-adv-x="577" 
d="M533 204h-345c0 -58 27 -107 104 -107c54 0 79 24 90 55h150c-16 -91 -100 -165 -238 -165c-169 0 -260 112 -260 254c0 141 90 254 253 254c155 0 251 -102 251 -236c0 -19 -1 -29 -5 -55zM288 387c-57 0 -100 -34 -100 -95h200c0 58 -41 95 -100 95zM66 713h123
c15 -35 46 -60 99 -60c58 0 87 30 100 60h123c-15 -105 -112 -172 -222 -172c-111 0 -204 68 -223 172z" />
    <glyph glyph-name="ecaron" unicode="&#x11b;" horiz-adv-x="577" 
d="M533 204h-345c0 -58 27 -107 104 -107c54 0 79 24 90 55h150c-16 -91 -100 -165 -238 -165c-169 0 -260 112 -260 254c0 141 90 254 253 254c155 0 251 -102 251 -236c0 -19 -1 -29 -5 -55zM288 387c-57 0 -100 -34 -100 -95h200c0 58 -41 95 -100 95zM287 521l-182 157
l73 87l109 -97l110 97l74 -87z" />
    <glyph glyph-name="ecircumflex" unicode="&#xea;" horiz-adv-x="577" 
d="M533 204h-345c0 -58 27 -107 104 -107c54 0 79 24 90 55h150c-16 -91 -100 -165 -238 -165c-169 0 -260 112 -260 254c0 141 90 254 253 254c155 0 251 -102 251 -236c0 -19 -1 -29 -5 -55zM288 387c-57 0 -100 -34 -100 -95h200c0 58 -41 95 -100 95zM94 608l195 157
l197 -157l-79 -87l-117 93l-116 -93z" />
    <glyph glyph-name="edieresis" unicode="&#xeb;" horiz-adv-x="577" 
d="M533 204h-345c0 -58 27 -107 104 -107c54 0 79 24 90 55h150c-16 -91 -100 -165 -238 -165c-169 0 -260 112 -260 254c0 141 90 254 253 254c155 0 251 -102 251 -236c0 -19 -1 -29 -5 -55zM288 387c-57 0 -100 -34 -100 -95h200c0 58 -41 95 -100 95zM313 630
c0 52 42 94 95 94c52 0 94 -42 94 -94c0 -51 -41 -93 -94 -93c-54 0 -95 42 -95 93zM73 630c0 52 41 94 94 94s95 -42 95 -94c0 -51 -42 -93 -95 -93s-94 42 -94 93z" />
    <glyph glyph-name="edotaccent" unicode="&#x117;" horiz-adv-x="577" 
d="M533 204h-345c0 -58 27 -107 104 -107c54 0 79 24 90 55h150c-16 -91 -100 -165 -238 -165c-169 0 -260 112 -260 254c0 141 90 254 253 254c155 0 251 -102 251 -236c0 -19 -1 -29 -5 -55zM288 387c-57 0 -100 -34 -100 -95h200c0 58 -41 95 -100 95zM194 629
c0 52 41 94 94 94s95 -42 95 -94c0 -51 -42 -93 -95 -93s-94 42 -94 93z" />
    <glyph glyph-name="egrave" unicode="&#xe8;" horiz-adv-x="577" 
d="M533 204h-345c0 -58 27 -107 104 -107c54 0 79 24 90 55h150c-16 -91 -100 -165 -238 -165c-169 0 -260 112 -260 254c0 141 90 254 253 254c155 0 251 -102 251 -236c0 -19 -1 -29 -5 -55zM288 387c-57 0 -100 -34 -100 -95h200c0 58 -41 95 -100 95zM425 509l-276 128
l48 106l276 -128z" />
    <glyph glyph-name="eight" unicode="8" 
d="M300 -15c-166 0 -263 98 -263 212c0 79 46 149 113 168c-60 23 -96 84 -96 151c0 107 90 199 246 199s246 -93 246 -199c0 -67 -36 -128 -96 -151c67 -21 113 -91 113 -168c0 -111 -96 -212 -263 -212zM300 419c58 0 92 41 92 87s-34 87 -92 87s-92 -40 -92 -87
c0 -46 34 -87 92 -87zM300 107c67 0 106 46 106 96s-38 97 -107 97c-67 0 -106 -45 -106 -96c0 -52 40 -97 107 -97z" />
    <glyph glyph-name="eight.denominator" horiz-adv-x="410" 
d="M205 -9c-98 0 -154 54 -154 116c0 47 31 84 66 93c-31 11 -56 43 -56 84c0 59 51 110 144 110c91 0 144 -50 144 -110c0 -40 -24 -73 -56 -84c35 -11 66 -46 66 -92c0 -62 -55 -117 -154 -117zM205 236c28 0 44 20 44 42s-16 42 -44 42s-44 -20 -44 -42s16 -42 44 -42z
M205 65c32 0 51 23 51 48c0 24 -18 46 -51 46s-51 -21 -51 -46c0 -26 19 -48 51 -48z" />
    <glyph glyph-name="eight.numerator" horiz-adv-x="410" 
d="M205 306c-98 0 -154 54 -154 116c0 47 31 84 66 93c-31 11 -56 43 -56 84c0 59 51 110 144 110c91 0 144 -50 144 -110c0 -40 -24 -73 -56 -84c35 -11 66 -46 66 -92c0 -62 -55 -117 -154 -117zM205 551c28 0 44 20 44 42s-16 42 -44 42s-44 -20 -44 -42s16 -42 44 -42z
M205 380c32 0 51 23 51 48c0 24 -18 46 -51 46s-51 -21 -51 -46c0 -26 19 -48 51 -48z" />
    <glyph glyph-name="eight.plf" horiz-adv-x="616" 
d="M308 -15c-166 0 -263 99 -263 213c0 80 48 148 113 167c-60 23 -95 84 -95 151c0 107 90 199 245 199s246 -92 246 -199c0 -67 -35 -128 -95 -151c66 -21 112 -91 112 -168c0 -111 -95 -212 -263 -212zM308 419c58 0 92 41 92 87s-34 87 -92 87c-57 0 -92 -40 -92 -87
c0 -46 34 -87 92 -87zM309 107c67 0 106 46 106 96s-38 97 -107 97c-67 0 -106 -45 -106 -96c0 -52 40 -97 107 -97z" />
    <glyph glyph-name="eight.plf.smcp" horiz-adv-x="569" 
d="M285 -13c-139 0 -219 79 -219 170c0 66 43 121 94 134c-47 17 -80 65 -80 122c0 86 75 160 205 160s204 -75 204 -160c0 -57 -33 -105 -80 -122c54 -16 94 -71 94 -135c0 -89 -79 -169 -218 -169zM285 340c43 0 68 30 68 65c0 34 -25 64 -68 64c-44 0 -69 -30 -69 -64
c0 -35 25 -65 69 -65zM284 91c51 0 80 35 80 72s-29 72 -80 72c-49 0 -79 -33 -79 -72s30 -72 79 -72z" />
    <glyph glyph-name="eight.smcp" horiz-adv-x="569" 
d="M280 -13c-139 0 -219 79 -219 170c0 66 43 121 94 134c-47 17 -79 65 -79 122c0 86 74 160 204 160s204 -75 204 -161c0 -56 -32 -104 -79 -121c53 -16 93 -71 93 -135c0 -89 -79 -169 -218 -169zM280 340c43 0 68 30 68 64s-25 65 -68 65s-69 -30 -69 -64
c0 -35 26 -65 69 -65zM279 91c51 0 80 35 80 72s-28 72 -80 72c-50 0 -78 -33 -78 -72s29 -72 78 -72z" />
    <glyph glyph-name="eightinferior" unicode="&#x2088;" horiz-adv-x="410" 
d="M205 -209c-98 0 -154 54 -154 116c0 47 31 84 66 93c-31 11 -56 43 -56 84c0 59 51 110 144 110c91 0 144 -50 144 -110c0 -40 -24 -73 -56 -84c35 -11 66 -46 66 -92c0 -62 -55 -117 -154 -117zM205 36c28 0 44 20 44 42s-16 42 -44 42s-44 -20 -44 -42s16 -42 44 -42z
M205 -135c32 0 51 23 51 48c0 24 -18 46 -51 46s-51 -21 -51 -46c0 -26 19 -48 51 -48z" />
    <glyph glyph-name="eightsuperior" unicode="&#x2078;" horiz-adv-x="410" 
d="M205 306c-98 0 -154 54 -154 116c0 47 31 84 66 93c-31 11 -56 43 -56 84c0 59 51 110 144 110c91 0 144 -50 144 -110c0 -40 -24 -73 -56 -84c35 -11 66 -46 66 -92c0 -62 -55 -117 -154 -117zM205 551c28 0 44 20 44 42s-16 42 -44 42s-44 -20 -44 -42s16 -42 44 -42z
M205 380c32 0 51 23 51 48c0 24 -18 46 -51 46s-51 -21 -51 -46c0 -26 19 -48 51 -48z" />
    <glyph glyph-name="ellipsis" unicode="&#x2026;" horiz-adv-x="986" 
d="M50 91c0 56 44 101 101 101s101 -45 101 -101c0 -55 -44 -100 -101 -100s-101 45 -101 100zM392 90c0 56 44 101 101 101s101 -45 101 -101c0 -55 -44 -100 -101 -100s-101 45 -101 100zM734 90c0 55 44 100 101 100s101 -45 101 -100s-44 -100 -101 -100
s-101 45 -101 100z" />
    <glyph glyph-name="emacron" unicode="&#x113;" horiz-adv-x="577" 
d="M533 204h-345c0 -58 27 -107 104 -107c54 0 79 24 90 55h150c-16 -91 -100 -165 -238 -165c-169 0 -260 112 -260 254c0 141 90 254 253 254c155 0 251 -102 251 -236c0 -19 -1 -29 -5 -55zM288 387c-57 0 -100 -34 -100 -95h200c0 58 -41 95 -100 95zM473 712v-115h-368
v115h368z" />
    <glyph glyph-name="emdash" unicode="&#x2014;" horiz-adv-x="1006" 
d="M961 236h-916v122h916v-122z" />
    <glyph glyph-name="endash" unicode="&#x2013;" horiz-adv-x="503" 
d="M463 236h-423v122h423v-122z" />
    <glyph glyph-name="eng" unicode="&#x14b;" horiz-adv-x="607" 
d="M190 -171l59 95c20 -19 36 -32 65 -32c54 0 82 42 82 102v253c0 68 -21 117 -84 117s-94 -48 -94 -122v-242h-153v482h153v-70c27 52 83 82 159 82c66 0 108 -23 134 -55c30 -37 38 -84 38 -153v-298c0 -141 -78 -219 -205 -219c-70 0 -117 24 -154 60z" />
    <glyph glyph-name="eogonek" unicode="&#x119;" horiz-adv-x="577" 
d="M397 -119l-2 -78c-26 -9 -58 -15 -91 -15c-91 0 -129 44 -129 97c0 40 21 72 66 106c-135 21 -207 123 -207 250c0 141 90 254 253 254c155 0 251 -102 251 -236c0 -19 -1 -29 -5 -55h-345c0 -58 27 -107 104 -107c54 0 79 24 90 55h150c-14 -81 -83 -149 -196 -162
c-21 -16 -41 -36 -41 -68c0 -28 16 -53 48 -53c13 0 35 4 54 12zM288 387c-57 0 -100 -34 -100 -95h200c0 58 -41 95 -100 95z" />
    <glyph glyph-name="equal" unicode="=" 
d="M520 313h-427v122h427v-122zM520 132h-427v122h427v-122z" />
    <glyph glyph-name="equal.denominator" horiz-adv-x="410" 
d="M327 172h-244v77h244v-77zM327 63h-244v77h244v-77z" />
    <glyph glyph-name="equal.numerator" horiz-adv-x="410" 
d="M327 487h-244v77h244v-77zM327 378h-244v77h244v-77z" />
    <glyph glyph-name="equalinferior" horiz-adv-x="410" 
d="M327 -28h-244v77h244v-77zM327 -137h-244v77h244v-77z" />
    <glyph glyph-name="equalsuperior" unicode="&#x207c;" horiz-adv-x="410" 
d="M327 487h-244v77h244v-77zM327 378h-244v77h244v-77z" />
    <glyph glyph-name="estimated" unicode="&#x212e;" horiz-adv-x="533" 
d="M494 247h-327v-210c29 -17 65 -27 107 -27c99 0 170 57 190 122h22c-22 -82 -100 -144 -214 -144c-159 0 -238 122 -238 256c0 143 90 251 232 251c132 0 229 -94 229 -218c0 -7 0 -16 -1 -30zM269 473c-37 0 -73 -9 -102 -26v-178h198v180c-27 15 -59 24 -96 24z" />
    <glyph glyph-name="esuperior" horiz-adv-x="395" 
d="M344 428h-196c0 -27 12 -53 50 -53c27 0 41 13 47 29h97c-8 -55 -59 -96 -141 -96c-98 0 -155 59 -155 142c0 79 52 144 151 144c96 0 150 -60 150 -128c0 -9 -1 -22 -3 -38zM197 528c-29 0 -49 -18 -49 -49h98c0 30 -19 49 -49 49z" />
    <glyph glyph-name="eth" unicode="&#xf0;" horiz-adv-x="596" 
d="M297 -15c-166 0 -267 115 -267 255c0 158 128 250 243 250l-22 34l-110 -50l-46 102l92 44l-61 97h182l21 -36l93 42l47 -101l-77 -37l130 -201c27 -42 43 -91 43 -146c0 -136 -100 -253 -268 -253zM297 116c70 0 116 56 116 123c0 68 -46 123 -116 123
c-69 0 -114 -55 -114 -123c0 -67 45 -123 114 -123z" />
    <glyph glyph-name="exclam" unicode="!" horiz-adv-x="338" 
d="M87 242v458h164v-458h-164zM65 87c0 56 45 102 103 102c59 0 105 -46 105 -102s-46 -103 -105 -103c-58 0 -103 47 -103 103z" />
    <glyph glyph-name="exclam.smcp" horiz-adv-x="337" 
d="M92 202v358h153v-358h-153zM76 75c0 50 40 91 92 91c53 0 92 -41 92 -91s-39 -91 -92 -91c-52 0 -92 41 -92 91z" />
    <glyph glyph-name="exclamdown" unicode="&#xa1;" horiz-adv-x="338" 
d="M88 -5v455h164v-455h-164zM68 607c0 55 45 101 102 101s102 -46 102 -101s-45 -101 -102 -101s-102 46 -102 101z" />
    <glyph glyph-name="exclamdown.smcp" horiz-adv-x="336" 
d="M93 -6v356h153v-356h-153zM78 476c0 49 40 90 91 90s91 -41 91 -90c0 -48 -40 -89 -91 -89s-91 41 -91 89z" />
    <glyph glyph-name="f" unicode="f" horiz-adv-x="380" 
d="M368 698v-110c-16 4 -28 6 -49 6c-32 0 -64 -5 -64 -61v-51h113v-114h-112v-368h-153v368h-87v114h87v42c0 174 107 187 175 187c46 0 72 -6 90 -13z" />
    <glyph glyph-name="five" unicode="5" 
d="M55 295v405h473v-126h-324v-156c28 43 86 64 147 64c147 0 224 -120 224 -242c0 -139 -101 -255 -268 -255s-268 116 -268 253h157c0 -65 43 -119 110 -119c69 0 112 55 112 121c0 63 -41 119 -113 119c-45 0 -78 -22 -99 -64h-151z" />
    <glyph glyph-name="five.denominator" horiz-adv-x="420" 
d="M65 161v224h279v-78h-179v-72c14 21 43 32 77 32c85 0 124 -69 124 -134c0 -77 -56 -142 -155 -142c-100 0 -156 65 -156 142h103c0 -31 20 -57 53 -57c32 0 53 26 53 58c0 30 -19 57 -55 57c-23 0 -37 -11 -47 -30h-97z" />
    <glyph glyph-name="five.numerator" horiz-adv-x="420" 
d="M65 476v224h279v-78h-179v-72c14 21 43 32 77 32c85 0 124 -69 124 -134c0 -77 -56 -142 -155 -142c-100 0 -156 65 -156 142h103c0 -31 20 -57 53 -57c32 0 53 26 53 58c0 30 -19 57 -55 57c-23 0 -37 -11 -47 -30h-97z" />
    <glyph glyph-name="five.plf" horiz-adv-x="635" 
d="M69 295v405h473v-126h-324v-156c28 43 86 64 147 64c147 0 224 -120 224 -242c0 -139 -101 -255 -268 -255s-268 116 -268 253h157c0 -65 43 -119 110 -119c69 0 112 55 112 121c0 63 -41 119 -113 119c-45 0 -78 -22 -99 -64h-151z" />
    <glyph glyph-name="five.plf.smcp" horiz-adv-x="584" 
d="M86 235v325h395v-109h-261v-112c22 32 67 48 116 48c121 0 179 -99 179 -194c0 -112 -81 -206 -221 -206s-221 94 -221 205h139c0 -48 31 -87 82 -87s82 40 82 88s-30 89 -84 89c-34 0 -58 -17 -73 -47h-133z" />
    <glyph glyph-name="five.smcp" horiz-adv-x="569" 
d="M77 235v325h394v-109h-260v-112c22 32 67 48 116 48c120 0 179 -98 179 -193c0 -112 -81 -207 -221 -207s-222 94 -222 205h140c0 -48 31 -87 81 -87c51 0 83 40 83 89c0 47 -30 88 -84 88c-34 0 -59 -17 -74 -47h-132z" />
    <glyph glyph-name="fiveinferior" unicode="&#x2085;" horiz-adv-x="420" 
d="M65 -39v224h279v-78h-179v-72c14 21 43 32 77 32c85 0 124 -69 124 -134c0 -77 -56 -142 -155 -142c-100 0 -156 65 -156 142h103c0 -31 20 -57 53 -57c32 0 53 26 53 58c0 30 -19 57 -55 57c-23 0 -37 -11 -47 -30h-97z" />
    <glyph glyph-name="fivesuperior" unicode="&#x2075;" horiz-adv-x="420" 
d="M65 476v224h279v-78h-179v-72c14 21 43 32 77 32c85 0 124 -69 124 -134c0 -77 -56 -142 -155 -142c-100 0 -156 65 -156 142h103c0 -31 20 -57 53 -57c32 0 53 26 53 58c0 30 -19 57 -55 57c-23 0 -37 -11 -47 -30h-97z" />
    <glyph glyph-name="florin" unicode="&#x192;" horiz-adv-x="476" 
d="M-55 -176l19 110c15 -4 28 -6 47 -6c33 0 60 6 76 64l66 376h-87l20 114h87l7 42c29 170 136 187 210 187c44 0 69 -6 85 -13l-19 -110c-15 4 -28 6 -48 6c-31 0 -64 -5 -74 -61l-9 -51h112l-20 -114h-112l-65 -370c-30 -169 -131 -187 -211 -187c-42 0 -64 5 -84 13z
" />
    <glyph glyph-name="four" unicode="4" 
d="M334 0v193h-279v507h161v-370h118v193h162v-193h84v-137h-84v-193h-162z" />
    <glyph glyph-name="four.denominator" horiz-adv-x="416" 
d="M222 0v100h-163v285h107v-197h56v100h106v-100h43v-88h-43v-100h-106z" />
    <glyph glyph-name="four.numerator" horiz-adv-x="416" 
d="M222 315v100h-163v285h107v-197h56v100h106v-100h43v-88h-43v-100h-106z" />
    <glyph glyph-name="four.plf" horiz-adv-x="611" 
d="M337 0v193h-280v507h162v-370h118v193h161v-193h85v-137h-85v-193h-161z" />
    <glyph glyph-name="four.plf.smcp" horiz-adv-x="572" 
d="M308 0v149h-231v411h144v-291h87v149h145v-149h64v-120h-64v-149h-145z" />
    <glyph glyph-name="four.smcp" horiz-adv-x="569" 
d="M305 0v149h-232v411h145v-291h87v149h144v-149h64v-120h-64v-149h-144z" />
    <glyph glyph-name="fourinferior" unicode="&#x2084;" horiz-adv-x="416" 
d="M222 -200v100h-163v285h107v-197h56v100h106v-100h43v-88h-43v-100h-106z" />
    <glyph glyph-name="foursuperior" unicode="&#x2074;" horiz-adv-x="416" 
d="M222 315v100h-163v285h107v-197h56v100h106v-100h43v-88h-43v-100h-106z" />
    <glyph glyph-name="fraction" unicode="&#x2044;" horiz-adv-x="205" 
d="M-150 0l400 754l105 -53l-400 -754z" />
    <glyph glyph-name="fsuperior" horiz-adv-x="278" 
d="M241 700v-68c-9 3 -16 4 -25 4c-19 0 -33 -5 -33 -29v-21h58v-72h-58v-199h-101v199h-44v72h44v17c0 94 55 105 102 105c29 0 45 -4 57 -8z" />
    <glyph glyph-name="g" unicode="g" horiz-adv-x="633" 
d="M303 364c-70 0 -115 -58 -115 -123c0 -67 46 -123 115 -123c68 0 115 55 115 123c0 66 -46 123 -115 123zM571 482v-479c0 -165 -86 -234 -263 -234c-198 0 -262 87 -267 194h153c5 -43 37 -81 109 -81c67 0 115 33 115 112v76c-25 -41 -77 -75 -153 -75
c-131 0 -230 102 -230 247c0 143 96 252 229 252c67 0 125 -28 154 -81v69h153z" />
    <glyph glyph-name="gbreve" unicode="&#x11f;" horiz-adv-x="633" 
d="M303 364c-70 0 -115 -58 -115 -123c0 -67 46 -123 115 -123c68 0 115 55 115 123c0 66 -46 123 -115 123zM571 482v-479c0 -165 -86 -234 -263 -234c-198 0 -262 87 -267 194h153c5 -43 37 -81 109 -81c67 0 115 33 115 112v76c-25 -41 -77 -75 -153 -75
c-131 0 -230 102 -230 247c0 143 96 252 229 252c67 0 125 -28 154 -81v69h153zM77 713h122c16 -35 46 -60 99 -60c55 0 86 27 101 60h123c-16 -105 -112 -172 -223 -172s-203 68 -222 172z" />
    <glyph glyph-name="gcircumflex" unicode="&#x11d;" horiz-adv-x="633" 
d="M303 364c-70 0 -115 -58 -115 -123c0 -67 46 -123 115 -123c68 0 115 55 115 123c0 66 -46 123 -115 123zM571 482v-479c0 -165 -86 -234 -263 -234c-198 0 -262 87 -267 194h153c5 -43 37 -81 109 -81c67 0 115 33 115 112v76c-25 -41 -77 -75 -153 -75
c-131 0 -230 102 -230 247c0 143 96 252 229 252c67 0 125 -28 154 -81v69h153zM102 608l196 157l196 -157l-80 -87l-116 93l-116 -93z" />
    <glyph glyph-name="gcommaaccent" unicode="&#x123;" horiz-adv-x="633" 
d="M571 482v-479c0 -165 -86 -234 -263 -234c-198 0 -262 87 -267 194h153c5 -43 37 -81 109 -81c67 0 115 33 115 112v76c-25 -41 -77 -75 -153 -75c-131 0 -230 102 -230 247c0 143 96 252 229 252c67 0 125 -28 154 -81v69h153zM303 118c68 0 115 55 115 123
c0 66 -46 123 -115 123c-70 0 -115 -58 -115 -123c0 -67 46 -123 115 -123zM386 626c0 -48 -36 -91 -93 -91s-97 42 -97 129c0 116 71 172 185 172v-56c-38 0 -64 -9 -81 -23s-25 -32 -27 -50c2 3 12 7 27 7c49 0 86 -40 86 -88z" />
    <glyph glyph-name="gdotaccent" unicode="&#x121;" horiz-adv-x="633" 
d="M303 364c-70 0 -115 -58 -115 -123c0 -67 46 -123 115 -123c68 0 115 55 115 123c0 66 -46 123 -115 123zM571 482v-479c0 -165 -86 -234 -263 -234c-198 0 -262 87 -267 194h153c5 -43 37 -81 109 -81c67 0 115 33 115 112v76c-25 -41 -77 -75 -153 -75
c-131 0 -230 102 -230 247c0 143 96 252 229 252c67 0 125 -28 154 -81v69h153zM199 629c0 51 42 94 95 94s95 -44 95 -94c0 -51 -42 -94 -95 -94s-95 42 -95 94z" />
    <glyph glyph-name="germandbls" unicode="&#xdf;" horiz-adv-x="593" 
d="M241 0v119c20 -5 48 -8 62 -8c49 0 96 36 96 95c0 47 -30 99 -100 99h-29v122h27c67 0 92 41 92 85c0 56 -41 85 -88 85c-57 0 -89 -42 -89 -106v-491h-158v491c0 119 76 224 243 224c132 0 248 -65 248 -195c0 -84 -49 -135 -109 -156c61 -23 120 -77 120 -175
c0 -129 -101 -202 -225 -202c-39 0 -70 7 -90 13z" />
    <glyph glyph-name="germandbls.smcp" horiz-adv-x="541" 
d="M232 0v106c13 -3 32 -6 43 -6c31 0 63 25 63 69c0 36 -22 69 -68 69h-18v109h17c46 0 64 29 64 61c0 40 -27 61 -59 61c-39 0 -61 -31 -61 -76v-393h-149v393c0 89 52 180 206 180c110 0 210 -47 210 -155c0 -74 -47 -115 -89 -128c50 -18 96 -64 96 -142
c0 -90 -61 -159 -179 -159c-32 0 -58 5 -76 11z" />
    <glyph glyph-name="grave" unicode="`" horiz-adv-x="513" 
d="M359 503l-276 128l48 106l276 -128z" />
    <glyph glyph-name="greater" unicode="&#x3e;" 
d="M572 224l-524 -178v139l323 99l-323 99v138l524 -177v-120z" />
    <glyph glyph-name="greaterequal" unicode="&#x2265;" 
d="M93 247v135l233 69l-233 69v135l427 -144v-120zM520 0h-427v122h427v-122z" />
    <glyph glyph-name="gsuperior" horiz-adv-x="421" 
d="M204 508c-33 0 -55 -26 -55 -58c0 -31 22 -58 55 -58c32 0 54 27 54 58c0 32 -22 58 -54 58zM360 586v-260c0 -95 -45 -132 -155 -132c-112 0 -154 39 -155 106h101c2 -19 18 -38 52 -38c32 0 55 17 55 56v39c-14 -25 -43 -42 -84 -42c-72 0 -126 51 -126 137
c0 82 50 140 125 140c39 0 71 -16 85 -46v40h102z" />
    <glyph glyph-name="guillemotleft" unicode="&#xab;" horiz-adv-x="512" 
d="M470 211v-133l-213 173v80l213 173v-133l-103 -80zM250 211v-133l-213 173v80l213 173v-133l-103 -80z" />
    <glyph glyph-name="guillemotright" unicode="&#xbb;" horiz-adv-x="512" 
d="M42 78v133l102 80l-102 80v133l213 -173v-80zM262 78v133l102 80l-102 80v133l213 -173v-80z" />
    <glyph glyph-name="guilsinglleft" unicode="&#x2039;" horiz-adv-x="292" 
d="M250 211v-133l-213 173v80l213 173v-133l-103 -80z" />
    <glyph glyph-name="guilsinglright" unicode="&#x203a;" horiz-adv-x="292" 
d="M42 78v133l102 80l-102 80v133l213 -173v-80z" />
    <glyph glyph-name="h" unicode="h" horiz-adv-x="597" 
d="M65 0v700h148v-288c27 50 81 82 157 82c62 0 103 -21 130 -55c30 -37 39 -85 39 -154v-285h-148v247c0 68 -21 117 -84 117s-94 -48 -94 -122v-242h-148z" />
    <glyph glyph-name="hbar" unicode="&#x127;" horiz-adv-x="597" 
d="M346 633v-122h-133v-99c27 50 81 82 157 82c62 0 103 -21 130 -55c30 -37 39 -85 39 -154v-285h-148v247c0 68 -21 117 -84 117s-94 -48 -94 -122v-242h-148v511h-65v122h65v67h148v-67h133z" />
    <glyph glyph-name="hcircumflex" unicode="&#x125;" horiz-adv-x="597" 
d="M65 0v700h148v-288c27 50 81 82 157 82c62 0 103 -21 130 -55c30 -37 39 -85 39 -154v-285h-148v247c0 68 -21 117 -84 117s-94 -48 -94 -122v-242h-148zM119 824l196 157l196 -157l-79 -88l-117 94l-116 -93z" />
    <glyph glyph-name="hsuperior" unicode="&#x2b0;" horiz-adv-x="400" 
d="M63 315v385h96v-154c15 27 44 46 88 46c30 0 54 -9 69 -26c22 -24 24 -65 24 -92v-159h-97v138c0 34 -10 55 -40 55c-29 0 -44 -21 -44 -60v-133h-96z" />
    <glyph glyph-name="hungarumlaut" unicode="&#x2dd;" horiz-adv-x="509" 
d="M259 568l125 179l106 -61l-169 -146zM64 568l125 179l106 -61l-169 -146z" />
    <glyph glyph-name="hyphen" unicode="-" horiz-adv-x="317" 
d="M285 358v-122h-253v122h253z" />
    <glyph glyph-name="i" unicode="i" horiz-adv-x="319" 
d="M83 0v482h153v-482h-153zM61 642c0 54 43 97 98 97c56 0 99 -43 99 -97c0 -53 -43 -97 -99 -97c-55 0 -98 44 -98 97z" />
    <glyph glyph-name="iacute" unicode="&#xed;" horiz-adv-x="319" 
d="M83 0v482h153v-482h-153zM322 650l-276 -128l-48 106l276 128z" />
    <glyph glyph-name="ibreve" unicode="&#x12d;" horiz-adv-x="319" 
d="M84 0v482h153v-482h-153zM-63 713h123c16 -35 46 -60 99 -60c58 0 87 30 100 60h124c-16 -105 -113 -172 -223 -172c-111 0 -204 68 -223 172z" />
    <glyph glyph-name="icircumflex" unicode="&#xee;" horiz-adv-x="319" 
d="M84 0v482h153v-482h-153zM-36 608l195 157l197 -157l-79 -87l-117 93l-116 -93z" />
    <glyph glyph-name="idieresis" unicode="&#xef;" horiz-adv-x="319" 
d="M78 0v482h152v-482h-152zM186 630c0 52 41 94 94 94s95 -42 95 -94c0 -51 -42 -93 -95 -93s-94 42 -94 93zM-55 630c0 52 42 94 95 94c52 0 95 -42 95 -94c0 -51 -42 -93 -95 -93c-54 0 -95 42 -95 93z" />
    <glyph glyph-name="igrave" unicode="&#xec;" horiz-adv-x="319" 
d="M83 0v482h153v-482h-153zM274 522l-276 128l48 106l276 -128z" />
    <glyph glyph-name="imacron" unicode="&#x12b;" horiz-adv-x="319" 
d="M84 0v482h153v-482h-153zM344 687v-115h-368v115h368z" />
    <glyph glyph-name="infinity" unicode="&#x221e;" horiz-adv-x="846" 
d="M611 503c133 0 214 -99 214 -214c0 -114 -80 -214 -215 -214c-71 0 -129 28 -187 104c-59 -76 -116 -104 -187 -104c-137 0 -215 104 -215 214c0 109 78 214 215 214c75 0 130 -32 187 -104c56 72 112 104 188 104zM607 381c-42 0 -84 -27 -121 -92
c36 -65 79 -92 121 -92c54 0 88 43 88 92c0 50 -35 92 -88 92zM238 381c-51 0 -87 -41 -87 -92c0 -50 35 -92 88 -92c41 0 83 26 121 92c-38 65 -80 92 -122 92z" />
    <glyph glyph-name="integral" unicode="&#x222b;" horiz-adv-x="327" 
d="M239 626v-715c0 -127 -58 -155 -131 -155c-34 0 -81 6 -100 12v114c18 -5 28 -6 37 -6c29 0 42 12 42 48v715c0 127 59 155 132 155c34 0 81 -6 100 -12v-114c-19 5 -29 6 -37 6c-29 0 -43 -12 -43 -48z" />
    <glyph glyph-name="iogonek" unicode="&#x12f;" horiz-adv-x="319" 
d="M255 -119l-2 -78c-26 -9 -58 -15 -91 -15c-90 0 -129 44 -129 97c0 43 26 77 79 115v482h152v-482h-55c-27 -18 -56 -39 -56 -78c0 -28 16 -53 48 -53c13 0 35 4 54 12zM90 642c0 54 43 97 98 97c54 0 98 -43 98 -97c0 -53 -43 -97 -98 -97c-56 0 -98 44 -98 97z" />
    <glyph glyph-name="isuperior" horiz-adv-x="243" 
d="M122 611c-35 0 -61 27 -61 59c0 33 27 60 61 60c33 0 60 -27 60 -60c0 -32 -26 -59 -60 -59zM71 586h101v-271h-101v271z" />
    <glyph glyph-name="itilde" unicode="&#x129;" horiz-adv-x="319" 
d="M83 0v482h153v-482h-153zM14 564l-50 92c60 36 87 38 99 38c43 0 128 -27 166 -27c15 0 32 4 81 27l46 -90c-54 -43 -104 -45 -115 -45c-38 0 -119 26 -155 26c-23 0 -47 -11 -72 -21z" />
    <glyph glyph-name="j" unicode="j" horiz-adv-x="322" 
d="M240 482v-557c0 -127 -59 -155 -132 -155c-34 0 -81 6 -100 12v114c18 -5 28 -6 37 -6c29 0 42 12 42 48v544h153zM65 642c0 54 43 97 98 97c56 0 99 -43 99 -97c0 -53 -43 -97 -99 -97c-55 0 -98 44 -98 97z" />
    <glyph glyph-name="jcircumflex" unicode="&#x135;" horiz-adv-x="322" 
d="M240 482v-557c0 -127 -59 -155 -132 -155c-34 0 -81 6 -100 12v114c18 -5 28 -6 37 -6c29 0 42 12 42 48v544h153zM-32 646l196 157l196 -157l-80 -87l-116 93l-116 -93z" />
    <glyph glyph-name="jsuperior" unicode="&#x2b2;" horiz-adv-x="248" 
d="M177 586v-299c0 -77 -36 -93 -86 -93c-21 0 -49 3 -62 7v72c9 -2 15 -3 22 -3c17 0 25 7 25 26v290h101zM65 670c0 33 26 60 61 60c34 0 61 -27 61 -60c0 -32 -27 -59 -61 -59c-35 0 -61 27 -61 59z" />
    <glyph glyph-name="k" unicode="k" horiz-adv-x="554" 
d="M549 482l-188 -241l187 -241h-182l-148 202v-202h-153v700h153v-422l149 204h182z" />
    <glyph glyph-name="kcommaaccent" unicode="&#x137;" horiz-adv-x="554" 
d="M367 482h182l-188 -241l187 -241h-182l-148 202v-202h-153v700h153v-422zM197 -93c0 42 32 77 79 77s83 -36 83 -110c0 -97 -61 -147 -159 -147v48c33 0 55 8 69 20c15 11 22 27 23 42c-2 -2 -9 -6 -23 -6c-41 0 -72 34 -72 76z" />
    <glyph glyph-name="kgreenlandic" unicode="&#x138;" horiz-adv-x="554" 
d="M549 482l-188 -241l187 -241h-182l-148 202v-202h-153v482h153v-204l149 204h182z" />
    <glyph glyph-name="ksuperior" horiz-adv-x="386" 
d="M355 586l-100 -136l100 -135h-119l-72 110v-110h-101v385h101v-225l73 111h118z" />
    <glyph glyph-name="l" unicode="l" horiz-adv-x="283" 
d="M65 0v700h153v-700h-153z" />
    <glyph glyph-name="lacute" unicode="&#x13a;" horiz-adv-x="283" 
d="M65 0v700h153v-700h-153zM304 875l-276 -128l-48 106l276 128z" />
    <glyph glyph-name="lcaron" unicode="&#x13e;" horiz-adv-x="492" 
d="M65 0v700h153v-700h-153zM280 643c0 52 38 97 99 97c60 0 103 -45 103 -137c0 -118 -70 -183 -198 -183v59c41 0 68 10 86 25s27 34 29 53c-2 -3 -12 -7 -29 -7c-53 0 -90 42 -90 93z" />
    <glyph glyph-name="lcommaaccent" unicode="&#x13c;" horiz-adv-x="283" 
d="M65 0v700h153v-700h-153zM61 -93c0 42 32 77 79 77s83 -36 83 -110c0 -97 -61 -147 -159 -147v48c33 0 55 8 69 20c15 11 22 27 23 42c-2 -2 -9 -6 -23 -6c-41 0 -72 34 -72 76z" />
    <glyph glyph-name="ldot" unicode="&#x140;" horiz-adv-x="463" 
d="M65 0v700h153v-700h-153zM254 312c0 55 44 100 101 100s101 -45 101 -100s-44 -100 -101 -100s-101 45 -101 100z" />
    <glyph glyph-name="less" unicode="&#x3c;" 
d="M566 46l-525 178v120l525 177v-138l-324 -99l324 -99v-139z" />
    <glyph glyph-name="lessequal" unicode="&#x2264;" 
d="M520 382v-135l-427 144v120l427 144v-135l-233 -69zM520 0h-427v122h427v-122z" />
    <glyph glyph-name="logicalnot" unicode="&#xac;" 
d="M390 134v179h-297v122h427v-301h-130z" />
    <glyph glyph-name="longs" unicode="&#x17f;" horiz-adv-x="380" 
d="M368 698v-110c-16 4 -28 6 -49 6c-32 0 -64 -5 -64 -61v-533h-152v368h-87v114h87v42c0 174 107 187 175 187c46 0 72 -6 90 -13z" />
    <glyph glyph-name="lozenge" unicode="&#x25ca;" horiz-adv-x="558" 
d="M193 0l-190 396l190 398h172l189 -398l-188 -396h-173zM167 396l112 -246l112 246l-112 246z" />
    <glyph glyph-name="lslash" unicode="&#x142;" horiz-adv-x="290" 
d="M66 0v263l-63 -29v123l63 29v314h164v-243l66 31v-123l-66 -31v-334h-164z" />
    <glyph glyph-name="lsuperior" horiz-adv-x="227" 
d="M63 315v385h101v-385h-101z" />
    <glyph glyph-name="m" unicode="m" horiz-adv-x="878" 
d="M818 0h-147v260c0 65 -22 104 -74 104c-46 0 -81 -29 -81 -122v-242h-148v261c0 65 -21 103 -73 103c-46 0 -82 -30 -82 -125v-239h-148v482h148v-70c21 43 66 82 143 82c72 0 121 -34 142 -87c24 46 71 87 157 87c134 0 163 -100 163 -197v-297z" />
    <glyph glyph-name="macron" unicode="&#xaf;" horiz-adv-x="519" 
d="M443 820v-115h-368v115h368z" />
    <glyph glyph-name="minus" unicode="&#x2212;" 
d="M520 223h-427v123h427v-123z" />
    <glyph glyph-name="minus.denominator" horiz-adv-x="410" 
d="M327 118h-244v77h244v-77z" />
    <glyph glyph-name="minus.numerator" horiz-adv-x="410" 
d="M327 433h-244v77h244v-77z" />
    <glyph glyph-name="minusinferior" horiz-adv-x="410" 
d="M327 -82h-244v77h244v-77z" />
    <glyph glyph-name="minussuperior" unicode="&#x207b;" horiz-adv-x="410" 
d="M327 433h-244v77h244v-77z" />
    <glyph glyph-name="msuperior" horiz-adv-x="559" 
d="M499 315h-96v143c0 32 -11 50 -36 50c-22 0 -38 -14 -38 -58v-135h-96v143c0 32 -10 50 -34 50c-23 0 -40 -15 -40 -60v-133h-96v271h96v-40c12 24 38 46 82 46c41 0 67 -19 78 -48c16 29 44 48 89 48c74 0 91 -53 91 -113v-164z" />
    <glyph glyph-name="mu" unicode="&#x3bc;" 
d="M65 -218v700h152v-249c0 -68 22 -115 85 -115s93 48 93 122v242h153v-482h-153v69c-25 -46 -73 -74 -137 -79c-15 0 -29 2 -41 6v-214h-152z" />
    <glyph glyph-name="multiply" unicode="&#xd7;" 
d="M303 374l108 108l92 -92l-108 -108l106 -105l-87 -86l-105 104l-108 -107l-92 92l108 107l-105 105l86 87z" />
    <glyph glyph-name="n" unicode="n" horiz-adv-x="607" 
d="M65 0v482h153v-70c27 52 83 82 159 82c66 0 108 -23 134 -55c30 -37 38 -84 38 -153v-286h-153v247c0 68 -21 117 -84 117s-94 -48 -94 -122v-242h-153z" />
    <glyph glyph-name="nacute" unicode="&#x144;" horiz-adv-x="607" 
d="M65 0v482h153v-70c27 52 83 82 159 82c66 0 108 -23 134 -55c30 -37 38 -84 38 -153v-286h-153v247c0 68 -21 117 -84 117s-94 -48 -94 -122v-242h-153zM466 637l-276 -128l-49 106l276 128z" />
    <glyph glyph-name="napostrophe" unicode="&#x149;" horiz-adv-x="607" 
d="M218 0h-153v482h153v-70c27 52 83 82 159 82c66 0 108 -23 134 -55c30 -37 38 -84 38 -153v-286h-153v247c0 68 -21 117 -84 117s-94 -48 -94 -122v-242zM55 718c0 45 35 82 85 82c51 0 88 -39 88 -117c0 -101 -62 -157 -169 -157v52c35 0 58 8 74 20c15 13 23 29 25 45
c-3 -2 -11 -6 -25 -6c-44 0 -78 36 -78 81z" />
    <glyph glyph-name="ncaron" unicode="&#x148;" horiz-adv-x="607" 
d="M218 0h-153v482h153v-70c27 52 83 82 159 82c66 0 108 -23 134 -55c30 -37 38 -84 38 -153v-286h-153v247c0 68 -21 117 -84 117s-94 -48 -94 -122v-242zM313 558l-182 157l72 88l110 -98l110 98l73 -88z" />
    <glyph glyph-name="ncommaaccent" unicode="&#x146;" horiz-adv-x="607" 
d="M218 0h-153v482h153v-70c27 52 83 82 159 82c66 0 108 -23 134 -55c30 -37 38 -84 38 -153v-286h-153v247c0 68 -21 117 -84 117s-94 -48 -94 -122v-242zM233 -93c0 42 32 77 79 77s83 -36 83 -110c0 -97 -61 -147 -159 -147v48c33 0 55 8 69 20c15 11 22 27 23 42
c-2 -2 -9 -6 -23 -6c-41 0 -72 34 -72 76z" />
    <glyph glyph-name="nine" unicode="9" 
d="M306 714c167 0 267 -116 267 -253c0 -55 -16 -104 -43 -146l-202 -315h-182l140 209c-152 1 -248 120 -248 252c0 136 101 253 268 253zM306 579c-67 0 -111 -54 -111 -119c0 -66 44 -119 111 -119s111 53 111 119c0 65 -44 119 -111 119z" />
    <glyph glyph-name="nine.denominator" horiz-adv-x="402" 
d="M202 393c98 0 156 -65 156 -143c0 -30 -9 -57 -24 -80l-111 -170h-119l74 110c-83 9 -132 67 -132 140c0 78 57 143 156 143zM202 307c-32 0 -53 -25 -53 -57c0 -31 21 -56 53 -56s53 25 53 56c0 32 -21 57 -53 57z" />
    <glyph glyph-name="nine.numerator" horiz-adv-x="402" 
d="M202 708c98 0 156 -65 156 -143c0 -30 -9 -57 -24 -80l-111 -170h-119l74 110c-83 9 -132 67 -132 140c0 78 57 143 156 143zM202 622c-32 0 -53 -25 -53 -57c0 -31 21 -56 53 -56s53 25 53 56c0 32 -21 57 -53 57z" />
    <glyph glyph-name="nine.plf" horiz-adv-x="600" 
d="M301 714c167 0 268 -116 268 -253c0 -54 -16 -104 -43 -146l-202 -315h-182l140 210c-150 0 -248 116 -248 251c0 136 100 253 267 253zM302 579c-68 0 -112 -54 -112 -119c0 -66 44 -119 112 -119c67 0 110 53 110 119c0 65 -43 119 -110 119z" />
    <glyph glyph-name="nine.plf.smcp" horiz-adv-x="557" 
d="M280 571c139 0 221 -93 221 -205c0 -44 -13 -84 -34 -117l-162 -249h-162l109 163c-121 11 -194 95 -194 202c0 113 82 206 222 206zM280 453c-50 0 -82 -39 -82 -87c0 -49 32 -88 82 -88c49 0 82 39 82 88c0 48 -33 87 -82 87z" />
    <glyph glyph-name="nine.smcp" horiz-adv-x="568" 
d="M283 453c-50 0 -82 -39 -82 -87c0 -49 32 -88 82 -88s82 39 82 88c0 48 -32 87 -82 87zM283 571c139 0 221 -93 221 -205c0 -44 -13 -84 -34 -117l-162 -249h-162l109 163c-121 11 -194 95 -194 202c0 113 82 206 222 206z" />
    <glyph glyph-name="nineinferior" unicode="&#x2089;" horiz-adv-x="402" 
d="M202 193c98 0 156 -65 156 -143c0 -30 -9 -57 -24 -80l-111 -170h-119l74 110c-83 9 -132 67 -132 140c0 78 57 143 156 143zM202 107c-32 0 -53 -25 -53 -57c0 -31 21 -56 53 -56s53 25 53 56c0 32 -21 57 -53 57z" />
    <glyph glyph-name="ninesuperior" unicode="&#x2079;" horiz-adv-x="402" 
d="M202 708c98 0 156 -65 156 -143c0 -30 -9 -57 -24 -80l-111 -170h-119l74 110c-83 9 -132 67 -132 140c0 78 57 143 156 143zM202 622c-32 0 -53 -25 -53 -57c0 -31 21 -56 53 -56s53 25 53 56c0 32 -21 57 -53 57z" />
    <glyph glyph-name="notequal" unicode="&#x2260;" 
d="M520 132h-213l-44 -104h-138l45 104h-77v122h129l26 59h-155v122h207l45 104h137l-44 -104h82v-122h-135l-26 -59h161v-122z" />
    <glyph glyph-name="nsuperior" unicode="&#x207f;" horiz-adv-x="409" 
d="M63 315v271h101v-40c14 29 46 46 89 46c32 0 58 -10 73 -27c19 -21 23 -50 23 -90v-160h-101v138c0 34 -10 55 -40 55c-29 0 -44 -21 -44 -60v-133h-101z" />
    <glyph glyph-name="ntilde" unicode="&#xf1;" horiz-adv-x="607" 
d="M65 0v482h153v-70c27 52 83 82 159 82c66 0 108 -23 134 -55c30 -37 38 -84 38 -153v-286h-153v247c0 68 -21 117 -84 117s-94 -48 -94 -122v-242h-153zM155 584l-50 91c60 36 86 38 98 38c44 0 129 -27 169 -27c15 0 28 4 78 27l46 -89c-55 -43 -99 -45 -111 -45
c-42 0 -123 26 -158 26c-23 0 -48 -10 -72 -21z" />
    <glyph glyph-name="numbersign" unicode="#" horiz-adv-x="590" 
d="M302 0l24 180h-102l-26 -180h-111l25 180h-86v108h101l17 124h-88v108h103l25 180h112l-25 -180h103l25 180h111l-25 -180h80v-108h-95l-17 -124h82v-108h-97l-25 -180h-111zM256 412l-17 -124h103l17 124h-103z" />
    <glyph glyph-name="o" unicode="o" horiz-adv-x="599" 
d="M300 -13c-167 0 -268 116 -268 254s101 254 268 254s267 -116 267 -254s-100 -254 -267 -254zM299 118c70 0 116 55 116 123c0 67 -46 123 -116 123c-69 0 -114 -56 -114 -123c0 -68 45 -123 114 -123z" />
    <glyph glyph-name="oacute" unicode="&#xf3;" horiz-adv-x="599" 
d="M300 -13c-167 0 -268 116 -268 254s101 254 268 254s267 -116 267 -254s-100 -254 -267 -254zM299 118c70 0 116 55 116 123c0 67 -46 123 -116 123c-69 0 -114 -56 -114 -123c0 -68 45 -123 114 -123zM439 637l-276 -128l-49 106l276 128z" />
    <glyph glyph-name="obreve" unicode="&#x14f;" horiz-adv-x="599" 
d="M300 -13c-167 0 -268 116 -268 254s101 254 268 254s267 -116 267 -254s-100 -254 -267 -254zM299 118c70 0 116 55 116 123c0 67 -46 123 -116 123c-69 0 -114 -56 -114 -123c0 -68 45 -123 114 -123zM77 713h123c15 -35 46 -60 99 -60c58 0 87 30 100 60h123
c-15 -105 -112 -172 -222 -172c-111 0 -204 68 -223 172z" />
    <glyph glyph-name="ocircumflex" unicode="&#xf4;" horiz-adv-x="599" 
d="M300 -13c-167 0 -268 116 -268 254s101 254 268 254s267 -116 267 -254s-100 -254 -267 -254zM299 118c70 0 116 55 116 123c0 67 -46 123 -116 123c-69 0 -114 -56 -114 -123c0 -68 45 -123 114 -123zM104 608l196 157l196 -157l-79 -87l-117 93l-116 -93z" />
    <glyph glyph-name="odieresis" unicode="&#xf6;" horiz-adv-x="599" 
d="M178 537c-54 0 -95 42 -95 93c0 52 42 94 95 94c52 0 94 -42 94 -94c0 -51 -41 -93 -94 -93zM324 630c0 52 41 94 94 94s95 -42 95 -94c0 -51 -42 -93 -95 -93s-94 42 -94 93zM299 118c70 0 116 55 116 123c0 67 -46 123 -116 123c-69 0 -114 -56 -114 -123
c0 -68 45 -123 114 -123zM300 -13c-167 0 -268 116 -268 254s101 254 268 254s267 -116 267 -254s-100 -254 -267 -254z" />
    <glyph glyph-name="oe" unicode="&#x153;" horiz-adv-x="958" 
d="M914 204h-345c1 -61 30 -107 105 -107c54 0 79 24 90 55h150c-17 -95 -106 -165 -238 -165c-82 0 -145 27 -188 71c-45 -43 -109 -71 -190 -71c-164 0 -266 116 -266 254s102 254 266 254c81 0 144 -28 189 -71c43 44 105 71 184 71c152 0 249 -99 249 -225
c0 -13 -1 -37 -6 -66zM670 387c-57 0 -100 -34 -100 -95h199c0 58 -40 95 -99 95zM299 118c69 0 116 53 116 123c0 69 -47 123 -116 123s-114 -56 -114 -123c0 -68 45 -123 114 -123z" />
    <glyph glyph-name="ogonek" unicode="&#x2db;" horiz-adv-x="477" 
d="M350 -119l-2 -78c-26 -9 -58 -15 -91 -15c-91 0 -130 44 -130 97c0 43 26 77 79 115h98c-27 -18 -56 -39 -56 -78c0 -28 16 -53 48 -53c13 0 35 4 54 12z" />
    <glyph glyph-name="ograve" unicode="&#xf2;" horiz-adv-x="599" 
d="M300 -13c-167 0 -268 116 -268 254s101 254 268 254s267 -116 267 -254s-100 -254 -267 -254zM299 118c70 0 116 55 116 123c0 67 -46 123 -116 123c-69 0 -114 -56 -114 -123c0 -68 45 -123 114 -123zM423 509l-276 128l48 106l276 -128z" />
    <glyph glyph-name="ohungarumlaut" unicode="&#x151;" horiz-adv-x="599" 
d="M300 -13c-167 0 -268 116 -268 254s101 254 268 254s267 -116 267 -254s-100 -254 -267 -254zM185 547l-62 28l125 179l106 -61zM185 241c0 -68 45 -123 114 -123c70 0 116 55 116 123c0 67 -46 123 -116 123c-69 0 -114 -56 -114 -123zM549 693l-169 -146l-62 28
l125 179z" />
    <glyph glyph-name="omacron" unicode="&#x14d;" horiz-adv-x="599" 
d="M300 -13c-167 0 -268 116 -268 254s101 254 268 254s267 -116 267 -254s-100 -254 -267 -254zM299 118c70 0 116 55 116 123c0 67 -46 123 -116 123c-69 0 -114 -56 -114 -123c0 -68 45 -123 114 -123zM484 687v-115h-368v115h368z" />
    <glyph glyph-name="one" unicode="1" 
d="M117 463v114c135 0 165 39 165 123h143v-700h-164v463h-144z" />
    <glyph glyph-name="one.denominator" horiz-adv-x="298" 
d="M46 243v72c77 0 95 24 95 70h92v-385h-108v243h-79z" />
    <glyph glyph-name="one.numerator" horiz-adv-x="298" 
d="M46 558v72c77 0 95 24 95 70h92v-385h-108v243h-79z" />
    <glyph glyph-name="one.plf" horiz-adv-x="405" 
d="M29 463v114c136 0 166 39 166 123h143v-700h-165v463h-144z" />
    <glyph glyph-name="one.plf.smcp" horiz-adv-x="403" 
d="M57 361v99c111 0 136 33 136 100h125v-560h-146v361h-115z" />
    <glyph glyph-name="one.smcp" horiz-adv-x="569" 
d="M125 361v99c111 0 136 33 136 100h126v-560h-147v361h-115z" />
    <glyph glyph-name="oneinferior" unicode="&#x2081;" horiz-adv-x="298" 
d="M46 43v72c77 0 95 24 95 70h92v-385h-108v243h-79z" />
    <glyph glyph-name="onesuperior" unicode="&#xb9;" horiz-adv-x="298" 
d="M46 558v72c77 0 95 24 95 70h92v-385h-108v243h-79z" />
    <glyph glyph-name="ordfeminine" unicode="&#xaa;" horiz-adv-x="635" 
d="M417 482h153v-482h-153v68c-24 -44 -80 -80 -154 -80c-128 0 -228 109 -228 253s100 253 228 253c71 0 128 -34 154 -81v69zM302 118c69 0 115 56 115 123c0 66 -46 123 -115 123s-115 -57 -115 -123c0 -67 46 -123 115 -123z" />
    <glyph glyph-name="ordfeminine.smcp" horiz-adv-x="577" 
d="M359 393h143v-393h-143v57c-18 -35 -64 -67 -126 -67c-101 0 -180 85 -180 206s79 206 181 206c66 0 110 -36 125 -67v58zM277 110c49 0 82 39 82 86s-33 87 -82 87c-48 0 -81 -40 -81 -87s33 -86 81 -86z" />
    <glyph glyph-name="ordmasculine" unicode="&#xba;" horiz-adv-x="599" 
d="M300 -13c-167 0 -268 116 -268 254s101 254 268 254s267 -116 267 -254s-100 -254 -267 -254zM299 118c70 0 116 55 116 123c0 67 -46 123 -116 123c-69 0 -114 -56 -114 -123c0 -68 45 -123 114 -123z" />
    <glyph glyph-name="ordmasculine.smcp" horiz-adv-x="548" 
d="M274 -11c-142 0 -224 95 -224 208s82 207 224 207s224 -94 224 -207s-82 -208 -224 -208zM274 110c50 0 81 38 81 86s-31 87 -81 87c-49 0 -81 -39 -81 -87s32 -86 81 -86z" />
    <glyph glyph-name="oslash" unicode="&#xf8;" horiz-adv-x="599" 
d="M121 -46l30 70c-76 45 -119 126 -119 216c0 139 102 255 265 255c21 0 38 -2 55 -5l34 79l90 -38l-31 -73c78 -45 122 -126 122 -217c0 -138 -101 -254 -266 -254c-22 0 -39 2 -56 5l-33 -79zM415 241c0 31 -10 60 -28 82l-88 -205c70 0 116 55 116 123zM185 241
c0 -31 9 -59 25 -80l88 203c-69 -1 -113 -57 -113 -123z" />
    <glyph glyph-name="oslashacute" unicode="&#x1ff;" horiz-adv-x="599" 
d="M461 637l-276 -128l-48 106l276 128zM121 -46l30 70c-76 45 -119 126 -119 216c0 139 102 255 265 255c21 0 38 -2 55 -5l34 79l90 -38l-31 -73c78 -45 122 -126 122 -217c0 -138 -101 -254 -266 -254c-22 0 -39 2 -56 5l-33 -79zM415 241c0 31 -10 60 -28 82l-88 -205
c70 0 116 55 116 123zM185 241c0 -31 9 -59 25 -80l88 203c-69 -1 -113 -57 -113 -123z" />
    <glyph glyph-name="osuperior" horiz-adv-x="402" 
d="M201 308c-99 0 -156 65 -156 143c0 77 57 143 156 143c98 0 156 -65 156 -143c0 -79 -58 -143 -156 -143zM201 392c33 0 54 26 54 58c0 33 -21 58 -54 58s-55 -25 -55 -58c0 -32 22 -58 55 -58z" />
    <glyph glyph-name="otilde" unicode="&#xf5;" horiz-adv-x="599" 
d="M300 -13c-167 0 -268 116 -268 254s101 254 268 254s267 -116 267 -254s-100 -254 -267 -254zM299 118c70 0 116 55 116 123c0 67 -46 123 -116 123c-69 0 -114 -56 -114 -123c0 -68 45 -123 114 -123zM148 571l-50 91c60 36 87 38 99 38c43 0 128 -27 166 -27
c15 0 32 4 81 27l46 -89c-54 -43 -104 -45 -115 -45c-38 0 -119 26 -155 26c-23 0 -47 -11 -72 -21z" />
    <glyph glyph-name="p" unicode="p" horiz-adv-x="637" 
d="M218 482v-69c24 44 80 81 155 81c128 0 228 -109 228 -253s-100 -253 -228 -253c-75 0 -131 37 -155 81v-287h-153v700h153zM333 364c-69 0 -115 -56 -115 -123s46 -123 115 -123s115 56 115 123s-46 123 -115 123z" />
    <glyph glyph-name="paragraph" unicode="&#xb6;" horiz-adv-x="679" 
d="M238 -166v464c-127 0 -224 76 -224 208c0 160 143 211 246 211h363v-107h-56v-776h-120v776h-88v-776h-121z" />
    <glyph glyph-name="parenleft" unicode="(" horiz-adv-x="399" 
d="M362 775v-138c-80 0 -129 -63 -129 -138v-454c0 -75 49 -138 129 -138v-138c-176 0 -286 126 -286 276v454c0 150 110 276 286 276z" />
    <glyph glyph-name="parenleft.denominator" horiz-adv-x="283" 
d="M234 418v-88c-45 0 -71 -34 -71 -75v-213c0 -40 26 -74 71 -74v-89c-108 0 -174 74 -174 163v213c0 89 66 163 174 163z" />
    <glyph glyph-name="parenleft.numerator" horiz-adv-x="283" 
d="M234 733v-88c-45 0 -71 -34 -71 -75v-213c0 -40 26 -74 71 -74v-89c-108 0 -174 74 -174 163v213c0 89 66 163 174 163z" />
    <glyph glyph-name="parenleft.smcp" horiz-adv-x="376" 
d="M322 611v-126c-64 0 -103 -50 -103 -110v-318c0 -59 39 -109 103 -109v-126c-154 0 -248 107 -248 235v318c0 128 94 236 248 236z" />
    <glyph glyph-name="parenleftinferior" unicode="&#x208d;" horiz-adv-x="283" 
d="M234 218v-88c-45 0 -71 -34 -71 -75v-213c0 -40 26 -74 71 -74v-89c-108 0 -174 74 -174 163v213c0 89 66 163 174 163z" />
    <glyph glyph-name="parenleftsuperior" unicode="&#x207d;" horiz-adv-x="283" 
d="M234 733v-88c-45 0 -71 -34 -71 -75v-213c0 -40 26 -74 71 -74v-89c-108 0 -174 74 -174 163v213c0 89 66 163 174 163z" />
    <glyph glyph-name="parenright" unicode=")" horiz-adv-x="399" 
d="M36 637v138c177 0 287 -126 287 -276v-454c0 -150 -110 -276 -287 -276v138c81 0 130 63 130 138v454c0 75 -49 138 -130 138z" />
    <glyph glyph-name="parenright.denominator" horiz-adv-x="283" 
d="M49 330v88c108 0 173 -74 173 -163v-213c0 -89 -65 -163 -173 -163v89c44 0 71 34 71 74v213c0 41 -27 75 -71 75z" />
    <glyph glyph-name="parenright.numerator" horiz-adv-x="283" 
d="M49 645v88c108 0 173 -74 173 -163v-213c0 -89 -65 -163 -173 -163v89c44 0 71 34 71 74v213c0 41 -27 75 -71 75z" />
    <glyph glyph-name="parenright.smcp" horiz-adv-x="376" 
d="M54 485v126c154 0 248 -108 248 -236v-318c0 -128 -94 -235 -248 -235v126c65 0 103 50 103 109v318c0 60 -38 110 -103 110z" />
    <glyph glyph-name="parenrightinferior" unicode="&#x208e;" horiz-adv-x="283" 
d="M49 130v88c108 0 173 -74 173 -163v-213c0 -89 -65 -163 -173 -163v89c44 0 71 34 71 74v213c0 41 -27 75 -71 75z" />
    <glyph glyph-name="parenrightsuperior" unicode="&#x207e;" horiz-adv-x="283" 
d="M49 645v88c108 0 173 -74 173 -163v-213c0 -89 -65 -163 -173 -163v89c44 0 71 34 71 74v213c0 41 -27 75 -71 75z" />
    <glyph glyph-name="partialdiff" unicode="&#x2202;" 
d="M280 451c56 0 100 -17 132 -37c-6 141 -39 184 -103 184c-66 0 -102 -47 -102 -119h-162c0 124 83 239 261 239c152 0 265 -83 265 -374c0 -273 -99 -364 -265 -364c-167 0 -264 92 -264 229c0 141 102 242 238 242zM311 326c-79 0 -112 -57 -112 -113
c0 -55 31 -105 102 -105c61 0 110 36 113 183c-31 24 -69 35 -103 35z" />
    <glyph glyph-name="period" unicode="." horiz-adv-x="302" 
d="M50 91c0 55 44 100 101 100s101 -45 101 -100s-44 -100 -101 -100s-101 45 -101 100z" />
    <glyph glyph-name="periodcentered" unicode="&#xb7;" horiz-adv-x="296" 
d="M47 312c0 55 44 100 101 100s101 -45 101 -100s-44 -100 -101 -100s-101 45 -101 100z" />
    <glyph glyph-name="pi" unicode="&#x3c0;" 
d="M592 482v-115h-70v-367h-153v367h-125v-367h-153v367h-70v115h571z" />
    <glyph glyph-name="plus" unicode="+" 
d="M372 71h-131v152h-148v123h148v152h131v-152h148v-123h-148v-152z" />
    <glyph glyph-name="plus.denominator" horiz-adv-x="410" 
d="M245 34h-80v84h-82v77h82v84h80v-84h82v-77h-82v-84z" />
    <glyph glyph-name="plus.numerator" horiz-adv-x="410" 
d="M245 349h-80v84h-82v77h82v84h80v-84h82v-77h-82v-84z" />
    <glyph glyph-name="plusinferior" horiz-adv-x="410" 
d="M245 -166h-80v84h-82v77h82v84h80v-84h82v-77h-82v-84z" />
    <glyph glyph-name="plusminus" unicode="&#xb1;" 
d="M371 219h-130v153h-149v122h149v153h130v-153h149v-122h-149v-153zM520 0h-428v122h428v-122z" />
    <glyph glyph-name="plussuperior" unicode="&#x207a;" horiz-adv-x="410" 
d="M245 349h-80v84h-82v77h82v84h80v-84h82v-77h-82v-84z" />
    <glyph glyph-name="product" unicode="&#x220f;" horiz-adv-x="700" 
d="M703 794v-141h-70v-871h-162v871h-242v-871h-162v871h-70v141h706z" />
    <glyph glyph-name="psuperior" horiz-adv-x="423" 
d="M164 586v-40c12 25 44 46 86 46c70 0 124 -58 124 -142c0 -83 -54 -142 -124 -142c-45 0 -76 25 -86 47v-154h-101v385h101zM219 508c-33 0 -55 -26 -55 -58c0 -31 22 -58 55 -58c32 0 54 27 54 58c0 32 -22 58 -54 58z" />
    <glyph glyph-name="q" unicode="q" horiz-adv-x="637" 
d="M419 413v69h152v-700h-152v287c-24 -42 -78 -81 -155 -81c-128 0 -228 109 -228 253s100 253 228 253c77 0 131 -39 155 -81zM304 364c-69 0 -115 -56 -115 -123s46 -123 115 -123s115 56 115 123s-46 123 -115 123z" />
    <glyph glyph-name="qsuperior" horiz-adv-x="423" 
d="M258 546v40h102v-385h-102v154c-10 -22 -41 -47 -86 -47c-69 0 -124 59 -124 142c0 84 55 142 124 142c42 0 74 -21 86 -46zM204 508c-32 0 -55 -26 -55 -58c0 -31 23 -58 55 -58s54 27 54 58c0 32 -22 58 -54 58z" />
    <glyph glyph-name="question" unicode="?" horiz-adv-x="542" 
d="M176 218c1 89 18 136 88 184c41 28 85 60 85 116c0 51 -37 75 -82 75c-50 0 -88 -29 -88 -102h-160c0 127 89 224 244 224c130 0 244 -68 244 -198c0 -101 -70 -147 -107 -177c-54 -42 -64 -66 -64 -122h-160zM152 87c0 56 45 102 104 102c58 0 104 -46 104 -102
s-46 -103 -104 -103c-59 0 -104 47 -104 103z" />
    <glyph glyph-name="question.smcp" horiz-adv-x="501" 
d="M168 189c1 68 17 105 75 143c30 19 63 41 63 82c0 36 -25 53 -56 53c-35 0 -61 -21 -61 -74h-149c0 94 63 180 206 180c109 0 207 -50 207 -159c0 -84 -60 -119 -87 -142c-32 -26 -46 -40 -46 -83h-152zM152 78c0 50 40 91 92 91s93 -41 93 -91s-41 -91 -93 -91
s-92 41 -92 91z" />
    <glyph glyph-name="questiondown" unicode="&#xbf;" horiz-adv-x="542" 
d="M366 483c-1 -86 -18 -134 -88 -183c-38 -27 -85 -59 -85 -116c0 -51 37 -75 82 -75c50 0 88 29 88 101h160c0 -127 -89 -223 -244 -223c-131 0 -244 68 -244 197c0 102 70 148 107 178c54 42 64 66 64 121h160zM390 615c0 -56 -45 -103 -104 -103c-58 0 -104 47 -104 103
s46 103 104 103c59 0 104 -47 104 -103z" />
    <glyph glyph-name="questiondown.smcp" horiz-adv-x="501" 
d="M333 373c0 -68 -14 -102 -74 -142c-30 -20 -63 -43 -63 -84c0 -35 24 -52 56 -52c35 0 60 21 60 75h149c0 -95 -63 -181 -205 -181c-110 0 -207 51 -207 159c0 80 53 116 87 142c35 27 46 46 46 83h151zM349 484c0 -50 -39 -91 -91 -91s-93 41 -93 91c0 49 41 91 93 91
s91 -42 91 -91z" />
    <glyph glyph-name="quotedbl" unicode="&#x22;" horiz-adv-x="418" 
d="M81 432l-32 154v125h128v-125l-32 -154h-64zM273 432l-33 154v125h129v-125l-33 -154h-63z" />
    <glyph glyph-name="quotedblbase" unicode="&#x201e;" horiz-adv-x="523" 
d="M46 76c0 52 39 96 99 96s103 -44 103 -137c0 -118 -69 -183 -197 -183v59c40 0 68 10 86 25s27 34 29 53c-2 -3 -12 -7 -29 -7c-53 0 -91 42 -91 94zM271 76c0 52 39 96 99 96s103 -44 103 -137c0 -119 -71 -183 -197 -183v59c40 0 68 10 86 25s26 34 29 53
c-3 -3 -13 -7 -29 -7c-52 0 -91 42 -91 94z" />
    <glyph glyph-name="quotedblleft" unicode="&#x201c;" horiz-adv-x="523" 
d="M477 516c0 -52 -39 -96 -99 -96s-103 44 -103 137c0 119 70 183 197 183v-60c-40 0 -68 -10 -86 -24c-15 -12 -27 -32 -29 -53c2 2 12 7 30 7c51 0 90 -42 90 -94zM252 516c0 -53 -40 -96 -99 -96c-60 0 -103 44 -103 137c0 121 73 183 197 183v-60
c-40 0 -68 -10 -86 -24c-14 -11 -26 -31 -29 -53c9 5 17 7 28 7c53 0 92 -42 92 -94z" />
    <glyph glyph-name="quotedblright" unicode="&#x201d;" horiz-adv-x="523" 
d="M46 644c0 52 39 96 99 96s103 -44 103 -137c0 -118 -69 -183 -197 -183v59c40 0 68 10 86 25s27 34 29 53c-2 -3 -12 -7 -29 -7c-53 0 -91 42 -91 94zM271 644c0 52 39 96 99 96s103 -44 103 -137c0 -119 -71 -183 -197 -183v59c40 0 68 10 86 25s26 34 29 53
c-3 -3 -13 -7 -29 -7c-52 0 -91 42 -91 94z" />
    <glyph glyph-name="quoteleft" unicode="&#x2018;" horiz-adv-x="298" 
d="M252 516c0 -53 -40 -96 -99 -96c-60 0 -103 44 -103 137c0 121 73 183 197 183v-60c-40 0 -68 -10 -86 -24c-14 -11 -26 -31 -29 -53c9 5 17 7 28 7c53 0 92 -42 92 -94z" />
    <glyph glyph-name="quoteright" unicode="&#x2019;" horiz-adv-x="298" 
d="M46 644c0 52 39 96 99 96s103 -44 103 -137c0 -118 -69 -183 -197 -183v59c40 0 68 10 86 25s27 34 29 53c-3 -3 -12 -7 -29 -7c-53 0 -91 42 -91 94z" />
    <glyph glyph-name="quotesinglbase" unicode="&#x201a;" horiz-adv-x="298" 
d="M46 76c0 52 39 96 99 96s103 -44 103 -137c0 -118 -69 -183 -197 -183v59c40 0 68 10 86 25s27 34 29 53c-2 -3 -12 -7 -29 -7c-53 0 -91 42 -91 94z" />
    <glyph glyph-name="quotesingle" unicode="'" horiz-adv-x="224" 
d="M80 432l-32 154v125h128v-125l-32 -154h-64z" />
    <glyph glyph-name="r" unicode="r" horiz-adv-x="417" 
d="M411 482v-139c-21 5 -34 7 -52 7c-86 0 -141 -43 -141 -162v-188h-153v482h153v-78c22 45 79 86 149 86c16 0 30 -2 44 -8z" />
    <glyph glyph-name="racute" unicode="&#x155;" horiz-adv-x="417" 
d="M411 482v-139c-21 5 -34 7 -52 7c-86 0 -141 -43 -141 -162v-188h-153v482h153v-78c22 45 79 86 149 86c16 0 30 -2 44 -8zM371 650l-276 -128l-48 106l276 128z" />
    <glyph glyph-name="radical" unicode="&#x221a;" horiz-adv-x="773" 
d="M-4 121v136h247l88 -285l273 822h177l-376 -1028h-149l-130 355h-130z" />
    <glyph glyph-name="rcaron" unicode="&#x159;" horiz-adv-x="417" 
d="M411 482v-139c-21 5 -34 7 -52 7c-86 0 -141 -43 -141 -162v-188h-153v482h153v-78c22 45 79 86 149 86c16 0 30 -2 44 -8zM208 559l-182 157l73 87l109 -97l110 97l73 -87z" />
    <glyph glyph-name="rcommaaccent" unicode="&#x157;" horiz-adv-x="417" 
d="M411 482v-139c-21 5 -34 7 -52 7c-86 0 -141 -43 -141 -162v-188h-153v482h153v-78c22 45 79 86 149 86c16 0 30 -2 44 -8zM61 -93c0 42 31 77 78 77c48 0 84 -36 84 -110c0 -98 -62 -146 -159 -146v48c32 0 53 6 69 19c15 12 22 27 23 43c-2 -3 -9 -7 -23 -7
c-42 0 -72 35 -72 76z" />
    <glyph glyph-name="registered" unicode="&#xae;" horiz-adv-x="808" 
d="M404 -18c-233 0 -371 176 -371 368s138 368 371 368s371 -176 371 -368s-138 -368 -371 -368zM404 74c165 0 263 132 263 276s-98 276 -263 276s-263 -132 -263 -276s98 -276 263 -276zM356 167h-96v393h177c86 0 142 -66 142 -142c0 -55 -29 -104 -78 -126l78 -125h-109
l-70 110h-44v-110zM356 354h65c36 0 58 29 58 64c0 34 -22 64 -58 64h-65v-128z" />
    <glyph glyph-name="ring" unicode="&#x2da;" horiz-adv-x="496" 
d="M247 846c75 0 135 -61 135 -134s-60 -134 -134 -134c-75 0 -135 61 -135 134c0 74 60 134 134 134zM248 758c-26 0 -45 -22 -45 -45c0 -24 21 -45 45 -45s44 21 44 45s-19 45 -44 45z" />
    <glyph glyph-name="rsuperior" horiz-adv-x="305" 
d="M273 587v-92c-14 4 -23 5 -33 5c-45 0 -76 -20 -76 -86v-99h-101v271h101v-44c12 26 42 49 83 49c9 0 17 -1 26 -4z" />
    <glyph glyph-name="s" unicode="s" horiz-adv-x="510" 
d="M318 284c85 -25 155 -48 155 -143c0 -113 -100 -154 -215 -154c-142 0 -225 62 -225 174h150c0 -51 32 -71 77 -71c37 0 63 13 63 45c0 37 -38 43 -129 72c-83 26 -149 51 -149 140c0 101 85 148 207 148c149 0 214 -71 214 -163h-151c0 40 -21 63 -62 63
c-32 0 -58 -14 -58 -42c0 -36 42 -42 123 -69z" />
    <glyph glyph-name="sacute" unicode="&#x15b;" horiz-adv-x="510" 
d="M318 284c85 -25 155 -48 155 -142c0 -114 -100 -155 -215 -155c-142 0 -225 63 -225 175h150c0 -51 32 -72 78 -72c36 0 62 13 62 45c0 37 -38 43 -129 72c-83 26 -149 51 -149 140c0 101 85 148 207 148c149 0 214 -71 214 -163h-151c0 40 -21 63 -62 63
c-32 0 -58 -14 -58 -42c0 -36 42 -42 123 -69zM417 637l-276 -128l-48 106l276 128z" />
    <glyph glyph-name="scaron" unicode="&#x161;" horiz-adv-x="510" 
d="M318 284c85 -25 155 -48 155 -142c0 -114 -100 -155 -215 -155c-142 0 -225 63 -225 175h150c0 -51 32 -72 78 -72c36 0 62 13 62 45c0 37 -38 43 -129 72c-83 26 -149 51 -149 140c0 101 85 148 207 148c149 0 214 -71 214 -163h-151c0 40 -21 63 -62 63
c-32 0 -58 -14 -58 -42c0 -36 42 -42 123 -69zM254 518l-182 157l73 88l109 -98l110 98l74 -88z" />
    <glyph glyph-name="scedilla" unicode="&#x15f;" horiz-adv-x="510" 
d="M205 -114v105c-109 14 -172 74 -172 171h150c0 -51 32 -72 78 -72c36 0 62 13 62 45c0 37 -38 43 -129 72c-83 26 -149 51 -149 140c0 101 85 148 207 148c149 0 214 -71 214 -163h-151c0 40 -21 63 -62 63c-32 0 -58 -14 -58 -42c0 -36 42 -43 123 -69
c84 -27 155 -47 155 -143c0 -103 -82 -146 -190 -152v-46c8 8 21 15 41 15c46 0 84 -38 84 -89s-38 -101 -106 -101c-38 0 -102 16 -111 93h74c4 -18 16 -30 34 -30c20 0 35 15 35 37s-15 35 -35 35c-11 0 -22 -4 -29 -17h-65z" />
    <glyph glyph-name="scircumflex" unicode="&#x15d;" horiz-adv-x="510" 
d="M318 284c85 -25 155 -48 155 -142c0 -114 -100 -155 -215 -155c-142 0 -225 63 -225 175h150c0 -51 32 -72 78 -72c36 0 62 13 62 45c0 37 -38 43 -129 72c-83 26 -149 51 -149 140c0 101 85 148 207 148c149 0 214 -71 214 -163h-151c0 40 -21 63 -62 63
c-32 0 -58 -14 -58 -42c0 -36 42 -42 123 -69zM59 608l196 157l196 -157l-79 -87l-117 93l-116 -93z" />
    <glyph glyph-name="scommaaccent" unicode="&#x219;" horiz-adv-x="510" 
d="M176 -95c0 42 32 77 79 77c48 0 83 -36 83 -110c0 -99 -62 -146 -158 -146v48c32 0 54 7 69 19c11 9 21 25 23 43c-2 -3 -10 -7 -24 -7c-40 0 -72 35 -72 76zM33 162l150 -1c0 -51 32 -71 77 -71c37 0 63 13 63 45c0 37 -38 43 -129 72c-83 26 -149 51 -149 140
c0 101 85 148 207 148c149 0 214 -71 214 -163h-151c0 40 -21 63 -62 63c-32 0 -58 -14 -58 -42c0 -36 42 -43 123 -69c85 -27 155 -48 155 -142c0 -114 -100 -155 -215 -155c-142 0 -225 63 -225 175z" />
    <glyph glyph-name="section" unicode="&#xa7;" horiz-adv-x="575" 
d="M269 60c-124 43 -231 83 -231 206c0 71 36 125 111 151c-50 32 -78 80 -78 141c0 119 107 182 227 182c142 0 228 -89 228 -203h-137c0 60 -36 98 -93 98c-46 0 -88 -24 -88 -71c0 -46 43 -69 97 -87c109 -37 237 -78 237 -203c0 -81 -53 -141 -113 -155
c51 -33 80 -81 80 -143c0 -115 -101 -187 -229 -187c-137 0 -236 82 -236 211h139c0 -62 39 -102 98 -102c48 0 90 26 90 73c0 48 -45 69 -102 89zM412 259c0 28 -14 49 -41 65c-26 15 -64 26 -109 41c-52 -3 -95 -34 -95 -85c0 -34 20 -55 48 -72c25 -15 60 -27 100 -38
c51 3 97 38 97 89z" />
    <glyph glyph-name="semicolon" unicode=";" horiz-adv-x="309" 
d="M50 90c0 54 40 101 104 101c63 0 109 -46 109 -144c0 -129 -80 -192 -208 -192v62c42 0 71 11 90 26c16 13 28 34 31 56c-3 -3 -13 -8 -31 -8c-55 0 -95 45 -95 99zM50 412c0 55 44 100 101 100s101 -45 101 -100s-44 -100 -101 -100s-101 45 -101 100z" />
    <glyph glyph-name="seven" unicode="7" 
d="M75 700h503l-298 -700h-173l243 564h-275v136z" />
    <glyph glyph-name="seven.denominator" horiz-adv-x="372" 
d="M48 385h299l-164 -385h-115l127 297h-147v88z" />
    <glyph glyph-name="seven.numerator" horiz-adv-x="372" 
d="M48 700h299l-164 -385h-115l127 297h-147v88z" />
    <glyph glyph-name="seven.plf" horiz-adv-x="531" 
d="M35 700h503l-298 -700h-173l243 564h-275v136z" />
    <glyph glyph-name="seven.plf.smcp" horiz-adv-x="509" 
d="M60 560h421l-239 -560h-154l189 440h-217v120z" />
    <glyph glyph-name="seven.smcp" horiz-adv-x="569" 
d="M89 560h421l-239 -560h-154l189 440h-217v120z" />
    <glyph glyph-name="seveninferior" unicode="&#x2087;" horiz-adv-x="372" 
d="M48 185h299l-164 -385h-115l127 297h-147v88z" />
    <glyph glyph-name="sevensuperior" unicode="&#x2077;" horiz-adv-x="372" 
d="M48 700h299l-164 -385h-115l127 297h-147v88z" />
    <glyph glyph-name="six" unicode="6" 
d="M306 -14c-167 0 -268 116 -268 253c0 54 16 104 43 146l202 315h182l-140 -210c150 0 248 -116 248 -251c0 -136 -100 -253 -267 -253zM305 121c68 0 112 54 112 119c0 66 -44 119 -112 119c-67 0 -110 -53 -110 -119c0 -65 43 -119 110 -119z" />
    <glyph glyph-name="six.denominator" horiz-adv-x="402" 
d="M200 -8c-98 0 -156 65 -156 143c0 30 9 57 24 80l111 170h119l-74 -110c83 -9 132 -67 132 -140c0 -78 -57 -143 -156 -143zM200 78c32 0 53 25 53 57c0 31 -21 56 -53 56s-53 -25 -53 -56c0 -32 21 -57 53 -57z" />
    <glyph glyph-name="six.numerator" horiz-adv-x="402" 
d="M200 307c-98 0 -156 65 -156 143c0 30 9 57 24 80l111 170h119l-74 -110c83 -9 132 -67 132 -140c0 -78 -57 -143 -156 -143zM200 393c32 0 53 25 53 57c0 31 -21 56 -53 56s-53 -25 -53 -56c0 -32 21 -57 53 -57z" />
    <glyph glyph-name="six.plf" horiz-adv-x="600" 
d="M299 -14c-167 0 -268 116 -268 253c0 54 16 104 43 146l202 315h182l-140 -210c150 0 248 -116 248 -251c0 -136 -100 -253 -267 -253zM298 121c68 0 112 54 112 119c0 66 -44 119 -112 119c-67 0 -110 -53 -110 -119c0 -65 43 -119 110 -119z" />
    <glyph glyph-name="six.plf.smcp" horiz-adv-x="557" 
d="M277 107c50 0 82 39 82 87c0 49 -32 88 -82 88s-82 -39 -82 -88c0 -48 32 -87 82 -87zM278 -11c-140 0 -222 93 -222 205c0 44 13 84 34 117l162 249h162l-109 -163c121 -11 194 -95 194 -202c0 -113 -82 -206 -221 -206z" />
    <glyph glyph-name="six.smcp" horiz-adv-x="568" 
d="M283 107c50 0 82 39 82 87c0 49 -32 88 -82 88s-82 -39 -82 -88c0 -48 32 -87 82 -87zM284 -11c-140 0 -222 93 -222 205c0 44 13 84 34 117l162 249h162l-109 -163c121 -11 194 -95 194 -202c0 -113 -82 -206 -221 -206z" />
    <glyph glyph-name="sixinferior" unicode="&#x2086;" horiz-adv-x="402" 
d="M201 -208c-98 0 -156 65 -156 143c0 30 9 57 24 80l111 170h119l-74 -110c83 -9 132 -67 132 -140c0 -78 -57 -143 -156 -143zM201 -122c32 0 53 25 53 57c0 31 -21 56 -53 56s-53 -25 -53 -56c0 -32 21 -57 53 -57z" />
    <glyph glyph-name="sixsuperior" unicode="&#x2076;" horiz-adv-x="402" 
d="M200 307c-99 0 -155 65 -155 144c0 28 7 56 22 79l112 170h120l-79 -117c63 0 136 -42 136 -132c0 -80 -57 -144 -156 -144zM200 393c33 0 53 25 53 57c0 31 -20 56 -53 56c-32 0 -53 -25 -53 -56c0 -32 21 -57 53 -57z" />
    <glyph glyph-name="slash" unicode="/" horiz-adv-x="491" 
d="M7 -11l351 816l143 -61l-351 -816z" />
    <glyph glyph-name="slash.smcp" horiz-adv-x="465" 
d="M36 -1l274 638l136 -57l-275 -639z" />
    <glyph glyph-name="space" unicode=" " horiz-adv-x="243" 
 />
    <glyph glyph-name="ssuperior" horiz-adv-x="362" 
d="M218 479c59 -14 96 -28 96 -82c0 -68 -59 -89 -130 -89c-93 0 -137 36 -137 98h100c0 -25 15 -35 37 -35c18 0 30 7 30 21c0 18 -19 23 -65 35c-55 14 -97 27 -97 82c0 59 49 85 128 85c99 0 130 -41 130 -91h-100c0 20 -12 30 -31 30c-14 0 -27 -6 -27 -20
c0 -17 20 -23 66 -34z" />
    <glyph glyph-name="sterling" unicode="&#xa3;" horiz-adv-x="628" 
d="M266 497c0 -9 1 -46 1 -81h145v-120h-146c0 -74 -8 -146 -24 -165h315v-131h-496v110c40 42 43 120 43 186h-69v120h70c0 33 -1 68 -1 80c0 129 106 219 249 219c149 0 251 -99 251 -233h-162c0 56 -27 96 -90 96c-51 0 -86 -26 -86 -81z" />
    <glyph glyph-name="summation" unicode="&#x2211;" 
d="M594 -218h-575v141l357 370l-357 366v135h575v-140h-375l356 -346l-356 -380h375v-146z" />
    <glyph glyph-name="t" unicode="t" horiz-adv-x="383" 
d="M366 117v-117c-23 -4 -56 -8 -103 -8c-71 0 -170 9 -170 170v206h-76v114h76v143h152v-143h110v-114h-110v-172c0 -72 28 -82 70 -82c13 0 37 1 51 3z" />
    <glyph glyph-name="tbar" unicode="&#x167;" horiz-adv-x="383" 
d="M366 117v-117c-23 -4 -56 -8 -103 -8c-71 0 -170 9 -170 170v30h-76v103h76v73h-76v114h76v143h152v-143h110v-114h-110v-73h110v-103h-108v-6c0 -64 28 -72 68 -72c14 0 37 1 51 3z" />
    <glyph glyph-name="tcaron" unicode="&#x165;" horiz-adv-x="635" 
d="M17 368v114h76v143h152v-143h110v-114h-110v-172c0 -72 28 -82 70 -82c13 0 37 1 51 3v-117c-23 -4 -56 -8 -103 -8c-71 0 -170 9 -170 170v206h-76zM379 628c0 52 39 97 99 97s103 -45 103 -138c0 -119 -70 -183 -197 -183v60c40 0 68 10 86 25c16 13 26 29 29 53
c-3 -3 -12 -7 -29 -7c-53 0 -91 42 -91 93z" />
    <glyph glyph-name="tcommaaccent" unicode="&#x163;" horiz-adv-x="383" 
d="M17 368v114h76v143h152v-143h110v-114h-110v-172c0 -72 28 -82 70 -82c13 0 37 1 51 3v-117c-23 -4 -56 -8 -103 -8c-71 0 -170 9 -170 170v206h-76zM119 -93c0 42 32 77 79 77s83 -36 83 -110c0 -97 -61 -147 -159 -147v48c33 0 55 8 69 20c15 11 22 27 23 42
c-2 -2 -9 -6 -23 -6c-41 0 -72 34 -72 76z" />
    <glyph glyph-name="thinspace" unicode="&#x2009;" horiz-adv-x="204" 
 />
    <glyph glyph-name="thorn" unicode="&#xfe;" horiz-adv-x="632" 
d="M220 -218h-153v918h153v-287c26 47 83 81 154 81c128 0 228 -109 228 -253s-100 -253 -228 -253c-74 0 -130 36 -154 80v-286zM335 118c69 0 115 56 115 123c0 66 -46 123 -115 123s-115 -57 -115 -123c0 -67 46 -123 115 -123z" />
    <glyph glyph-name="three" unicode="3" 
d="M41 235h161c0 -76 43 -120 106 -120c60 0 92 41 92 97c0 51 -27 92 -103 92h-63v125h63c72 0 94 35 94 83c0 58 -33 81 -82 81c-67 0 -87 -42 -87 -102h-162c0 119 75 224 243 224c133 0 248 -65 248 -194c0 -82 -47 -137 -104 -157c63 -23 115 -80 115 -169
c0 -133 -116 -210 -258 -210c-164 0 -263 102 -263 250z" />
    <glyph glyph-name="three.denominator" horiz-adv-x="404" 
d="M47 130h107c0 -37 17 -58 46 -58s43 21 43 47s-14 43 -48 43h-41v79h41c35 0 45 15 45 39c0 29 -15 40 -38 40c-31 0 -39 -21 -39 -51h-107c0 62 35 125 144 125c78 0 146 -32 146 -106c0 -46 -27 -78 -60 -89c36 -12 64 -46 64 -94c0 -76 -68 -114 -150 -114
c-105 0 -153 61 -153 139z" />
    <glyph glyph-name="three.numerator" horiz-adv-x="404" 
d="M47 445h107c0 -37 17 -58 46 -58s43 21 43 47s-14 43 -48 43h-41v79h41c35 0 45 15 45 39c0 29 -15 40 -38 40c-31 0 -39 -21 -39 -51h-107c0 62 35 125 144 125c78 0 146 -32 146 -106c0 -46 -27 -78 -60 -89c36 -12 64 -46 64 -94c0 -76 -68 -114 -150 -114
c-105 0 -153 61 -153 139z" />
    <glyph glyph-name="three.plf" horiz-adv-x="601" 
d="M32 235h162c0 -76 43 -120 105 -120c59 0 93 40 93 97c0 51 -27 92 -103 92h-63v125h63c71 0 93 35 93 83c0 58 -33 81 -82 81c-67 0 -87 -42 -87 -102h-162c0 119 76 224 244 224c132 0 247 -65 247 -194c0 -82 -47 -138 -103 -157c63 -23 114 -80 114 -169
c0 -133 -116 -210 -258 -210c-164 0 -263 102 -263 250z" />
    <glyph glyph-name="three.plf.smcp" horiz-adv-x="559" 
d="M59 189h144c0 -57 29 -90 74 -90s68 32 68 72c0 39 -21 68 -76 68h-55v108h55c54 0 70 25 70 62c0 44 -23 60 -59 60c-49 0 -63 -31 -63 -76h-144c0 91 54 180 203 180c110 0 206 -49 206 -155c0 -66 -38 -111 -85 -128c50 -17 92 -65 92 -136c0 -108 -95 -167 -214 -167
c-143 0 -216 85 -216 202z" />
    <glyph glyph-name="three.smcp" horiz-adv-x="569" 
d="M65 189h145c0 -57 29 -90 74 -90c44 0 67 33 67 73c0 38 -21 67 -75 67h-56v108h56c53 0 70 25 70 62c0 44 -24 60 -59 60c-49 0 -63 -31 -63 -76h-145c0 91 55 180 203 180c110 0 206 -49 206 -155c0 -66 -37 -111 -85 -128c50 -17 93 -65 93 -136
c0 -108 -96 -167 -215 -167c-142 0 -216 85 -216 202z" />
    <glyph glyph-name="threeinferior" unicode="&#x2083;" horiz-adv-x="404" 
d="M47 -70h107c0 -37 17 -58 46 -58s43 21 43 47s-14 43 -48 43h-41v79h41c35 0 45 15 45 39c0 29 -15 40 -38 40c-31 0 -39 -21 -39 -51h-107c0 62 35 125 144 125c78 0 146 -32 146 -106c0 -46 -27 -78 -60 -89c36 -12 64 -46 64 -94c0 -76 -68 -114 -150 -114
c-105 0 -153 61 -153 139z" />
    <glyph glyph-name="threesuperior" unicode="&#xb3;" horiz-adv-x="404" 
d="M47 445h107c0 -37 17 -58 46 -58s43 21 43 47s-14 43 -48 43h-41v79h41c35 0 45 15 45 39c0 29 -15 40 -38 40c-31 0 -39 -21 -39 -51h-107c0 62 35 125 144 125c78 0 146 -32 146 -106c0 -46 -27 -78 -60 -89c36 -12 64 -46 64 -94c0 -76 -68 -114 -150 -114
c-105 0 -153 61 -153 139z" />
    <glyph glyph-name="tilde" unicode="&#x2dc;" horiz-adv-x="513" 
d="M111 570l-50 92c60 36 86 38 98 38c44 0 129 -27 169 -27c15 0 28 4 78 27l46 -90c-55 -43 -99 -45 -111 -45c-42 0 -123 26 -158 26c-23 0 -48 -10 -72 -21z" />
    <glyph glyph-name="trademark" unicode="&#x2122;" horiz-adv-x="837" 
d="M360 293v407h139l84 -265l84 265h134v-407h-92v292l-92 -292h-67l-99 302v-302h-91zM32 700h274v-82h-90v-325h-94v325h-90v82z" />
    <glyph glyph-name="tsuperior" horiz-adv-x="283" 
d="M244 388v-73c-14 -3 -34 -5 -62 -5c-49 0 -104 6 -104 96v108h-40v72h40v79h101v-79h61v-72h-61v-86c0 -37 16 -42 37 -42c9 0 20 1 28 2z" />
    <glyph glyph-name="two" unicode="2" 
d="M67 0c0 228 75 294 185 362c81 50 147 80 147 153c0 54 -35 78 -80 78c-50 0 -89 -29 -89 -102h-161c0 127 91 224 247 224c131 0 242 -68 242 -204c0 -122 -90 -178 -183 -238c-94 -61 -122 -80 -122 -142h300v-131h-486z" />
    <glyph glyph-name="two.denominator" horiz-adv-x="397" 
d="M54 0c0 127 41 167 101 203c49 29 84 44 84 81c0 25 -16 36 -37 36c-23 0 -39 -14 -39 -51h-107c0 64 44 125 144 125c75 0 144 -34 144 -113c0 -67 -51 -102 -98 -130c-51 -30 -69 -41 -69 -68h164v-83h-287z" />
    <glyph glyph-name="two.numerator" horiz-adv-x="397" 
d="M54 315c0 127 41 167 101 203c49 29 84 44 84 81c0 25 -16 36 -37 36c-23 0 -39 -14 -39 -51h-107c0 64 44 125 144 125c75 0 144 -34 144 -113c0 -67 -51 -102 -98 -130c-51 -30 -69 -41 -69 -68h164v-83h-287z" />
    <glyph glyph-name="two.plf" horiz-adv-x="577" 
d="M45 0c0 228 75 294 185 362c81 50 147 80 147 153c0 54 -35 78 -80 78c-50 0 -89 -29 -89 -102h-161c0 127 91 224 247 224c131 0 242 -68 242 -203c0 -127 -100 -187 -183 -239c-96 -61 -122 -83 -122 -142h300v-131h-486z" />
    <glyph glyph-name="two.plf.smcp" horiz-adv-x="546" 
d="M69 0c0 183 61 240 148 293c67 41 120 64 120 120c0 39 -26 56 -58 56c-36 0 -63 -22 -63 -76h-145c0 96 69 180 206 180c107 0 201 -52 201 -164c0 -98 -73 -147 -144 -190c-75 -47 -98 -63 -98 -105h238v-114h-405z" />
    <glyph glyph-name="two.smcp" horiz-adv-x="569" 
d="M83 0c0 184 59 239 147 293c68 42 120 64 120 120c0 39 -25 56 -57 56c-37 0 -64 -22 -64 -76h-145c0 96 69 180 206 180c107 0 202 -52 202 -164c0 -98 -74 -146 -145 -190c-76 -47 -98 -61 -98 -105h239v-114h-405z" />
    <glyph glyph-name="twoinferior" unicode="&#x2082;" horiz-adv-x="397" 
d="M54 -200c0 131 44 167 101 203c49 31 84 44 84 81c0 25 -16 36 -37 36c-23 0 -39 -14 -39 -51h-107c0 64 44 125 144 125c75 0 144 -34 144 -113c0 -67 -51 -102 -98 -130c-51 -30 -69 -41 -69 -68h164v-83h-287z" />
    <glyph glyph-name="twosuperior" unicode="&#xb2;" horiz-adv-x="397" 
d="M54 315c0 127 41 167 101 203c49 29 84 44 84 81c0 25 -16 36 -37 36c-23 0 -39 -14 -39 -51h-107c0 64 44 125 144 125c75 0 144 -34 144 -113c0 -67 -51 -102 -98 -130c-51 -30 -69 -41 -69 -68h164v-83h-287z" />
    <glyph glyph-name="u" unicode="u" horiz-adv-x="607" 
d="M389 482h153v-482h-153v69c-27 -51 -83 -81 -159 -81c-66 0 -108 23 -134 55c-30 37 -37 84 -37 153v286h152v-247c0 -69 21 -117 85 -117c63 0 93 48 93 122v242z" />
    <glyph glyph-name="uacute" unicode="&#xfa;" horiz-adv-x="607" 
d="M542 482v-482h-153v69c-27 -51 -83 -81 -159 -81c-66 0 -108 23 -134 55c-30 37 -37 84 -37 153v286h152v-247c0 -69 21 -117 85 -117c63 0 93 48 93 122v242h153zM466 637l-276 -128l-48 106l276 128z" />
    <glyph glyph-name="ubreve" unicode="&#x16d;" horiz-adv-x="607" 
d="M542 482v-482h-153v69c-27 -51 -83 -81 -159 -81c-66 0 -108 23 -134 55c-30 37 -37 84 -37 153v286h152v-247c0 -69 21 -117 85 -117c63 0 93 48 93 122v242h153zM81 713h122c16 -35 46 -60 99 -60c55 0 86 27 101 60h123c-16 -105 -112 -172 -223 -172
s-203 68 -222 172z" />
    <glyph glyph-name="ucircumflex" unicode="&#xfb;" horiz-adv-x="607" 
d="M542 482v-482h-153v69c-27 -51 -83 -81 -159 -81c-66 0 -108 23 -134 55c-30 37 -37 84 -37 153v286h152v-247c0 -69 21 -117 85 -117c63 0 93 48 93 122v242h153zM103 615l195 157l197 -157l-79 -88l-117 94l-116 -93z" />
    <glyph glyph-name="udieresis" unicode="&#xfc;" horiz-adv-x="607" 
d="M542 482v-482h-153v69c-27 -51 -83 -81 -159 -81c-66 0 -108 23 -134 55c-30 37 -37 84 -37 153v286h152v-247c0 -69 21 -117 85 -117c63 0 93 48 93 122v242h153zM324 630c0 52 41 94 94 94s95 -42 95 -94c0 -51 -42 -93 -95 -93s-94 42 -94 93zM83 630
c0 52 42 94 95 94c52 0 95 -42 95 -94c0 -51 -42 -93 -95 -93c-54 0 -95 42 -95 93z" />
    <glyph glyph-name="ugrave" unicode="&#xf9;" horiz-adv-x="607" 
d="M542 482v-482h-153v69c-27 -51 -83 -81 -159 -81c-66 0 -108 23 -134 55c-30 37 -37 84 -37 153v286h152v-247c0 -69 21 -117 85 -117c63 0 93 48 93 122v242h153zM422 509l-276 128l48 106l276 -128z" />
    <glyph glyph-name="uhungarumlaut" unicode="&#x171;" horiz-adv-x="607" 
d="M389 482h153v-482h-153v69c-27 -51 -83 -81 -159 -81c-66 0 -108 23 -134 55c-30 37 -37 84 -37 153v286h152v-247c0 -69 21 -117 85 -117c63 0 93 48 93 122v242zM352 677l-169 -146l-62 28l125 180zM547 677l-169 -146l-62 28l125 180z" />
    <glyph glyph-name="umacron" unicode="&#x16b;" horiz-adv-x="607" 
d="M542 482v-482h-153v69c-27 -51 -83 -81 -159 -81c-66 0 -108 23 -134 55c-30 37 -37 84 -37 153v286h152v-247c0 -69 21 -117 85 -117c63 0 93 48 93 122v242h153zM487 687v-115h-368v115h368z" />
    <glyph glyph-name="underscore" unicode="_" horiz-adv-x="583" 
d="M562 -132h-540v92h540v-92z" />
    <glyph glyph-name="uni021A" unicode="&#x21a;" horiz-adv-x="509" 
d="M173 0v560h-158v140h479v-140h-159v-560h-162zM176 -93c0 42 32 77 79 77s83 -36 83 -110c0 -97 -61 -147 -159 -147v48c65 0 89 32 92 62c-2 -2 -9 -6 -23 -6c-41 0 -72 34 -72 76z" />
    <glyph glyph-name="uni021A.smcp" horiz-adv-x="473" 
d="M161 0v430h-120v130h391v-130h-120v-430h-151zM167 -80c0 37 28 67 69 67c42 0 72 -31 72 -96c0 -85 -51 -127 -138 -127v42c56 0 77 27 81 54c-2 -3 -10 -6 -21 -6c-37 0 -63 31 -63 66z" />
    <glyph glyph-name="uni021B" unicode="&#x21b;" horiz-adv-x="383" 
d="M17 368v114h76v143h152v-143h110v-114h-110v-172c0 -72 28 -82 70 -82c13 0 37 1 51 3v-117c-23 -4 -56 -8 -103 -8c-71 0 -170 9 -170 170v206h-76zM117 -93c0 42 32 77 79 77c48 0 83 -36 83 -110c0 -98 -61 -147 -158 -147v48c32 0 54 8 69 20s21 28 23 42
c-2 -2 -10 -6 -24 -6c-41 0 -72 34 -72 76z" />
    <glyph glyph-name="uni2196" unicode="&#x2196;" 
d="M53 244l-13 353l353 -13l-5 -105l-162 9l347 -346l-78 -79l-346 346l9 -161z" />
    <glyph glyph-name="uni2197" unicode="&#x2197;" 
d="M220 584l353 13l-13 -353l-105 4l10 162l-347 -347l-78 79l345 346l-160 -9s-5 103 -5 105z" />
    <glyph glyph-name="uni2198" unicode="&#x2198;" 
d="M560 456l13 -353l-353 13l5 105l162 -9l-347 346l78 79l346 -346l-9 161z" />
    <glyph glyph-name="uni2199" unicode="&#x2199;" 
d="M393 116l-353 -13l13 353l105 -4l-9 -162l346 347l78 -79l-345 -346l160 9s5 -103 5 -105z" />
    <glyph glyph-name="uogonek" unicode="&#x173;" horiz-adv-x="607" 
d="M533 -119l-2 -78c-26 -9 -58 -15 -91 -15c-91 0 -130 44 -130 97c0 43 26 77 79 115v69c-27 -51 -83 -81 -159 -81c-66 0 -108 23 -134 55c-30 37 -37 84 -37 153v286h152v-247c0 -69 21 -117 85 -117c63 0 93 48 93 122v242h153v-482h-55c-27 -18 -56 -39 -56 -78
c0 -28 16 -53 48 -53c13 0 35 4 54 12z" />
    <glyph glyph-name="uring" unicode="&#x16f;" horiz-adv-x="607" 
d="M542 482v-482h-153v69c-27 -51 -83 -81 -159 -81c-66 0 -108 23 -134 55c-30 37 -37 84 -37 153v286h152v-247c0 -69 21 -117 85 -117c63 0 93 48 93 122v242h153zM298 785c75 0 135 -61 135 -134s-60 -135 -135 -135c-74 0 -134 62 -134 135c0 74 60 134 134 134z
M298 696c-25 0 -44 -21 -44 -45s20 -44 44 -44s45 21 45 45s-20 44 -45 44z" />
    <glyph glyph-name="usuperior" horiz-adv-x="409" 
d="M346 586v-271h-101v40c-14 -29 -46 -47 -88 -47c-33 0 -59 11 -74 28c-19 21 -23 50 -23 90v160h100v-138c0 -34 11 -55 41 -55c29 0 44 21 44 60v133h101z" />
    <glyph glyph-name="utilde" unicode="&#x169;" horiz-adv-x="607" 
d="M542 482v-482h-153v69c-27 -51 -83 -81 -159 -81c-66 0 -108 23 -134 55c-30 37 -37 84 -37 153v286h152v-247c0 -69 21 -117 85 -117c63 0 93 48 93 122v242h153zM158 564l-50 91c60 36 86 38 98 38c44 0 129 -27 169 -27c15 0 28 4 78 27l46 -89
c-55 -43 -99 -45 -111 -45c-42 0 -123 26 -158 26c-23 0 -48 -10 -72 -21z" />
    <glyph glyph-name="v" unicode="v" horiz-adv-x="551" 
d="M-2 482h160l117 -303l118 303h160l-218 -482h-122z" />
    <glyph glyph-name="vsuperior" horiz-adv-x="385" 
d="M28 586h105l59 -164l61 164h104l-122 -271h-86z" />
    <glyph glyph-name="w" unicode="w" horiz-adv-x="803" 
d="M500 0l-98 307l-99 -307h-124l-180 482h158l89 -287l85 287h141l85 -287l89 287h158l-180 -482h-124z" />
    <glyph glyph-name="wacute" unicode="&#x1e83;" horiz-adv-x="803" 
d="M500 0l-98 307l-99 -307h-124l-180 482h158l89 -287l85 287h141l85 -287l89 287h158l-180 -482h-124zM564 637l-276 -128l-49 106l276 128z" />
    <glyph glyph-name="wcircumflex" unicode="&#x175;" horiz-adv-x="803" 
d="M500 0l-98 307l-99 -307h-124l-180 482h158l89 -287l85 287h141l85 -287l89 287h158l-180 -482h-124zM205 608l196 157l196 -157l-79 -87l-117 93l-116 -93z" />
    <glyph glyph-name="wdieresis" unicode="&#x1e85;" horiz-adv-x="803" 
d="M500 0l-98 307l-99 -307h-124l-180 482h158l89 -287l85 287h141l85 -287l89 287h158l-180 -482h-124zM430 630c0 50 40 91 91 91c52 0 92 -42 92 -91c0 -50 -40 -91 -92 -91c-51 0 -91 40 -91 91zM189 630c0 50 40 91 92 91s92 -42 92 -91c0 -50 -40 -91 -92 -91
s-92 40 -92 91z" />
    <glyph glyph-name="wgrave" unicode="&#x1e81;" horiz-adv-x="803" 
d="M500 0l-98 307l-99 -307h-124l-180 482h158l89 -287l85 287h141l85 -287l89 287h158l-180 -482h-124zM515 509l-276 128l49 106l276 -128z" />
    <glyph glyph-name="wsuperior" unicode="&#x2b7;" horiz-adv-x="520" 
d="M306 315l-46 154l-45 -154h-88l-98 271h102l45 -154l38 154h91l39 -154l45 154h103l-99 -271h-87z" />
    <glyph glyph-name="x" unicode="x" horiz-adv-x="514" 
d="M348 243l165 -243h-177l-79 140l-79 -140h-177l166 243l-163 239h177l76 -136l76 136h177z" />
    <glyph glyph-name="xsuperior" unicode="&#x2e3;" horiz-adv-x="370" 
d="M245 452l96 -137h-116l-40 73l-40 -73h-117l97 137l-95 134h117l38 -71l38 71h117z" />
    <glyph glyph-name="y" unicode="y" horiz-adv-x="615" 
d="M308 -231c-178 0 -249 79 -249 194h150c1 -46 28 -81 95 -81c64 0 95 32 95 113v82c-27 -52 -83 -82 -159 -82c-66 0 -108 23 -134 55c-30 37 -37 84 -37 153v279h152v-247c0 -69 21 -117 85 -117c63 0 93 48 93 122v242h153v-479c0 -163 -76 -234 -244 -234z" />
    <glyph glyph-name="yacute" unicode="&#xfd;" horiz-adv-x="615" 
d="M308 -231c-178 0 -249 79 -249 194h150c1 -46 28 -81 95 -81c64 0 95 32 95 113v82c-27 -52 -83 -82 -159 -82c-66 0 -108 23 -134 55c-30 37 -37 84 -37 153v279h152v-247c0 -69 21 -117 85 -117c63 0 93 48 93 122v242h153v-479c0 -163 -76 -234 -244 -234zM470 637
l-276 -128l-49 106l276 128z" />
    <glyph glyph-name="ycircumflex" unicode="&#x177;" horiz-adv-x="615" 
d="M308 -231c-178 0 -249 79 -249 194h150c1 -46 28 -81 95 -81c64 0 95 32 95 113v82c-27 -52 -83 -82 -159 -82c-66 0 -108 23 -134 55c-30 37 -37 84 -37 153v279h152v-247c0 -69 21 -117 85 -117c63 0 93 48 93 122v242h153v-479c0 -163 -76 -234 -244 -234zM111 608
l196 157l196 -157l-79 -87l-117 93l-116 -93z" />
    <glyph glyph-name="ydieresis" unicode="&#xff;" horiz-adv-x="622" 
d="M308 -231c-178 0 -249 79 -249 194h150c1 -46 28 -81 95 -81c64 0 95 32 95 113v82c-27 -52 -83 -82 -159 -82c-66 0 -108 23 -134 55c-30 37 -37 84 -37 153v279h152v-247c0 -69 21 -117 85 -117c63 0 93 48 93 122v242h153v-479c0 -163 -76 -234 -244 -234zM350 630
c0 50 40 91 91 91c52 0 93 -41 93 -91s-41 -91 -93 -91c-51 0 -91 41 -91 91zM109 630c0 50 41 91 92 91c52 0 92 -41 92 -91s-40 -91 -92 -91c-51 0 -92 41 -92 91z" />
    <glyph glyph-name="yen" unicode="&#xa5;" horiz-adv-x="630" 
d="M-23 700h188l151 -275l149 275h188l-237 -394h116v-94h-138v-51h138v-94h-138v-67h-154v67h-136v94h136v51h-136v94h110z" />
    <glyph glyph-name="ygrave" unicode="&#x1ef3;" horiz-adv-x="615" 
d="M308 -231c-178 0 -249 79 -249 194h150c1 -46 28 -81 95 -81c64 0 95 32 95 113v82c-27 -52 -83 -82 -159 -82c-66 0 -108 23 -134 55c-30 37 -37 84 -37 153v279h152v-247c0 -69 21 -117 85 -117c63 0 93 48 93 122v242h153v-479c0 -163 -76 -234 -244 -234zM421 509
l-276 128l48 106l276 -128z" />
    <glyph glyph-name="ysuperior" unicode="&#x2b8;" horiz-adv-x="413" 
d="M206 194c-104 0 -146 36 -146 106h100c0 -22 12 -38 44 -38s45 17 45 57v43c-14 -29 -46 -47 -88 -47c-33 0 -58 11 -73 28c-19 21 -23 50 -23 90v153h100v-138c0 -34 11 -55 41 -55c29 0 43 21 43 60v133h102v-260c0 -94 -38 -132 -145 -132z" />
    <glyph glyph-name="z" unicode="z" horiz-adv-x="480" 
d="M31 482h436l-212 -352h205v-130h-442l213 352h-200v130z" />
    <glyph glyph-name="zacute" unicode="&#x17a;" horiz-adv-x="480" 
d="M31 482h436l-212 -352h205v-130h-442l213 352h-200v130zM403 636l-276 -128l-49 106l276 128z" />
    <glyph glyph-name="zcaron" unicode="&#x17e;" horiz-adv-x="480" 
d="M250 503l-182 158l72 87l110 -97l110 97l73 -87zM31 482h436l-212 -352h205v-130h-442l213 352h-200v130z" />
    <glyph glyph-name="zdotaccent" unicode="&#x17c;" horiz-adv-x="480" 
d="M31 482h436l-212 -352h205v-130h-442l213 352h-200v130zM146 629c0 52 41 94 94 94s95 -42 95 -94c0 -51 -42 -93 -95 -93s-94 42 -94 93z" />
    <glyph glyph-name="zero" unicode="0" 
d="M40 235v230c0 135 102 250 266 250c163 0 268 -115 268 -250v-230c0 -135 -105 -250 -268 -250c-164 0 -266 115 -266 250zM412 235v230c0 61 -42 113 -106 113s-105 -52 -105 -113v-230c0 -61 41 -113 105 -113s106 52 106 113z" />
    <glyph glyph-name="zero.denominator" horiz-adv-x="413" 
d="M52 130v125c0 75 58 139 154 139c95 0 156 -64 156 -139v-125c0 -75 -61 -139 -156 -139c-96 0 -154 64 -154 139zM255 130v125c0 28 -19 52 -49 52c-29 0 -47 -24 -47 -52v-125c0 -28 18 -52 47 -52c30 0 49 24 49 52z" />
    <glyph glyph-name="zero.numerator" horiz-adv-x="413" 
d="M52 445v125c0 75 58 139 154 139c95 0 156 -64 156 -139v-125c0 -75 -61 -139 -156 -139c-96 0 -154 64 -154 139zM255 445v125c0 28 -19 52 -49 52c-29 0 -47 -24 -47 -52v-125c0 -28 18 -52 47 -52c30 0 49 24 49 52z" />
    <glyph glyph-name="zero.plf" horiz-adv-x="616" 
d="M41 235v230c0 135 103 250 266 250s268 -115 268 -250v-230c0 -135 -105 -250 -268 -250s-266 115 -266 250zM413 235v230c0 61 -41 113 -106 113c-64 0 -104 -52 -104 -113v-230c0 -61 40 -113 104 -113c65 0 106 52 106 113z" />
    <glyph glyph-name="zero.plf.smcp" horiz-adv-x="571" 
d="M65 189v182c0 109 85 202 221 202c135 0 220 -93 220 -202v-182c0 -109 -85 -202 -220 -202c-136 0 -221 93 -221 202zM361 189v182c0 44 -29 82 -75 82c-47 0 -76 -38 -76 -82v-182c0 -44 29 -82 76 -82c46 0 75 38 75 82z" />
    <glyph glyph-name="zero.plfslash" 
d="M306 -15c-164 0 -266 115 -266 250v230c0 135 102 250 266 250c163 0 268 -115 268 -250v-230c0 -135 -105 -250 -268 -250zM201 471v-186c0 -14 2 -28 6 -40l139 324c-12 6 -26 9 -41 9c-61 0 -104 -48 -104 -107zM412 453l-141 -325c11 -4 22 -6 35 -6
c64 0 106 52 106 113v218z" />
    <glyph glyph-name="zero.smcp" horiz-adv-x="568" 
d="M64 189v182c0 109 84 202 220 202c135 0 220 -93 220 -202v-182c0 -109 -85 -202 -220 -202c-136 0 -220 93 -220 202zM360 189v182c0 44 -30 82 -76 82s-76 -38 -76 -82v-182c0 -44 30 -82 76 -82s76 38 76 82z" />
    <glyph glyph-name="zeroinferior" unicode="&#x2080;" horiz-adv-x="413" 
d="M52 -70v125c0 75 58 139 154 139c95 0 156 -64 156 -139v-125c0 -75 -61 -139 -156 -139c-96 0 -154 64 -154 139zM255 -70v125c0 28 -19 52 -49 52c-29 0 -47 -24 -47 -52v-125c0 -28 18 -52 47 -52c30 0 49 24 49 52z" />
    <glyph glyph-name="zerosuperior" unicode="&#x2070;" horiz-adv-x="413" 
d="M52 445v125c0 75 58 139 154 139c95 0 156 -64 156 -139v-125c0 -75 -61 -139 -156 -139c-96 0 -154 64 -154 139zM255 445v125c0 28 -19 52 -49 52c-29 0 -47 -24 -47 -52v-125c0 -28 18 -52 47 -52c30 0 49 24 49 52z" />
    <glyph glyph-name="zsuperior" horiz-adv-x="341" 
d="M48 586h255l-113 -187h107v-84h-259l114 187h-104v84z" />
    <glyph glyph-name="zero.slash" 
d="M40 235v230c0 135 102 250 266 250c163 0 268 -115 268 -250v-230c0 -135 -105 -250 -268 -250c-164 0 -266 115 -266 250zM412 235v230c0 61 -42 113 -106 113s-105 -52 -105 -113v-230c0 -61 41 -113 105 -113s106 52 106 113z" />
    <glyph glyph-name="zero.slash.smcp" horiz-adv-x="568" 
d="M64 189v182c0 109 84 202 220 202c135 0 220 -93 220 -202v-182c0 -109 -85 -202 -220 -202c-136 0 -220 93 -220 202zM208 214l101 234c-8 3 -16 5 -26 5c-45 0 -75 -38 -75 -82v-157zM360 332l-97 -222c6 -2 13 -3 21 -3c46 0 76 38 76 82v143z" />
    <glyph glyph-name="zero.plfslash.smcp" horiz-adv-x="570" 
d="M65 189v182c0 109 84 202 220 202c135 0 220 -93 220 -202v-182c0 -109 -85 -202 -220 -202c-136 0 -220 93 -220 202zM209 214l101 234c-8 3 -16 5 -26 5c-45 0 -75 -38 -75 -82v-157zM361 332l-97 -222c6 -2 13 -3 21 -3c46 0 76 38 76 82v143z" />
    <glyph glyph-name="uni00B5" unicode="&#xb5;" 
d="M65 -218v700h152v-249c0 -68 22 -115 85 -115s93 48 93 122v242h153v-482h-153v69c-25 -46 -73 -74 -137 -79c-15 0 -29 2 -41 6v-214h-152z" />
    <glyph glyph-name="uni2206" unicode="&#x2206;" horiz-adv-x="660" 
d="M329 500l-111 -373h220zM403 700l253 -700h-652l250 700h149z" />
    <glyph glyph-name="uni2126" unicode="&#x2126;" horiz-adv-x="723" 
d="M362 567c-106 0 -161 -78 -161 -171c0 -75 35 -157 129 -178v-218h-275v127h150v15c-105 48 -166 147 -166 262c0 162 122 308 323 308c200 0 322 -146 322 -308c0 -115 -61 -215 -166 -262v-15h150v-127h-275v218c94 21 129 103 129 178c0 93 -54 171 -160 171z" />
    <glyph glyph-name="onequarter" unicode="&#xbc;" horiz-adv-x="958" 
d="M206 0l400 754l105 -53l-400 -754zM86 558v72c77 0 95 24 95 70h92v-385h-108v243h-79zM722 0v100h-163v285h107v-197h56v100h106v-100h43v-88h-43v-100h-106z" />
    <glyph glyph-name="onehalf" unicode="&#xbd;" horiz-adv-x="958" 
d="M213 0l400 754l105 -53l-400 -754zM93 558v72c77 0 95 24 95 70h92v-385h-108v243h-79zM575 0c0 127 41 167 101 203c49 29 84 44 84 81c0 25 -16 36 -37 36c-23 0 -39 -14 -39 -51h-107c0 64 44 125 144 125c75 0 144 -34 144 -113c0 -67 -51 -102 -98 -130
c-51 -30 -69 -41 -69 -68h164v-83h-287z" />
    <glyph glyph-name="threequarters" unicode="&#xbe;" horiz-adv-x="958" 
d="M212 0l400 754l105 -53l-400 -754zM738 0v100h-163v285h107v-197h56v100h106v-100h43v-88h-43v-100h-106zM71 445h107c0 -37 17 -58 46 -58s43 21 43 47s-14 43 -48 43h-41v79h41c35 0 45 15 45 39c0 29 -15 40 -38 40c-31 0 -39 -21 -39 -51h-107c0 62 35 125 144 125
c78 0 146 -32 146 -106c0 -46 -27 -78 -60 -89c36 -12 64 -46 64 -94c0 -76 -68 -114 -150 -114c-105 0 -153 61 -153 139z" />
    <glyph glyph-name="percent" unicode="%" horiz-adv-x="958" 
d="M223 0l400 754l105 -53l-400 -754zM587 130v125c0 75 58 139 154 139c95 0 156 -64 156 -139v-125c0 -75 -61 -139 -156 -139c-96 0 -154 64 -154 139zM790 130v125c0 28 -19 52 -49 52c-29 0 -47 -24 -47 -52v-125c0 -28 18 -52 47 -52c30 0 49 24 49 52zM61 445v125
c0 75 58 139 154 139c95 0 156 -64 156 -139v-125c0 -75 -61 -139 -156 -139c-96 0 -154 64 -154 139zM264 445v125c0 28 -19 52 -49 52c-29 0 -47 -24 -47 -52v-125c0 -28 18 -52 47 -52c30 0 49 24 49 52z" />
    <glyph glyph-name="perthousand" unicode="&#x2030;" horiz-adv-x="1326" 
d="M223 0l400 754l105 -53l-400 -754zM587 130v125c0 75 58 139 154 139c95 0 156 -64 156 -139v-125c0 -75 -61 -139 -156 -139c-96 0 -154 64 -154 139zM790 130v125c0 28 -19 52 -49 52c-29 0 -47 -24 -47 -52v-125c0 -28 18 -52 47 -52c30 0 49 24 49 52zM61 445v125
c0 75 58 139 154 139c95 0 156 -64 156 -139v-125c0 -75 -61 -139 -156 -139c-96 0 -154 64 -154 139zM264 445v125c0 28 -19 52 -49 52c-29 0 -47 -24 -47 -52v-125c0 -28 18 -52 47 -52c30 0 49 24 49 52zM955 130v125c0 75 58 139 154 139c95 0 156 -64 156 -139v-125
c0 -75 -61 -139 -156 -139c-96 0 -154 64 -154 139zM1158 130v125c0 28 -19 52 -49 52c-29 0 -47 -24 -47 -52v-125c0 -28 18 -52 47 -52c30 0 49 24 49 52z" />
    </font>
</defs>
</svg>
